<svg width="44" height="44" viewBox="0 0 44 44" fill="none" xmlns="http://www.w3.org/2000/svg">
<path d="M12.8333 23.8327V20.166H16.5V23.8327H12.8333Z" fill="white"/>
<path d="M20.1667 20.166H23.8333V23.8327H20.1667V20.166Z" fill="white"/>
<path d="M27.5 23.8327V20.166H31.1667V23.8327H27.5Z" fill="white"/>
<path d="M12.8333 32.0827V28.416H16.5V32.0827H12.8333Z" fill="white"/>
<path d="M20.1667 28.416H23.8333V32.0827H20.1667V28.416Z" fill="white"/>
<path d="M31.1667 32.0827V28.416H27.5V32.0827H31.1667Z" fill="white"/>
<path fill-rule="evenodd" clip-rule="evenodd" d="M33 7.33268H34.8333C36.85 7.33268 38.5 8.98268 38.5 10.9993V36.666C38.5 38.6827 36.85 40.3327 34.8333 40.3327H9.16667C7.13167 40.3327 5.5 38.6827 5.5 36.666L5.51833 10.9993C5.51833 8.98268 7.13167 7.33268 9.16667 7.33268H11V3.66602H14.6667V7.33268L29.3333 7.33268V3.66602H33V7.33268ZM9.16667 36.666H34.8333V16.4993H9.16667L9.16667 36.666Z" fill="white"/>
</svg>