<svg width="20" height="20" viewBox="0 0 20 20" fill="none" xmlns="http://www.w3.org/2000/svg">
<path d="M5.83333 10.8327V9.16602H7.5V10.8327H5.83333Z" fill="#3E6AEC"/>
<path d="M9.16667 9.16602H10.8333V10.8327H9.16667V9.16602Z" fill="#3E6AEC"/>
<path d="M12.5 10.8327V9.16602H14.1667V10.8327H12.5Z" fill="#3E6AEC"/>
<path d="M5.83333 14.5827V12.916H7.5V14.5827H5.83333Z" fill="#3E6AEC"/>
<path d="M9.16667 12.916H10.8333V14.5827H9.16667V12.916Z" fill="#3E6AEC"/>
<path d="M14.1667 14.5827V12.916H12.5V14.5827H14.1667Z" fill="#3E6AEC"/>
<path fill-rule="evenodd" clip-rule="evenodd" d="M15 3.33268H15.8333C16.75 3.33268 17.5 4.08268 17.5 4.99935V16.666C17.5 17.5827 16.75 18.3327 15.8333 18.3327H4.16667C3.24167 18.3327 2.5 17.5827 2.5 16.666L2.50833 4.99935C2.50833 4.08268 3.24167 3.33268 4.16667 3.33268H5V1.66602H6.66667V3.33268H13.3333V1.66602H15V3.33268ZM4.16667 16.666H15.8333V7.49935H4.16667V16.666Z" fill="#3E6AEC"/>
</svg>