<svg width="20" height="20" viewBox="0 0 20 20" fill="none" xmlns="http://www.w3.org/2000/svg">
<path d="M10.7237 12.5587L8.60703 10.467L8.63203 10.442C10.082 8.82533 11.1154 6.96699 11.7237 5.00033H14.1654V3.33366H8.33203V1.66699H6.66536V3.33366H0.832031V4.99199H10.1404C9.58203 6.60033 8.6987 8.12533 7.4987 9.45866C6.7237 8.60033 6.08203 7.65866 5.5737 6.66699H3.90703C4.51536 8.02533 5.3487 9.30866 6.39036 10.467L2.1487 14.6503L3.33203 15.8337L7.4987 11.667L10.0904 14.2587L10.7237 12.5587ZM15.4154 8.33366H13.7487L9.9987 18.3337H11.6654L12.5987 15.8337H16.557L17.4987 18.3337H19.1654L15.4154 8.33366ZM13.232 14.167L14.582 10.5587L15.932 14.167H13.232Z" fill="black" fill-opacity="0.3"/>
</svg>