<svg width="24" height="25" viewBox="0 0 24 25" fill="none" xmlns="http://www.w3.org/2000/svg">
<path fill-rule="evenodd" clip-rule="evenodd" d="M6 2.00195C3.79086 2.00195 2 3.79281 2 6.00195V18.002C2 20.2111 3.79086 22.002 6 22.002H11.8808V15.1597H9.516V12.4932H11.8808V10.5269C11.8808 8.24465 13.3119 7.00195 15.403 7.00195C16.4047 7.00195 17.265 7.07484 17.516 7.10723V9.49251L16.066 9.49324C14.929 9.49324 14.709 10.0196 14.709 10.7912V12.494H17.4207L17.0677 15.1605H14.709V22.002H18C20.2091 22.002 22 20.2111 22 18.002V6.00195C22 3.79281 20.2091 2.00195 18 2.00195H6Z" fill="black" fill-opacity="0.3"/>
</svg>