<svg width="23" height="22" viewBox="0 0 23 22" fill="none" xmlns="http://www.w3.org/2000/svg">
<circle cx="11.5" cy="11" r="11" fill="#FF136D"/>
<path d="M15.5013 5V6.33333H14.168V5H8.83464V6.33333H7.5013V5H6.16797V17H7.5013V15.6667H8.83464V17H14.168V15.6667H15.5013V17H16.8346V5H15.5013ZM8.83464 14.3333H7.5013V13H8.83464V14.3333ZM8.83464 11.6667H7.5013V10.3333H8.83464V11.6667ZM8.83464 9H7.5013V7.66667H8.83464V9ZM15.5013 14.3333H14.168V13H15.5013V14.3333ZM15.5013 11.6667H14.168V10.3333H15.5013V11.6667ZM15.5013 9H14.168V7.66667H15.5013V9Z" fill="#F7F7F7"/>
</svg>