<svg width="20" height="20" viewBox="0 0 20 20" fill="none" xmlns="http://www.w3.org/2000/svg">
<path d="M10.7237 12.5577L8.60703 10.466L8.63203 10.441C10.082 8.82435 11.1154 6.96602 11.7237 4.99935H14.1654V3.33268H8.33203V1.66602H6.66536V3.33268H0.832031V4.99102H10.1404C9.58203 6.59935 8.6987 8.12435 7.4987 9.45768C6.7237 8.59935 6.08203 7.65768 5.5737 6.66602H3.90703C4.51536 8.02435 5.3487 9.30768 6.39036 10.466L2.1487 14.6493L3.33203 15.8327L7.4987 11.666L10.0904 14.2577L10.7237 12.5577ZM15.4154 8.33268H13.7487L9.9987 18.3327H11.6654L12.5987 15.8327H16.557L17.4987 18.3327H19.1654L15.4154 8.33268ZM13.232 14.166L14.582 10.5577L15.932 14.166H13.232Z" fill="#F50F78"/>
</svg>