<svg width="172" height="28" viewBox="0 0 172 28" fill="none" xmlns="http://www.w3.org/2000/svg">
<path d="M141.258 10.8359V17.9114L132.074 17.9057V10.8164L126.223 10.829V27.9938H132.074V21.121H141.258V27.9961H147.082V10.829L141.258 10.8359Z" fill="#F50F78"/>
<path d="M97.5741 27.9941H91.75V10.8178H97.5741V27.9941Z" fill="#F50F78"/>
<path d="M59.148 24.777H51.4966C49.214 24.7782 48.1857 24.037 48.1857 22.8423C48.1857 21.6476 49.214 20.9065 51.4966 20.9065H59.148V24.777ZM57.7049 10.816H44.5199V12.1562C44.5199 13.2834 45.5697 14.2524 46.424 14.2524H57.2631C58.1174 14.2524 59.192 14.7152 59.192 15.8424V17.6889H51.3124C45.7245 17.6889 43.7289 18.6247 43.582 22.0542V23.5582C43.8092 27.0049 45.8398 28.1195 51.465 27.99C57.6688 27.99 64.9415 27.9946 64.9415 27.9946V15.556C64.4918 11.7565 61.095 10.816 57.7049 10.816Z" fill="#F50F78"/>
<path d="M166.207 24.777H158.555C156.273 24.7782 155.244 24.037 155.244 22.8423C155.244 21.6476 156.273 20.9065 158.555 20.9065H166.207V24.777ZM164.764 10.816H151.579V12.1562C151.579 13.2834 152.628 14.2524 153.483 14.2524H164.322C165.176 14.2524 166.251 14.7152 166.251 15.8424V17.6889H158.371C152.783 17.6889 150.788 18.6247 150.641 22.0542V23.5582C150.868 27.0049 152.898 28.1195 158.524 27.99C164.727 27.99 172 27.9946 172 27.9946V15.556C171.55 11.7565 168.154 10.816 164.764 10.816Z" fill="#F50F78"/>
<path d="M77.5293 10.8178V10.819C71.2193 10.819 68.6836 11.8705 68.6836 15.8098V27.9941H74.5077V21.1271L83.2675 21.1202C85.6089 21.1855 86.5231 20.733 86.5367 19.2748V17.8842L74.5077 17.9049V15.8304C74.5077 14.394 75.3179 14.0297 77.5824 14.0297H84.8541C87.2011 14.0939 88.2385 13.4994 88.2532 12.0378V10.8247L77.5293 10.8178Z" fill="#F50F78"/>
<path d="M115.362 17.9106H108.733C107.679 17.9106 106.642 17.0102 106.642 15.9908C106.642 14.9713 107.534 14.0687 108.733 14.0687H120.35C121.549 14.0687 122.476 13.701 122.476 12.2199L122.474 10.819H108.733C104.526 10.819 101.23 12.4169 101.23 15.9736C101.23 19.5245 104.479 21.1282 108.733 21.1282H115.362C116.43 21.1282 117.393 21.6322 117.393 22.9403C117.393 24.2439 116.561 24.7502 115.362 24.7502H103.727C102.531 24.7502 101.601 25.2599 101.601 26.7387L101.603 27.9941H115.362C119.567 27.9941 122.811 26.7227 122.811 22.9506C122.811 19.1786 119.468 17.9106 115.362 17.9106Z" fill="#F50F78"/>
<path d="M35.6677 27.9941L36.1073 13.2726C36.1073 5.95416 30.2335 7.62939e-06 23.0127 7.62939e-06H13.0935C5.87268 7.62939e-06 0 5.95416 0 13.2726V14.7204C0 22.0388 5.87268 27.9941 13.0935 27.9941L22.9924 27.5222V26.0102L13.0935 25.5864C7.18123 25.5864 2.3719 20.7124 2.3719 14.7204V13.2726C2.3719 7.28176 7.18123 2.40664 13.0935 2.40664H23.0127C28.9227 2.40664 33.7343 7.28176 33.7343 13.2726L34.1739 27.9941H35.6677Z" fill="#F50F78"/>
<path d="M31.5254 27.9941L31.9672 13.2726C31.9672 8.26804 27.95 4.19934 23.013 4.19934H13.0937C8.15669 4.19934 4.14062 8.26804 4.14062 13.2726V14.7205C4.14062 19.7227 8.15669 23.7949 13.0937 23.7949L22.9926 23.3138V21.7995L13.0937 21.3871C9.46638 21.3871 6.51478 18.3963 6.51478 14.7205V13.2726C6.51478 9.59449 9.46638 6.60368 13.0937 6.60368H23.013C26.6415 6.60368 29.5919 9.59449 29.5919 13.2726L30.0315 27.9941H31.5254Z" fill="#F50F78"/>
<path d="M13.0928 17.1901C11.7493 17.1901 10.6565 16.0813 10.6565 14.7204V13.2726C10.6565 11.9106 11.7493 10.8029 13.0928 10.8029H23.011C24.3557 10.8029 25.4484 11.9106 25.4484 13.2703V13.2726L25.8891 27.9941H27.383L27.8226 13.2726C27.8226 10.583 25.6643 8.39515 23.011 8.39515H13.0928C10.4373 8.39515 8.28125 10.583 8.28125 13.2726V14.7204C8.28125 17.4066 10.4373 19.5956 13.0928 19.5956L22.9918 19.0755V17.5612L13.0928 17.1901Z" fill="#F50F78"/>
</svg>