<svg width="22" height="22" viewBox="0 0 22 22" fill="none" xmlns="http://www.w3.org/2000/svg">
<circle cx="11" cy="11" r="11" fill="#7E25FB"/>
<path d="M4.33203 17.6654L13.6654 14.332L7.66537 8.33203L4.33203 17.6654Z" fill="#F7F7F7"/>
<path d="M12.6871 11.3531L16.4138 7.62643C16.7405 7.29977 17.2671 7.29977 17.5938 7.62643L17.9871 8.01977L18.6938 7.3131L18.3005 6.91977C17.5871 6.20643 16.4205 6.20643 15.7071 6.91977L11.9805 10.6464L12.6871 11.3531Z" fill="#F7F7F7"/>
<path d="M9.70583 7.58664L9.3125 7.97997L10.0192 8.68664L10.4125 8.29331C11.1258 7.57997 11.1258 6.41331 10.4125 5.69997L10.0192 5.30664L9.3125 6.01997L9.70583 6.41331C10.0258 6.73331 10.0258 7.26664 9.70583 7.58664Z" fill="#F7F7F7"/>
<path d="M14.3725 10.9198L13.3125 11.9798L14.0192 12.6864L15.0792 11.6264C15.4058 11.2998 15.9325 11.2998 16.2592 11.6264L17.3325 12.6998L18.0392 11.9931L16.9658 10.9198C16.2458 10.2064 15.0858 10.2064 14.3725 10.9198Z" fill="#F7F7F7"/>
<path d="M13.0379 6.91932L10.6445 9.31266L11.3512 10.0193L13.7445 7.62599C14.4579 6.91266 14.4579 5.74599 13.7445 5.03266L12.6845 3.97266L11.9779 4.67932L13.0379 5.73932C13.3579 6.06599 13.3579 6.59932 13.0379 6.91932Z" fill="#F7F7F7"/>
</svg>