<svg width="40" height="40" viewBox="0 0 40 40" fill="none" xmlns="http://www.w3.org/2000/svg">
<g clip-path="url(#clip0)">
<g filter="url(#filter0_d)">
<path d="M9.44 21.6C7.25333 21.6 5.46667 20.9067 4.08 19.52C2.69333 18.1333 2 16.2267 2 13.8C2 12.1733 2.32 10.7733 2.96 9.6C3.6 8.42667 4.48 7.53333 5.6 6.92C6.74667 6.30667 8.02667 6 9.44 6C10.8533 6 12.12 6.30667 13.24 6.92C14.3867 7.53333 15.28 8.42667 15.92 9.6C16.56 10.7733 16.88 12.1733 16.88 13.8C16.88 16.2267 16.1867 18.1333 14.8 19.52C13.4133 20.9067 11.6267 21.6 9.44 21.6ZM25.88 6.4H32.64L13.52 34.4H6.76L25.88 6.4ZM9.44 17.28C9.94667 17.28 10.36 17.0133 10.68 16.48C11.0267 15.92 11.2 15.0267 11.2 13.8C11.2 12.5733 11.0267 11.6933 10.68 11.16C10.36 10.6 9.94667 10.32 9.44 10.32C8.93333 10.32 8.50667 10.6 8.16 11.16C7.84 11.6933 7.68 12.5733 7.68 13.8C7.68 15.0267 7.84 15.92 8.16 16.48C8.50667 17.0133 8.93333 17.28 9.44 17.28ZM29.96 34.8C27.7733 34.8 25.9867 34.1067 24.6 32.72C23.2133 31.3333 22.52 29.4267 22.52 27C22.52 25.3733 22.84 23.9733 23.48 22.8C24.12 21.6267 25 20.7333 26.12 20.12C27.2667 19.5067 28.5467 19.2 29.96 19.2C31.3733 19.2 32.64 19.5067 33.76 20.12C34.9067 20.7333 35.8 21.6267 36.44 22.8C37.08 23.9733 37.4 25.3733 37.4 27C37.4 29.4267 36.7067 31.3333 35.32 32.72C33.9333 34.1067 32.1467 34.8 29.96 34.8ZM29.96 30.48C30.4667 30.48 30.88 30.2133 31.2 29.68C31.5467 29.12 31.72 28.2267 31.72 27C31.72 25.7733 31.5467 24.8933 31.2 24.36C30.88 23.8 30.4667 23.52 29.96 23.52C29.4533 23.52 29.0267 23.8 28.68 24.36C28.36 24.8933 28.2 25.7733 28.2 27C28.2 28.2267 28.36 29.12 28.68 29.68C29.0267 30.2133 29.4533 30.48 29.96 30.48Z" fill="white"/>
</g>
</g>
<defs>
<filter id="filter0_d" x="-1" y="5" width="41.4" height="34.8" filterUnits="userSpaceOnUse" color-interpolation-filters="sRGB">
<feFlood flood-opacity="0" result="BackgroundImageFix"/>
<feColorMatrix in="SourceAlpha" type="matrix" values="0 0 0 0 0 0 0 0 0 0 0 0 0 0 0 0 0 0 127 0"/>
<feOffset dy="2"/>
<feGaussianBlur stdDeviation="1.5"/>
<feColorMatrix type="matrix" values="0 0 0 0 0 0 0 0 0 0 0 0 0 0 0 0 0 0 0.1 0"/>
<feBlend mode="normal" in2="BackgroundImageFix" result="effect1_dropShadow"/>
<feBlend mode="normal" in="SourceGraphic" in2="effect1_dropShadow" result="shape"/>
</filter>
<clipPath id="clip0">
<rect width="40" height="40" fill="white"/>
</clipPath>
</defs>
</svg>