<svg width="20" height="20" viewBox="0 0 20 20" fill="none" xmlns="http://www.w3.org/2000/svg">
<path d="M5.63203 4.03398L4.13203 2.54232L2.95703 3.71732L4.4487 5.20898L5.63203 4.03398ZM3.33203 8.75065H0.832031V10.4173H3.33203V8.75065ZM10.832 0.458984H9.16536V2.91732H10.832V0.458984ZM17.0404 3.71732L15.8654 2.54232L14.3737 4.03398L15.5487 5.20898L17.0404 3.71732ZM14.3654 15.134L15.857 16.634L17.032 15.459L15.532 13.9673L14.3654 15.134ZM16.6654 8.75065V10.4173H19.1654V8.75065H16.6654ZM9.9987 4.58398C7.24036 4.58398 4.9987 6.82565 4.9987 9.58398C4.9987 12.3423 7.24036 14.584 9.9987 14.584C12.757 14.584 14.9987 12.3423 14.9987 9.58398C14.9987 6.82565 12.757 4.58398 9.9987 4.58398ZM9.16536 18.709H10.832V16.2507H9.16536V18.709ZM2.95703 15.4507L4.13203 16.6257L5.6237 15.1257L4.4487 13.9507L2.95703 15.4507Z" fill="#F3BA08"/>
</svg>