<svg width="44" height="44" viewBox="0 0 44 44" fill="none" xmlns="http://www.w3.org/2000/svg">
<path d="M5.84293 20.1087C5.84293 20.1087 21.533 13.6695 26.9746 11.4021C29.0606 10.4952 36.1347 7.59292 36.1347 7.59292C36.1347 7.59292 39.3998 6.32328 39.1276 9.40682C39.0369 10.6766 38.3114 15.1205 37.5859 19.9273C36.4975 26.7294 35.3185 34.1663 35.3185 34.1663C35.3185 34.1663 35.1371 36.2523 33.5953 36.6151C32.0535 36.9778 29.514 35.3454 29.0606 34.9825C28.6978 34.7105 22.2585 30.6292 19.9005 28.634C19.2656 28.0898 18.5401 27.0016 19.9911 25.7318C23.2562 22.7389 27.156 19.0205 29.514 16.6624C30.6024 15.574 31.6907 13.0346 27.156 16.1182C20.7168 20.5622 14.3682 24.7342 14.3682 24.7342C14.3682 24.7342 12.917 25.641 10.1962 24.8248C7.47533 24.0086 4.30103 22.9203 4.30103 22.9203C4.30103 22.9203 2.1245 21.5599 5.84293 20.1087Z" fill="white"/>
</svg>