<svg width="24" height="25" viewBox="0 0 24 25" fill="none" xmlns="http://www.w3.org/2000/svg">
<path fill-rule="evenodd" clip-rule="evenodd" d="M22 5.92612C21.2642 6.25279 20.4733 6.47279 19.6433 6.57195C20.4908 6.06445 21.1417 5.26029 21.4475 4.30195C20.655 4.77195 19.7767 5.11362 18.8417 5.29779C18.0942 4.50029 17.0267 4.00195 15.8467 4.00195C13.1975 4.00195 11.2508 6.47362 11.8492 9.03945C8.44 8.86862 5.41667 7.23529 3.3925 4.75279C2.3175 6.59695 2.835 9.00945 4.66167 10.2311C3.99 10.2095 3.35667 10.0253 2.80417 9.71779C2.75917 11.6186 4.12167 13.397 6.095 13.7928C5.5175 13.9495 4.885 13.9861 4.24167 13.8628C4.76333 15.4928 6.27833 16.6786 8.075 16.712C6.35 18.0645 4.17667 18.6686 2 18.412C3.81583 19.5761 5.97333 20.2553 8.29 20.2553C15.9083 20.2553 20.2125 13.8211 19.9525 8.05029C20.7542 7.47112 21.45 6.74862 22 5.92612Z" fill="black" fill-opacity="0.3"/>
</svg>