<svg xmlns="http://www.w3.org/2000/svg" width="160" height="83.932" viewBox="0 0 160 83.932">
  <g id="_04" data-name="04" transform="translate(-156.001 -245.56)">
    <path id="Path_1" data-name="Path 1" d="M188.231,245.56a32.23,32.23,0,0,0,0,64.461h9.709V292.815h-9.709a15.043,15.043,0,0,1-15.025-15.025h0a15.024,15.024,0,1,1,30.048,0v32.231H220.46V277.79A32.266,32.266,0,0,0,188.231,245.56Z" transform="translate(0 0)" fill="#203c90"/>
    <g id="Group_6" data-name="Group 6" transform="translate(229.331 268.423)">
      <g id="Group_5" data-name="Group 5" transform="translate(0 0)">
        <path id="Path_2" data-name="Path 2" d="M230.97,265.965h3.25a3.6,3.6,0,0,1-1.088,2.867,5.649,5.649,0,0,1-3.7.947h-.819a4.487,4.487,0,0,0-2.867.832,2.84,2.84,0,0,0-1.05,2.366v.563a3.926,3.926,0,0,1,1.6-1.483,4.883,4.883,0,0,1,2.317-.562,5.752,5.752,0,0,1,4.325,1.689,5.923,5.923,0,0,1,1.638,4.3,6.54,6.54,0,0,1-1.817,4.71,6.833,6.833,0,0,1-9.445,0,6.8,6.8,0,0,1-1.868-4.992V274.13a6.917,6.917,0,0,1,1.932-5.234,7.613,7.613,0,0,1,5.49-1.857,4.048,4.048,0,0,0,1.665-.23A.871.871,0,0,0,230.97,265.965ZM228,274.488a3.281,3.281,0,0,0-2.316.922,3.214,3.214,0,0,0-.013,4.62,3.436,3.436,0,0,0,4.658,0,3.2,3.2,0,0,0-.025-4.62A3.3,3.3,0,0,0,228,274.488Z" transform="translate(-221.448 -265.965)" fill="#203c90"/>
        <path id="Path_3" data-name="Path 3" d="M247.7,283.332h-3.252v-7.551l-6.553,7.551h-2.1v-12.8h3.249v7.551l6.553-7.551h2.1Z" transform="translate(-219.72 -265.415)" fill="#203c90"/>
        <path id="Path_4" data-name="Path 4" d="M257.786,276.671a3.02,3.02,0,0,1,1.779,1,2.872,2.872,0,0,1,.6,1.868,3.4,3.4,0,0,1-1.421,2.943,6.509,6.509,0,0,1-3.8,1.051h-.232a8.171,8.171,0,0,1-3.492-.755,5.754,5.754,0,0,1-2.291-1.677l1.766-1.919a6.023,6.023,0,0,0,3.943,1.407h.23a2.715,2.715,0,0,0,1.484-.41,1.25,1.25,0,0,0,.565-1.1q0-1.282-1.614-1.306h-2.048v-2H255q1.306,0,1.305-1.126,0-1.282-1.715-1.331h-.152a5.509,5.509,0,0,0-3.379,1.278l-1.715-1.868a8.385,8.385,0,0,1,2.369-1.677,6.738,6.738,0,0,1,2.982-.678h.179a5.8,5.8,0,0,1,3.327.973,2.965,2.965,0,0,1,1.358,2.559A2.661,2.661,0,0,1,257.786,276.671Z" transform="translate(-218.138 -265.434)" fill="#203c90"/>
        <path id="Path_5" data-name="Path 5" d="M273.737,283.332h-3.251v-4.913h-5.58v4.913h-3.25v-12.8h3.25v4.735h5.58v-4.735h3.251Z" transform="translate(-216.605 -265.415)" fill="#203c90"/>
        <path id="Path_6" data-name="Path 6" d="M281.538,270.374a5.658,5.658,0,0,1,5.631,3.454,5.486,5.486,0,0,1,.435,2.036,5.354,5.354,0,0,1-.23,1.984h-8.933a2.375,2.375,0,0,0,.908,1.971,3.543,3.543,0,0,0,2.267.716,8.321,8.321,0,0,0,3.864-.9l1.714,1.868a9.236,9.236,0,0,1-5.579,2,6.3,6.3,0,0,1-4.71-1.855,6.435,6.435,0,0,1-1.817-4.7,6.6,6.6,0,0,1,1.766-4.7A6.121,6.121,0,0,1,281.538,270.374Zm0,2.969a3.02,3.02,0,0,0-2.086.742,2.418,2.418,0,0,0-.883,1.715h5.861a1.807,1.807,0,0,0-.307-1.024A2.7,2.7,0,0,0,281.538,273.343Z" transform="translate(-214.987 -265.434)" fill="#203c90"/>
        <path id="Path_7" data-name="Path 7" d="M295,270.4a6.288,6.288,0,0,1,5.043,2.354l-1.946,2.1a4.464,4.464,0,0,0-3.1-1.3,3.223,3.223,0,0,0-2.329.947,3.587,3.587,0,0,0,0,4.914,3.218,3.218,0,0,0,2.329.947,4.46,4.46,0,0,0,3.1-1.305l1.946,2.1A6.562,6.562,0,1,1,295,270.4Z" transform="translate(-213.377 -265.431)" fill="#203c90"/>
        <path id="Path_8" data-name="Path 8" d="M236.109,305.482h-3.252V303.1H222.133V290.3h3.25v9.65h5.4V290.3h3.252v9.65h2.073Z" transform="translate(-221.365 -263.033)" fill="#203c90"/>
        <path id="Path_9" data-name="Path 9" d="M242.5,290.142a5.657,5.657,0,0,1,5.631,3.457,5.457,5.457,0,0,1,.435,2.035,5.3,5.3,0,0,1-.23,1.983H239.4a2.382,2.382,0,0,0,.908,1.973,3.549,3.549,0,0,0,2.267.715,8.312,8.312,0,0,0,3.866-.9l1.713,1.868a9.23,9.23,0,0,1-5.579,2,6.3,6.3,0,0,1-4.71-1.858,6.434,6.434,0,0,1-1.817-4.7,6.593,6.593,0,0,1,1.767-4.7A6.121,6.121,0,0,1,242.5,290.142Zm0,2.97a3.022,3.022,0,0,0-2.086.743,2.42,2.42,0,0,0-.883,1.713h5.861a1.812,1.812,0,0,0-.307-1.024A2.7,2.7,0,0,0,242.5,293.112Z" transform="translate(-219.69 -263.053)" fill="#203c90"/>
        <path id="Path_10" data-name="Path 10" d="M262.177,303.1h-3.252v-4.914h-5.581V303.1H250.1V290.3h3.249v4.734h5.581V290.3h3.252Z" transform="translate(-217.998 -263.033)" fill="#203c90"/>
        <path id="Path_11" data-name="Path 11" d="M270.243,293.451v9.65h-3.225v-9.65h-3.993V290.3h11.211v3.148Z" transform="translate(-216.44 -263.033)" fill="#203c90"/>
        <path id="Path_12" data-name="Path 12" d="M281.877,290.166a5.832,5.832,0,0,1,4.454,1.894,7.04,7.04,0,0,1,0,9.329,5.806,5.806,0,0,1-4.454,1.908,4.361,4.361,0,0,1-3.379-1.432v5.964h-3.249V290.319h2.175l.178,1.816A5.21,5.21,0,0,1,281.877,290.166Zm-.333,3.147a3.305,3.305,0,0,0-3.3,3.4,3.3,3.3,0,0,0,.986,2.472,3.277,3.277,0,0,0,4.633,0,3.59,3.59,0,0,0,.012-4.927A3.217,3.217,0,0,0,281.544,293.313Z" transform="translate(-214.968 -263.05)" fill="#203c90"/>
      </g>
      <text id="Ташкент" transform="translate(0.768 58.07)" fill="#203c90" font-size="12" font-family="SegoeUI-Light, Segoe UI" font-weight="300"><tspan x="0" y="0">Ташкент</tspan></text>
    </g>
  </g>
</svg>
