<svg xmlns="http://www.w3.org/2000/svg" width="108.801" height="58.194" viewBox="0 0 108.801 58.194">
  <g id="Group_7" data-name="Group 7" transform="translate(-156.001 -245.56)">
    <path id="Path_1" data-name="Path 1" d="M177.917,245.56a21.917,21.917,0,0,0,0,43.833h6.6v-11.7h-6.6A10.229,10.229,0,0,1,167.7,267.476h0a10.216,10.216,0,1,1,20.433,0v21.917h11.7V267.476A21.941,21.941,0,0,0,177.917,245.56Z" transform="translate(0)" fill="#203c90"/>
    <g id="Group_6" data-name="Group 6" transform="translate(205.866 261.107)">
      <g id="Group_5" data-name="Group 5" transform="translate(0 0)">
        <path id="Path_2" data-name="Path 2" d="M227.923,265.965h2.21a2.448,2.448,0,0,1-.74,1.95,3.841,3.841,0,0,1-2.514.644h-.557a3.051,3.051,0,0,0-1.95.566,1.931,1.931,0,0,0-.714,1.609v.383a2.67,2.67,0,0,1,1.088-1.009,3.32,3.32,0,0,1,1.576-.382,3.911,3.911,0,0,1,2.941,1.148,4.027,4.027,0,0,1,1.114,2.924,4.447,4.447,0,0,1-1.236,3.2,4.646,4.646,0,0,1-6.423,0,4.624,4.624,0,0,1-1.27-3.394v-2.089a4.7,4.7,0,0,1,1.314-3.559,5.177,5.177,0,0,1,3.733-1.262,2.753,2.753,0,0,0,1.132-.156A.592.592,0,0,0,227.923,265.965Zm-2.019,5.8a2.231,2.231,0,0,0-1.575.627,2.185,2.185,0,0,0-.009,3.141,2.336,2.336,0,0,0,3.167,0,2.175,2.175,0,0,0-.017-3.141A2.243,2.243,0,0,0,225.9,271.761Z" transform="translate(-221.448 -265.965)" fill="#203c90"/>
        <path id="Path_3" data-name="Path 3" d="M243.889,279.237h-2.211V274.1l-4.456,5.135h-1.426v-8.7H238v5.135l4.456-5.135h1.428Z" transform="translate(-224.864 -267.053)" fill="#203c90"/>
        <path id="Path_4" data-name="Path 4" d="M254.952,274.656a2.053,2.053,0,0,1,1.21.679,1.953,1.953,0,0,1,.409,1.27,2.314,2.314,0,0,1-.966,2,4.426,4.426,0,0,1-2.584.715h-.158a5.556,5.556,0,0,1-2.375-.514,3.913,3.913,0,0,1-1.558-1.141l1.2-1.305a4.1,4.1,0,0,0,2.681.957h.156a1.846,1.846,0,0,0,1.009-.279.85.85,0,0,0,.384-.747q0-.872-1.1-.888h-1.393v-1.357h1.184q.888,0,.888-.766,0-.872-1.166-.905h-.1a3.746,3.746,0,0,0-2.3.869l-1.167-1.27a5.7,5.7,0,0,1,1.611-1.141,4.582,4.582,0,0,1,2.027-.461h.122a3.945,3.945,0,0,1,2.262.661,2.016,2.016,0,0,1,.923,1.74A1.809,1.809,0,0,1,254.952,274.656Z" transform="translate(-227.991 -267.015)" fill="#203c90"/>
        <path id="Path_5" data-name="Path 5" d="M269.871,279.237H267.66V275.9h-3.794v3.341h-2.21v-8.7h2.21v3.22h3.794v-3.22h2.211Z" transform="translate(-231.021 -267.053)" fill="#203c90"/>
        <path id="Path_6" data-name="Path 6" d="M279.474,270.374a3.847,3.847,0,0,1,3.829,2.349,3.73,3.73,0,0,1,.3,1.384,3.64,3.64,0,0,1-.156,1.349h-6.075a1.615,1.615,0,0,0,.617,1.34,2.409,2.409,0,0,0,1.541.487,5.658,5.658,0,0,0,2.628-.609l1.166,1.27a6.281,6.281,0,0,1-3.794,1.358,4.284,4.284,0,0,1-3.2-1.262,4.376,4.376,0,0,1-1.236-3.194,4.485,4.485,0,0,1,1.2-3.194A4.163,4.163,0,0,1,279.474,270.374Zm0,2.019a2.053,2.053,0,0,0-1.419.5,1.644,1.644,0,0,0-.6,1.167h3.986a1.229,1.229,0,0,0-.209-.7A1.833,1.833,0,0,0,279.474,272.393Z" transform="translate(-234.219 -267.015)" fill="#203c90"/>
        <path id="Path_7" data-name="Path 7" d="M292.908,270.4a4.276,4.276,0,0,1,3.429,1.6l-1.323,1.427a3.035,3.035,0,0,0-2.106-.887,2.191,2.191,0,0,0-1.584.644,2.439,2.439,0,0,0,0,3.342,2.188,2.188,0,0,0,1.584.644,3.033,3.033,0,0,0,2.106-.888l1.323,1.428a4.462,4.462,0,1,1-3.429-7.311Z" transform="translate(-237.401 -267.02)" fill="#203c90"/>
        <path id="Path_8" data-name="Path 8" d="M231.637,300.625h-2.211v-1.618h-7.293v-8.7h2.21v6.562h3.673V290.3h2.211v6.562h1.41Z" transform="translate(-221.611 -271.76)" fill="#203c90"/>
        <path id="Path_9" data-name="Path 9" d="M240.431,290.142a3.847,3.847,0,0,1,3.829,2.35,3.711,3.711,0,0,1,.3,1.384,3.6,3.6,0,0,1-.156,1.349h-6.075a1.62,1.62,0,0,0,.617,1.342,2.414,2.414,0,0,0,1.541.486,5.652,5.652,0,0,0,2.629-.609l1.165,1.27a6.276,6.276,0,0,1-3.794,1.359,4.283,4.283,0,0,1-3.2-1.263,4.375,4.375,0,0,1-1.236-3.195,4.483,4.483,0,0,1,1.2-3.194A4.162,4.162,0,0,1,240.431,290.142Zm0,2.02a2.055,2.055,0,0,0-1.419.505,1.646,1.646,0,0,0-.6,1.165H242.4a1.232,1.232,0,0,0-.209-.7A1.835,1.835,0,0,0,240.431,292.162Z" transform="translate(-224.923 -271.721)" fill="#203c90"/>
        <path id="Path_10" data-name="Path 10" d="M258.311,299.006H256.1v-3.342h-3.8v3.342h-2.21v-8.7h2.21v3.219h3.8V290.3h2.211Z" transform="translate(-228.269 -271.76)" fill="#203c90"/>
        <path id="Path_11" data-name="Path 11" d="M267.933,292.444v6.562H265.74v-6.562h-2.715V290.3h7.624v2.141Z" transform="translate(-231.347 -271.76)" fill="#203c90"/>
        <path id="Path_12" data-name="Path 12" d="M279.755,290.166a3.966,3.966,0,0,1,3.029,1.288,4.787,4.787,0,0,1,0,6.344,3.948,3.948,0,0,1-3.029,1.3,2.965,2.965,0,0,1-2.3-.974v4.056h-2.21V290.27h1.479l.121,1.235A3.543,3.543,0,0,1,279.755,290.166Zm-.226,2.14a2.248,2.248,0,0,0-2.245,2.315,2.244,2.244,0,0,0,.67,1.681,2.229,2.229,0,0,0,3.15,0,2.441,2.441,0,0,0,.008-3.35A2.188,2.188,0,0,0,279.529,292.306Z" transform="translate(-234.257 -271.727)" fill="#203c90"/>
      </g>
      <text id="Ташкент" transform="translate(0.522 40.647)" fill="#203c90" font-size="9" font-family="SegoeUI-Light, Segoe UI" font-weight="300"><tspan x="0" y="0">Ташкент</tspan></text>
    </g>
  </g>
</svg>
