<svg xmlns="http://www.w3.org/2000/svg" xmlns:xlink="http://www.w3.org/1999/xlink" width="21.45" height="21.45" viewBox="0 0 21.45 21.45">
  <defs>
    <clipPath id="clip-path">
      <rect id="Rectangle_30" data-name="Rectangle 30" width="21.45" height="21.45" fill="#203c90"/>
    </clipPath>
  </defs>
  <g id="Mask_Group_5" data-name="Mask Group 5" transform="translate(0)" clip-path="url(#clip-path)">
    <g id="instagram" transform="translate(2.761 2.761)">
      <g id="Group_32" data-name="Group 32">
        <g id="Group_31" data-name="Group 31">
          <path id="Path_40" data-name="Path 40" d="M10.951,0H4.978A4.978,4.978,0,0,0,0,4.978v5.973a4.978,4.978,0,0,0,4.978,4.978h5.973a4.978,4.978,0,0,0,4.978-4.978V4.978A4.978,4.978,0,0,0,10.951,0Zm3.484,10.951a3.488,3.488,0,0,1-3.484,3.484H4.978a3.488,3.488,0,0,1-3.484-3.484V4.978A3.488,3.488,0,0,1,4.978,1.493h5.973a3.488,3.488,0,0,1,3.484,3.484Z" fill="#203c90"/>
        </g>
      </g>
      <g id="Group_34" data-name="Group 34" transform="translate(3.982 3.982)">
        <g id="Group_33" data-name="Group 33">
          <path id="Path_41" data-name="Path 41" d="M9.482,5.5a3.982,3.982,0,1,0,3.982,3.982A3.982,3.982,0,0,0,9.482,5.5Zm0,6.471a2.489,2.489,0,1,1,2.489-2.489A2.492,2.492,0,0,1,9.482,11.971Z" transform="translate(-5.5 -5.5)" fill="#203c90"/>
        </g>
      </g>
      <g id="Group_36" data-name="Group 36" transform="translate(11.715 3.153)">
        <g id="Group_35" data-name="Group 35">
          <circle id="Ellipse_1" data-name="Ellipse 1" cx="0.531" cy="0.531" r="0.531" fill="#203c90"/>
        </g>
      </g>
    </g>
  </g>
</svg>
