<svg xmlns="http://www.w3.org/2000/svg" width="50" height="39" viewBox="0 0 50 39" fill="none">
<path fill-rule="evenodd" clip-rule="evenodd" d="M4.85036 18.908C6.16555 16.9294 8.80865 13.3292 12.3919 10.2475C15.997 7.14701 20.3058 4.78146 25 4.78146C29.6942 4.78146 34.0031 7.14701 37.608 10.2475C41.1913 13.3292 43.8345 16.9294 45.1497 18.908C45.2415 19.0462 45.2415 19.2055 45.1497 19.3437C43.8345 21.3223 41.1913 24.9225 37.608 28.0041C34.0031 31.1047 29.6942 33.4702 25 33.4702C20.3058 33.4702 15.997 31.1047 12.3919 28.0041C8.80865 24.9225 6.16555 21.3223 4.85036 19.3437C4.75849 19.2055 4.75849 19.0462 4.85036 18.908ZM25 0C18.6841 0 13.2987 3.16109 9.27411 6.62236C5.22759 10.1025 2.30539 14.0992 0.868341 16.2611C-0.289449 18.0029 -0.289445 20.2488 0.868341 21.9906C2.30539 24.1525 5.22759 28.1491 9.27411 31.6294C13.2987 35.0905 18.6841 38.2517 25 38.2517C31.3159 38.2517 36.7012 35.0905 40.7259 31.6294C44.7723 28.1491 47.6947 24.1525 49.1317 21.9906C50.2894 20.2488 50.2894 18.0029 49.1317 16.2611C47.6947 14.0992 44.7723 10.1025 40.7259 6.62236C36.7012 3.16109 31.3159 0 25 0ZM25 25.5011C28.5209 25.5011 31.3752 22.6468 31.3752 19.1259C31.3752 15.6049 28.5209 12.7506 25 12.7506C21.479 12.7506 18.6247 15.6049 18.6247 19.1259C18.6247 22.6468 21.479 25.5011 25 25.5011Z" fill="#0075FF"/>
</svg>