<svg xmlns="http://www.w3.org/2000/svg" width="22" height="22" viewBox="0 0 22 22" fill="none">
<path d="M11 0.272217C4.9225 0.272217 0 5.19747 0 11.2722C0 16.1333 3.1515 20.2555 7.52125 21.7085C8.07125 21.812 8.27292 21.472 8.27292 21.1796C8.27292 20.9183 8.26375 20.2262 8.25917 19.3095C5.19933 19.9732 4.554 17.8337 4.554 17.8337C4.0535 16.5641 3.33025 16.225 3.33025 16.225C2.33383 15.543 3.40725 15.5567 3.40725 15.5567C4.51183 15.6337 5.09208 16.6897 5.09208 16.6897C6.07292 18.3718 7.667 17.886 8.29583 17.6045C8.39483 16.8932 8.67808 16.4083 8.9925 16.1333C6.54958 15.8583 3.982 14.9123 3.982 10.6975C3.982 9.49663 4.40825 8.5158 5.11408 7.7458C4.99033 7.46805 4.61908 6.34972 5.21033 4.83447C5.21033 4.83447 6.13158 4.5393 8.23533 5.96197C9.11533 5.71722 10.0503 5.59622 10.9853 5.59072C11.9203 5.59622 12.8553 5.71722 13.7353 5.96197C15.8253 4.5393 16.7466 4.83447 16.7466 4.83447C17.3378 6.34972 16.9666 7.46805 16.8566 7.7458C17.5578 8.5158 17.9841 9.49663 17.9841 10.6975C17.9841 14.9233 15.4128 15.8537 12.9653 16.1241C13.3503 16.4541 13.7078 17.1288 13.7078 18.1591C13.7078 19.6313 13.6941 20.8138 13.6941 21.1713C13.6941 21.4601 13.8866 21.8038 14.4503 21.6938C18.8512 20.251 22 16.126 22 11.2722C22 5.19747 17.0748 0.272217 11 0.272217Z" fill="#262626"/>
</svg>