<svg width="279" height="336" viewBox="0 0 279 336" fill="none" xmlns="http://www.w3.org/2000/svg">
<path opacity="0.64" d="M139.5 335.832C216.544 335.832 279 323.266 279 307.766C279 292.265 216.544 279.7 139.5 279.7C62.4563 279.7 0 292.265 0 307.766C0 323.266 62.4563 335.832 139.5 335.832Z" fill="#68CCE9"/>
<path d="M72.6278 303.256C74.5859 296.907 80.5789 293.525 90.31 290.677C96.481 288.897 104.313 288.066 116.596 285.574C122.589 284.387 126.802 282.014 126.802 282.014V288.838C126.802 288.838 86.1565 296.848 79.8075 307.351C76.722 312.513 77.6714 325.152 92.2088 326.457C87.7586 327.11 80.4602 325.982 76.544 322.007C71.6784 317.082 70.373 310.495 72.6278 303.256Z" fill="#282323" stroke="black" stroke-width="4" stroke-miterlimit="10" stroke-linecap="round" stroke-linejoin="round"/>
<path d="M126.802 288.838C126.802 288.838 102.474 293.347 89.4793 298.925C78.0867 303.85 78.4427 308.953 78.146 314.174C77.968 317.2 80.1041 324.677 88.7673 325.982C99.0918 327.525 111.256 325.864 126.802 315.954C126.802 291.686 126.802 288.838 126.802 288.838Z" fill="#442C2A"/>
<path opacity="0.37" d="M78.146 314.174C78.3834 309.961 78.2054 305.808 84.139 301.773C83.9017 303.256 83.8423 304.68 83.783 306.164C83.605 309.19 90.9034 305.274 99.5665 306.52C108.586 307.885 113.926 318.209 126.802 311.267C126.802 312.75 126.802 314.293 126.802 315.895C111.256 325.804 99.0918 327.406 88.7673 325.923C80.1041 324.677 77.968 317.141 78.146 314.174Z" fill="#442C2A"/>
<path d="M126.802 288.838C126.802 288.838 102.474 293.347 89.4793 298.925C78.0867 303.85 78.4427 308.953 78.146 314.174C77.968 317.2 80.1041 324.677 88.7673 325.982C99.0918 327.525 111.256 325.864 126.802 315.954C126.802 291.686 126.802 288.838 126.802 288.838Z" stroke="black" stroke-width="4" stroke-miterlimit="10" stroke-linecap="round" stroke-linejoin="round"/>
<path d="M104.254 302.782C102.296 303.85 102.771 314.234 107.518 315.658" stroke="black" stroke-width="4" stroke-miterlimit="10" stroke-linecap="round" stroke-linejoin="round"/>
<path d="M111.671 302.01C109.654 304.858 111.078 311.563 114.697 313.225" stroke="black" stroke-width="4" stroke-miterlimit="10" stroke-linecap="round" stroke-linejoin="round"/>
<path d="M118.495 299.637C116.477 302.485 117.902 309.19 121.521 310.851" stroke="black" stroke-width="4" stroke-miterlimit="10" stroke-linecap="round" stroke-linejoin="round"/>
<path d="M188.512 268.901C175.695 277.801 157.479 282.904 138.432 282.904C119.444 282.904 101.169 277.801 88.3521 268.901C82.4778 264.806 72.6279 256.262 72.6279 244.869C72.6279 233.477 82.4778 224.932 88.3521 220.838C101.169 211.938 119.385 206.835 138.432 206.835C157.42 206.835 175.695 211.938 188.512 220.838C194.386 224.932 204.236 233.477 204.236 244.869C204.236 256.262 194.386 264.806 188.512 268.901Z" fill="#151E28"/>
<path d="M247.196 254.363C246.958 255.55 246.721 256.677 246.365 257.864C237.109 291.626 192.488 317.26 138.788 317.26C84.9698 317.26 40.2302 291.508 31.1517 257.627C30.9143 256.677 30.677 255.728 30.499 254.779C30.2616 252.998 30.321 251.218 30.677 249.438C32.8724 239.47 44.9771 233.714 57.7344 236.562C66.1008 238.402 72.6279 243.564 75.5353 249.676C75.832 250.981 76.3067 252.286 76.8408 253.532C79.9263 260.653 86.0972 265.993 90.2508 268.96C102.652 277.86 120.394 282.963 138.788 282.963C157.242 282.963 174.924 277.86 187.325 268.96C191.538 265.934 197.768 260.534 200.795 253.414C201.269 252.286 201.685 251.04 201.981 249.854C204.829 243.683 211.416 238.52 219.842 236.622C232.599 233.773 244.704 239.588 246.899 249.498C247.314 251.04 247.374 252.702 247.196 254.363Z" fill="#2A3749"/>
<path opacity="0.67" d="M246.899 249.379C246.84 249.082 246.78 248.845 246.662 248.548C246.484 249.498 246.246 250.506 245.95 251.456C236.812 285.218 192.132 310.851 138.491 310.851C84.6732 310.851 39.9335 285.099 30.855 251.218C30.7363 250.862 30.677 250.506 30.5583 250.091C30.321 251.634 30.2616 253.176 30.499 254.66C30.677 255.609 30.9144 256.559 31.1517 257.508C40.2302 291.389 84.9699 317.141 138.788 317.141C192.488 317.141 237.109 291.508 246.365 257.745C246.662 256.618 246.958 255.431 247.196 254.244C247.374 252.702 247.314 251.04 246.899 249.379Z" fill="#151E28"/>
<path d="M247.196 254.363C246.958 255.55 246.721 256.677 246.365 257.864C237.109 291.626 192.488 317.26 138.788 317.26C84.9698 317.26 40.2302 291.508 31.1517 257.627C30.9143 256.677 30.677 255.728 30.499 254.779C30.2616 252.998 30.321 251.218 30.677 249.438C32.8724 239.47 44.9771 233.714 57.7344 236.562C66.1009 238.402 72.6279 243.564 75.5353 249.676C75.832 250.981 76.3067 252.286 76.8408 253.532C79.9263 260.653 86.0972 265.993 90.2508 268.96C102.652 277.86 120.394 282.963 138.788 282.963C157.242 282.963 174.924 277.86 187.325 268.96C191.538 265.934 197.768 260.534 200.795 253.414C201.269 252.286 201.685 251.04 201.981 249.854C204.829 243.683 211.416 238.52 219.842 236.622C232.599 233.773 244.704 239.588 246.899 249.498C247.314 251.04 247.374 252.702 247.196 254.363Z" stroke="black" stroke-width="4" stroke-miterlimit="10" stroke-linecap="round" stroke-linejoin="round"/>
<path d="M139.5 264.806C169.026 264.806 192.962 256.677 192.962 246.649C192.962 236.622 169.026 228.492 139.5 228.492C109.974 228.492 86.0378 236.622 86.0378 246.649C86.0378 256.677 109.974 264.806 139.5 264.806Z" fill="#9B2121"/>
<path d="M139.5 264.806C169.026 264.806 192.962 256.677 192.962 246.649C192.962 236.622 169.026 228.492 139.5 228.492C109.974 228.492 86.0378 236.622 86.0378 246.649C86.0378 256.677 109.974 264.806 139.5 264.806Z" stroke="black" stroke-width="4" stroke-miterlimit="10" stroke-linecap="round" stroke-linejoin="round"/>
<path d="M200.379 207.013H77.1968C67.7623 207.013 60.4639 198.765 61.6507 189.39L67.1096 145.777C68.6524 133.317 79.2143 124.001 91.7936 124.001H185.901C198.421 124.001 208.983 133.317 210.585 145.777L216.044 189.39C217.112 198.765 209.814 207.013 200.379 207.013Z" fill="#F1534D"/>
<path d="M200.379 207.013H77.1968C67.7623 207.013 60.4639 198.765 61.6507 189.39L67.1096 145.777C68.6524 133.317 79.2143 124.001 91.7936 124.001H185.901C198.421 124.001 208.983 133.317 210.585 145.777L216.044 189.39C217.112 198.765 209.814 207.013 200.379 207.013Z" stroke="black" stroke-width="4" stroke-miterlimit="10" stroke-linecap="round" stroke-linejoin="round"/>
<path d="M90.5473 160.849L89.3606 175.742" stroke="black" stroke-width="4" stroke-miterlimit="10" stroke-linecap="round" stroke-linejoin="round"/>
<path d="M187.918 160.849L189.105 175.742" stroke="black" stroke-width="4" stroke-miterlimit="10" stroke-linecap="round" stroke-linejoin="round"/>
<path d="M200.379 207.013H77.1967C67.7622 207.013 60.4638 198.765 61.6505 189.39L67.1095 145.777C68.6523 133.317 79.2141 124.001 91.7935 124.001H185.901C198.421 124.001 208.983 133.317 210.585 145.777L216.044 189.39C217.112 198.765 209.814 207.013 200.379 207.013Z" fill="#F1534D"/>
<g opacity="0.24">
<path opacity="0.24" d="M67.0502 150.406C68.593 137.945 79.1548 128.629 91.7342 128.629H185.842C198.362 128.629 208.924 137.945 210.526 150.406L215.925 193.662C216.103 192.297 216.163 190.873 215.985 189.39L210.526 145.777C208.983 133.317 198.421 124.001 185.842 124.001H91.7342C79.2142 124.001 68.6523 133.317 67.0502 145.777L61.5912 189.39C61.4132 190.814 61.4132 192.238 61.6506 193.662L67.0502 150.406Z" fill="#9B2121"/>
<path opacity="0.24" d="M97.1931 128.629C97.1931 128.629 104.491 129.935 105.085 133.969C105.56 137.233 105.5 139.369 106.746 140.675C107.992 141.98 110.9 144.65 116.774 144.65C113.511 141.387 113.451 129.935 112.561 129.935C111.73 129.935 109.594 124.238 109.594 124.238L106.746 122.933C106.806 122.933 96.303 124.238 97.1931 128.629Z" fill="#9B2121"/>
<path opacity="0.24" d="M175.161 128.629C175.161 128.629 167.863 129.935 167.269 133.969C166.795 137.233 166.854 139.369 165.608 140.675C164.362 141.921 161.455 144.65 155.58 144.65C158.844 141.387 158.903 129.935 159.793 129.935C160.624 129.935 162.76 124.238 162.76 124.238L165.608 122.933C165.549 122.933 176.051 124.238 175.161 128.629Z" fill="#9B2121"/>
</g>
<path d="M200.379 207.013H77.1967C67.7622 207.013 60.4638 198.765 61.6505 189.39L67.1095 145.777C68.6523 133.317 79.2141 124.001 91.7935 124.001H185.901C198.421 124.001 208.983 133.317 210.585 145.777L216.044 189.39C217.112 198.765 209.814 207.013 200.379 207.013Z" stroke="black" stroke-width="4" stroke-miterlimit="10" stroke-linecap="round" stroke-linejoin="round"/>
<path d="M90.5474 160.849L89.3607 175.742" stroke="black" stroke-width="4" stroke-miterlimit="10" stroke-linecap="round" stroke-linejoin="round"/>
<path d="M187.919 160.849L189.105 175.742" stroke="black" stroke-width="4" stroke-miterlimit="10" stroke-linecap="round" stroke-linejoin="round"/>
<path d="M122.945 99.1983L103.423 98.1896L94.2856 99.1983C94.2856 99.1983 88.174 103.767 88.174 105.013C88.174 106.259 88.7673 116.406 88.7673 116.406C88.7673 116.406 103.186 118.364 104.729 119.847C106.272 121.331 115.409 129.875 115.409 129.875L124.251 126.434L128.879 114.092L122.945 99.1983Z" fill="#9B2121"/>
<path d="M119.504 91.6626H96.9557C87.8773 91.6626 80.4602 99.0203 80.4602 108.158C80.4602 117.237 87.8179 124.654 96.9557 124.654H99.9226C104.729 124.654 108.586 128.511 108.586 133.317V134.207C108.586 139.962 113.273 144.65 119.029 144.65V133.969C119.148 133.969 119.266 134.088 119.266 134.207V133.317C119.266 122.636 110.603 113.973 99.9226 113.973H96.9557C93.7516 113.973 91.1408 111.362 91.1408 108.158C91.1408 104.954 93.7516 102.343 96.9557 102.343H119.504V91.6626Z" fill="#F1534D"/>
<path d="M118.139 126.612C115.409 119.254 108.289 113.914 99.9819 113.914H97.0151C93.8109 113.914 91.2001 111.303 91.2001 108.099C91.2001 104.895 93.8109 102.284 97.0151 102.284H119.563V91.6033H97.0151C87.9366 91.6033 80.5195 98.961 80.5195 108.099C80.5195 117.177 87.8773 124.594 97.0151 124.594H99.9819C104.788 124.594 108.645 128.451 108.645 133.257V134.148C108.645 139.903 113.333 144.591 119.088 144.591" stroke="black" stroke-width="4" stroke-miterlimit="10" stroke-linecap="round" stroke-linejoin="round"/>
<path d="M148.756 99.1983L168.278 98.1896L177.416 99.1983C177.416 99.1983 183.528 103.767 183.528 105.013C183.528 106.259 182.934 116.406 182.934 116.406C182.934 116.406 168.515 118.364 166.973 119.847C165.43 121.39 156.292 129.875 156.292 129.875L147.451 126.434L142.823 114.092L148.756 99.1983Z" fill="#9B2121"/>
<path d="M152.198 91.6626H174.746C183.824 91.6626 191.241 99.0203 191.241 108.158C191.241 117.237 183.884 124.654 174.746 124.654H171.779C166.973 124.654 163.116 128.511 163.116 133.317V134.207C163.116 139.962 158.428 144.65 152.673 144.65V133.969C152.554 133.969 152.435 134.088 152.435 134.207V133.317C152.435 122.636 161.098 113.973 171.779 113.973H174.746C177.95 113.973 180.561 111.362 180.561 108.158C180.561 104.954 177.95 102.343 174.746 102.343H152.198V91.6626Z" fill="#F1534D"/>
<path d="M153.622 126.612C156.352 119.254 163.472 113.914 171.779 113.914H174.746C177.95 113.914 180.561 111.303 180.561 108.099C180.561 104.895 177.95 102.284 174.746 102.284H152.198V91.6033H174.746C183.824 91.6033 191.241 98.961 191.241 108.099C191.241 117.177 183.884 124.594 174.746 124.594H171.779C166.973 124.594 163.116 128.451 163.116 133.257V134.148C163.116 139.903 158.428 144.591 152.673 144.591" stroke="black" stroke-width="4" stroke-miterlimit="10" stroke-linecap="round" stroke-linejoin="round"/>
<path d="M136.948 136.224C149.729 136.224 160.09 125.864 160.09 113.083C160.09 100.303 149.729 89.9418 136.948 89.9418C124.168 89.9418 113.807 100.303 113.807 113.083C113.807 125.864 124.168 136.224 136.948 136.224Z" fill="#F46262"/>
<path d="M114.816 106.259C121.224 110.354 128.819 112.786 136.949 112.786C145.078 112.786 152.673 110.413 159.081 106.259C156.174 96.7655 147.392 89.8825 136.949 89.8825C126.565 89.9418 117.724 96.8249 114.816 106.259Z" fill="#F1534D"/>
<path d="M136.948 136.224C149.729 136.224 160.09 125.864 160.09 113.083C160.09 100.303 149.729 89.9418 136.948 89.9418C124.168 89.9418 113.807 100.303 113.807 113.083C113.807 125.864 124.168 136.224 136.948 136.224Z" stroke="black" stroke-width="4" stroke-miterlimit="10" stroke-linecap="round" stroke-linejoin="round"/>
<path d="M136.949 126.493C129.413 126.493 123.301 120.381 123.301 112.846V102.64C123.301 100.741 124.844 99.1983 126.743 99.1983H147.214C149.113 99.1983 150.655 100.741 150.655 102.64V112.846C150.596 120.381 144.484 126.493 136.949 126.493Z" fill="#FFC897"/>
<path d="M147.214 99.1983H126.743C124.844 99.1983 123.301 100.86 123.301 102.877V111.244C127.573 112.846 132.142 113.736 136.949 113.736C141.755 113.736 146.324 112.846 150.596 111.244V102.877C150.596 100.86 149.053 99.1983 147.214 99.1983Z" fill="#E5A973"/>
<path d="M136.949 126.493C129.413 126.493 123.301 120.381 123.301 112.846V102.64C123.301 100.741 124.844 99.1983 126.743 99.1983H147.214C149.113 99.1983 150.655 100.741 150.655 102.64V112.846C150.596 120.381 144.484 126.493 136.949 126.493Z" stroke="black" stroke-width="4" stroke-miterlimit="10" stroke-linecap="round" stroke-linejoin="round"/>
<path d="M151.723 280.234H139.025V320.761H151.723V280.234Z" fill="#607691"/>
<path d="M151.723 280.234H139.025V320.761H151.723V280.234Z" stroke="black" stroke-width="4" stroke-miterlimit="10" stroke-linecap="round" stroke-linejoin="round"/>
<path d="M76.7812 253.414C76.2472 252.168 75.8318 250.922 75.4758 249.557C76.1285 250.862 76.5439 252.108 76.7812 253.414Z" stroke="black" stroke-width="4" stroke-miterlimit="10" stroke-linecap="round" stroke-linejoin="round"/>
<path d="M200.854 253.295C201.091 252.049 201.507 250.862 202.041 249.735C201.744 250.981 201.329 252.168 200.854 253.295Z" stroke="black" stroke-width="4" stroke-miterlimit="10" stroke-linecap="round" stroke-linejoin="round"/>
<path d="M200.676 250.447H76.9593C72.5684 250.447 68.8302 247.183 68.2368 242.793L60.5231 182.388C59.8704 177.166 63.9646 172.479 69.2456 172.479H208.39C213.67 172.479 217.765 177.107 217.112 182.388L209.398 242.793C208.805 247.124 205.067 250.447 200.676 250.447Z" fill="#B5B5B5"/>
<path opacity="0.21" d="M209.339 238.995C208.805 243.386 205.067 246.649 200.617 246.649H76.9594C72.5685 246.649 68.8303 243.386 68.2369 238.995L60.6418 179.481C60.4638 180.43 60.4045 181.379 60.5232 182.388L68.2369 242.793C68.7709 247.183 72.5091 250.447 76.9594 250.447H200.676C205.067 250.447 208.805 247.183 209.398 242.793L217.112 182.388C217.231 181.379 217.171 180.43 216.993 179.481L209.339 238.995Z" fill="#7E7E7E"/>
<path opacity="0.21" d="M60.5824 182.922C61.2945 178.887 64.8547 175.683 69.1862 175.683H208.33C212.721 175.683 216.222 178.828 216.934 182.922L216.993 182.329C217.646 177.107 213.552 172.42 208.271 172.42H69.2456C63.9646 172.42 59.8704 177.048 60.5231 182.329L60.5824 182.922Z" fill="#7E7E7E"/>
<path d="M200.676 250.447H76.9593C72.5684 250.447 68.8302 247.183 68.2368 242.793L60.5231 182.388C59.8704 177.166 63.9646 172.479 69.2456 172.479H208.39C213.67 172.479 217.765 177.107 217.112 182.388L209.398 242.793C208.805 247.124 205.067 250.447 200.676 250.447Z" stroke="black" stroke-width="4" stroke-miterlimit="10" stroke-linecap="round" stroke-linejoin="round"/>
<path opacity="0.66" d="M144.662 207.784C141.992 207.784 139.856 205.648 139.856 202.978C139.856 202.8 139.856 202.622 139.915 202.444C139.441 202.384 138.966 202.325 138.491 202.325C134.16 202.325 130.599 205.885 130.599 210.217C130.599 214.548 134.16 218.109 138.491 218.109C142.823 218.109 146.383 214.548 146.383 210.217C146.383 209.327 146.205 208.437 145.968 207.606C145.552 207.665 145.137 207.784 144.662 207.784Z" fill="#B5B5B5"/>
<path d="M205.897 303.256C203.939 296.907 197.946 293.525 188.215 290.677C182.044 288.897 174.212 288.066 161.929 285.574C155.936 284.387 151.723 282.014 151.723 282.014V288.838C151.723 288.838 192.369 296.848 198.718 307.351C201.803 312.513 200.854 325.152 186.316 326.457C190.767 327.11 198.065 325.982 201.981 322.007C206.847 317.082 208.152 310.495 205.897 303.256Z" fill="#282323" stroke="black" stroke-width="4" stroke-miterlimit="10" stroke-linecap="round" stroke-linejoin="round"/>
<path d="M151.723 288.838C151.723 288.838 176.051 293.347 189.046 298.925C200.439 303.85 200.082 308.953 200.379 314.174C200.557 317.2 198.421 324.677 189.758 325.982C179.433 327.525 167.269 325.864 151.723 315.954C151.723 291.686 151.723 288.838 151.723 288.838Z" fill="#442C2A"/>
<path opacity="0.37" d="M200.379 314.174C200.142 309.961 200.32 305.808 194.386 301.773C194.624 303.256 194.683 304.68 194.742 306.164C194.92 309.19 192.784 316.666 184.121 317.972C175.102 319.337 164.599 318.209 151.723 311.267C151.723 312.75 151.723 314.293 151.723 315.895C167.269 325.804 179.433 327.406 189.758 325.923C198.48 324.677 200.557 317.141 200.379 314.174Z" fill="#442C2A"/>
<path d="M151.723 288.838C151.723 288.838 176.051 293.347 189.046 298.925C200.439 303.85 200.082 308.953 200.379 314.174C200.557 317.2 198.421 324.677 189.758 325.982C179.433 327.525 167.269 325.864 151.723 315.954C151.723 291.686 151.723 288.838 151.723 288.838Z" stroke="black" stroke-width="4" stroke-miterlimit="10" stroke-linecap="round" stroke-linejoin="round"/>
<path d="M174.271 302.782C176.229 303.85 175.754 314.234 171.008 315.658" stroke="black" stroke-width="4" stroke-miterlimit="10" stroke-linecap="round" stroke-linejoin="round"/>
<path d="M166.854 302.01C168.871 304.858 167.447 311.563 163.828 313.225" stroke="black" stroke-width="4" stroke-miterlimit="10" stroke-linecap="round" stroke-linejoin="round"/>
<path d="M160.03 299.637C162.048 302.485 160.624 309.19 157.004 310.851" stroke="black" stroke-width="4" stroke-miterlimit="10" stroke-linecap="round" stroke-linejoin="round"/>
<path d="M116.121 138.598V170.165" stroke="black" stroke-width="6" stroke-miterlimit="10" stroke-linecap="round" stroke-linejoin="round"/>
<path d="M156.174 138.598V160.849" stroke="black" stroke-width="6" stroke-miterlimit="10" stroke-linecap="round" stroke-linejoin="round"/>
<path d="M156.174 167.554C158.894 167.554 161.098 165.349 161.098 162.629C161.098 159.909 158.894 157.704 156.174 157.704C153.454 157.704 151.249 159.909 151.249 162.629C151.249 165.349 153.454 167.554 156.174 167.554Z" fill="black"/>
<path d="M156.174 164.053C157.288 164.053 158.191 163.15 158.191 162.036C158.191 160.921 157.288 160.018 156.174 160.018C155.059 160.018 154.156 160.921 154.156 162.036C154.156 163.15 155.059 164.053 156.174 164.053Z" fill="#7E7E7E"/>
<path d="M136.949 109.226C116.299 109.226 99.5072 92.4933 99.5072 71.7849V28.3506H174.39V71.7849C174.39 92.434 157.657 109.226 136.949 109.226Z" fill="#FFC897"/>
<path d="M136.949 104.064C116.299 104.064 99.5072 87.331 99.5072 66.6226V71.7849C99.5072 92.434 116.24 109.226 136.949 109.226C157.598 109.226 174.39 92.4933 174.39 71.7849V66.6226C174.39 87.2717 157.657 104.064 136.949 104.064Z" fill="#E5A973"/>
<path d="M136.949 109.226C116.299 109.226 99.5072 92.4933 99.5072 71.7849V28.3506H174.39V71.7849C174.39 92.434 157.657 109.226 136.949 109.226Z" stroke="black" stroke-width="4" stroke-miterlimit="10" stroke-linecap="round" stroke-linejoin="round"/>
<path d="M174.687 32.6822C174.568 30.6647 174.449 28.5879 174.39 26.5705C149.469 27.7572 124.429 27.5792 99.5666 25.3838C99.3886 27.6979 99.2699 30.012 99.0919 32.3261C100.219 33.3349 101.406 34.4029 102.533 35.4116C103.483 35.8863 104.729 36.539 105.856 37.1324C110.841 39.7432 117.783 43.066 124.429 44.3714C126.861 44.8461 129.413 45.0835 132.024 45.0241C143.238 44.9055 152.673 40.4552 156.648 38.6158C157.242 38.3191 157.716 38.0818 158.013 38.0224C158.25 37.9038 158.488 37.8444 158.844 37.8444C159.556 37.8444 160.386 38.0224 161.395 38.2005C162.701 38.4971 164.243 38.7938 165.964 38.6751C167.922 38.5565 169.702 37.9631 171.423 36.8357C172.432 35.4116 173.559 34.0469 174.687 32.6822Z" fill="#E5A973"/>
<path d="M156.648 10.1343C156.648 10.1343 126.683 -9.62475 101.881 12.4484C97.2525 16.5426 95.4131 22.4169 95.4131 27.8165V56.4167H99.5666V35.649C99.5666 34.1062 100.635 32.9195 101.94 32.9195C104.076 32.9195 115.647 39.0905 125.437 40.8112C140.212 43.3627 153.681 36.539 156.589 35.5303C161.573 33.7502 165.608 39.9212 171.898 32.9788H172.135C173.441 32.9788 174.509 34.2249 174.509 35.7083V56.4761H178.662V27.9946C178.543 20.9929 170.474 3.42927 156.648 10.1343Z" fill="#231A17"/>
<g opacity="0.34">
<path opacity="0.34" d="M99.5072 52.5005H95.3536V56.4167H99.5072V52.5005Z" fill="#231A17"/>
<path opacity="0.34" d="M178.543 52.5005H174.39V56.4167H178.543V52.5005Z" fill="#231A17"/>
</g>
<path d="M156.648 10.1343C156.648 10.1343 126.683 -9.62475 101.881 12.4484C97.2525 16.5426 95.4131 22.4169 95.4131 27.8165V56.4167H99.5666V35.649C99.5666 34.1062 100.635 32.9195 101.94 32.9195C104.076 32.9195 115.647 39.0905 125.437 40.8112C140.212 43.3627 153.681 36.539 156.589 35.5303C161.573 33.7502 165.608 39.9212 171.898 32.9788H172.135C173.441 32.9788 174.509 34.2249 174.509 35.7083V56.476H178.662V27.9946C178.543 20.9929 170.474 3.42927 156.648 10.1343Z" stroke="black" stroke-width="4" stroke-miterlimit="10" stroke-linecap="round" stroke-linejoin="round"/>
<path d="M131.312 29.4186C131.312 29.4186 99.1513 31.4954 92.3276 14.4065" stroke="black" stroke-width="4" stroke-miterlimit="10" stroke-linecap="round" stroke-linejoin="round"/>
<path d="M135.88 25.3244C135.88 25.3244 104.907 23.3663 96.837 6.27742" stroke="black" stroke-width="4" stroke-miterlimit="10" stroke-linecap="round" stroke-linejoin="round"/>
<path d="M174.39 51.7885V71.2509C178.543 71.2509 181.866 66.9193 181.866 61.5197C181.866 56.12 178.543 51.7885 174.39 51.7885Z" fill="#FFC897"/>
<path d="M174.39 52.8566V70.1235C176.823 68.5214 178.484 65.2579 178.484 61.4604C178.484 57.7222 176.823 54.4587 174.39 52.8566Z" fill="#E5A973"/>
<path d="M174.39 51.7885V71.2509C178.543 71.2509 181.866 66.9193 181.866 61.5197C181.866 56.12 178.543 51.7885 174.39 51.7885Z" stroke="black" stroke-width="4" stroke-miterlimit="10" stroke-linecap="round" stroke-linejoin="round"/>
<path d="M99.5666 51.7885V71.2509C95.4131 71.2509 92.0902 66.9193 92.0902 61.5197C92.0309 56.12 95.4131 51.7885 99.5666 51.7885Z" fill="#FFC897"/>
<path d="M99.5665 53.2126C97.4304 54.9333 95.947 58.0188 95.947 61.5197C95.947 65.0205 97.3711 68.106 99.5665 69.8268V53.2126Z" fill="#E5A973"/>
<path d="M99.5666 51.7885V71.2509C95.4131 71.2509 92.0902 66.9193 92.0902 61.5197C92.0309 56.12 95.4131 51.7885 99.5666 51.7885Z" stroke="black" stroke-width="4" stroke-miterlimit="10" stroke-linecap="round" stroke-linejoin="round"/>
<path d="M135.406 67.6313L132.914 75.7604C132.914 76.6505 135.821 75.9384 138.788 76.6505" stroke="black" stroke-width="4" stroke-miterlimit="10" stroke-linecap="round" stroke-linejoin="round"/>
<path d="M149.409 82.8215C150.299 88.9925 142.348 94.4514 136.118 93.324" stroke="black" stroke-width="3" stroke-miterlimit="10" stroke-linecap="round" stroke-linejoin="round"/>
<path d="M123.479 60.7483C124.856 60.7483 125.971 59.5528 125.971 58.0782C125.971 56.6035 124.856 55.408 123.479 55.408C122.103 55.408 120.987 56.6035 120.987 58.0782C120.987 59.5528 122.103 60.7483 123.479 60.7483Z" stroke="black" stroke-width="2" stroke-miterlimit="10" stroke-linecap="round" stroke-linejoin="round"/>
<path d="M123.479 60.7483C124.856 60.7483 125.971 59.5528 125.971 58.0782C125.971 56.6035 124.856 55.408 123.479 55.408C122.103 55.408 120.987 56.6035 120.987 58.0782C120.987 59.5528 122.103 60.7483 123.479 60.7483Z" fill="black"/>
<path d="M114.875 52.4412C116.122 50.9578 119.029 49.9491 122.471 49.9491C125.2 49.9491 127.573 50.6018 129.057 51.6105" stroke="black" stroke-width="3" stroke-miterlimit="10" stroke-linecap="round" stroke-linejoin="round"/>
<path d="M150.774 60.7483C152.15 60.7483 153.266 59.5528 153.266 58.0782C153.266 56.6035 152.15 55.408 150.774 55.408C149.398 55.408 148.282 56.6035 148.282 58.0782C148.282 59.5528 149.398 60.7483 150.774 60.7483Z" stroke="black" stroke-width="2" stroke-miterlimit="10" stroke-linecap="round" stroke-linejoin="round"/>
<path d="M150.774 60.7483C152.15 60.7483 153.266 59.5528 153.266 58.0782C153.266 56.6035 152.15 55.408 150.774 55.408C149.398 55.408 148.282 56.6035 148.282 58.0782C148.282 59.5528 149.398 60.7483 150.774 60.7483Z" fill="black"/>
<path d="M159.378 52.4412C158.132 50.9578 155.224 49.9491 151.783 49.9491C149.053 49.9491 146.68 50.6018 145.196 51.6105" stroke="black" stroke-width="3" stroke-miterlimit="10" stroke-linecap="round" stroke-linejoin="round"/>
</svg>
