<svg width="50" height="50" viewBox="0 0 50 50" fill="none" xmlns="http://www.w3.org/2000/svg">
<path fill-rule="evenodd" clip-rule="evenodd" d="M43.9505 0C36.6992 0.000305526 29.745 2.88111 24.6177 8.0087L23.1835 9.43983C22.2023 10.421 21.2586 11.4428 20.3587 12.499H10.347C9.41331 12.4992 8.49523 12.7386 7.68021 13.1942C6.86521 13.6499 6.18046 14.3066 5.69119 15.1019L0.347886 23.7699C0.16032 24.0745 0.0449968 24.4181 0.0107572 24.7742C-0.0234823 25.1304 0.0242704 25.4896 0.150355 25.8244C0.27644 26.1592 0.477509 26.4607 0.738153 26.7058C0.998794 26.9509 1.31209 27.1331 1.65403 27.2383L11.347 30.2193C11.4626 30.3787 11.5938 30.5318 11.7344 30.6724L19.3244 38.2593C19.4682 38.403 19.6181 38.5343 19.7775 38.6499L22.7585 48.3428C22.8638 48.6847 23.0459 48.9981 23.291 49.2587C23.5361 49.5193 23.8376 49.7205 24.1724 49.8464C24.5072 49.9727 24.8665 50.0202 25.2226 49.9861C25.5787 49.9517 25.9223 49.8364 26.227 49.649L34.895 44.315C35.6903 43.8257 36.3471 43.1411 36.8027 42.3261C37.2583 41.5109 37.4976 40.5928 37.4979 39.6592V29.6381C38.5541 28.7382 39.5759 27.7945 40.557 26.8134L41.9882 25.3791C47.1162 20.2531 49.9981 13.3001 50 6.04949V5.46829C50 4.01801 49.4238 2.62713 48.3983 1.60162C47.3727 0.57612 45.9819 0 44.5317 0H43.9505ZM32.8139 33.2003C32.539 33.3878 32.2609 33.5691 31.9828 33.7472L24.6396 38.4999L26.352 44.0713L32.4421 40.3216C32.5558 40.2516 32.6496 40.1538 32.7146 40.0373C32.7799 39.9207 32.8139 39.7895 32.8139 39.656V33.2003ZM11.497 25.3604L16.2528 18.0172C16.434 17.736 16.6184 17.461 16.8028 17.1861H10.3439C10.2105 17.186 10.0792 17.2202 9.9627 17.2853C9.84618 17.3504 9.74828 17.4442 9.67835 17.5579L5.92867 23.6511L11.497 25.3604ZM27.9331 11.3209C32.1806 7.07412 37.941 4.68798 43.9474 4.68711H44.5286C44.7358 4.68711 44.9345 4.76941 45.081 4.9159C45.2276 5.06242 45.3098 5.26112 45.3098 5.46829V6.04949C45.3101 9.02465 44.7245 11.9707 43.5862 14.7196C42.4481 17.4684 40.7795 19.9661 38.676 22.07L37.2417 23.5012C34.8669 25.876 32.2515 27.9914 29.4329 29.8131L22.1929 34.5002L15.4966 27.8039L20.1837 20.5639C22.0067 17.7449 24.1224 15.1264 26.4957 12.7521L27.9268 11.3209H27.9331ZM37.501 15.6237C37.501 16.4524 37.1717 17.2472 36.5858 17.8332C35.9999 18.4192 35.205 18.7484 34.3763 18.7484C33.5476 18.7484 32.7527 18.4192 32.1668 17.8332C31.5806 17.2472 31.2515 16.4524 31.2515 15.6237C31.2515 14.7949 31.5806 14.0002 32.1668 13.4142C32.7527 12.8282 33.5476 12.499 34.3763 12.499C35.205 12.499 35.9999 12.8282 36.5858 13.4142C37.1717 14.0002 37.501 14.7949 37.501 15.6237ZM11.1282 45.4962C11.5887 45.0672 11.9581 44.5497 12.2143 43.9747C12.4705 43.3998 12.6082 42.7792 12.6193 42.1496C12.6304 41.5203 12.5146 40.8953 12.2789 40.3116C12.0432 39.7279 11.6923 39.198 11.2472 38.7527C10.8021 38.3077 10.272 37.9568 9.68835 37.7212C9.10471 37.4853 8.47958 37.3697 7.85026 37.3806C7.2209 37.3919 6.60024 37.5297 6.02528 37.7856C5.45036 38.0418 4.93288 38.4111 4.50379 38.8717C2.21023 41.1528 1.23219 46.1586 0.910339 48.2553C0.891309 48.3684 0.89958 48.4844 0.934461 48.5934C0.969343 48.7025 1.02983 48.8018 1.11086 48.8828C1.1919 48.964 1.29113 49.0243 1.4003 49.0593C1.50946 49.094 1.62538 49.1024 1.73839 49.0834C3.83509 48.7615 8.84092 47.7835 11.1282 45.4962Z" fill="#0075FF"/>
</svg>
