<svg width="50" height="33" viewBox="0 0 50 33" fill="none" xmlns="http://www.w3.org/2000/svg">
<path fill-rule="evenodd" clip-rule="evenodd" d="M14.4183 0.708606C15.3631 -0.236202 16.895 -0.236202 17.8398 0.708606C18.7846 1.65341 18.7846 3.18529 17.8398 4.1301L5.84085 16.129L17.8398 28.1281C18.7846 29.0729 18.7846 30.6046 17.8398 31.5494C16.895 32.4942 15.3631 32.4942 14.4183 31.5494L0.708613 17.8398C-0.236204 16.895 -0.236204 15.3631 0.708613 14.4183L14.4183 0.708606ZM35.5817 0.708606C34.6368 -0.236202 33.1052 -0.236202 32.1604 0.708606C31.2155 1.65341 31.2155 3.18529 32.1604 4.1301L44.1591 16.129L32.1604 28.1281C31.2155 29.0729 31.2155 30.6046 32.1604 31.5494C33.1052 32.4942 34.6368 32.4942 35.5817 31.5494L49.2914 17.8398C50.2362 16.895 50.2362 15.3631 49.2914 14.4183L35.5817 0.708606Z" fill="#0075FF"/>
</svg>
