<svg width="16" height="16" viewBox="0 0 16 16" fill="none" xmlns="http://www.w3.org/2000/svg">
<rect width="16" height="16" rx="8" fill="white"/>
<g clip-path="url(#clip0)">
<path d="M11.3581 9.25108C10.8683 9.25108 10.3874 9.17448 9.93165 9.02388C9.70833 8.94771 9.43381 9.01758 9.29752 9.15756L8.398 9.8366C7.35481 9.27975 6.71223 8.63738 6.16298 7.60202L6.82204 6.72594C6.99327 6.55494 7.05469 6.30515 6.9811 6.07077C6.82985 5.61265 6.75302 5.13196 6.75302 4.64196C6.75304 4.28798 6.46506 4 6.1111 4H4.64194C4.28798 4 4 4.28798 4 4.64194C4 8.69923 7.30079 12 11.3581 12C11.712 12 12 11.712 12 11.3581V9.893C12 9.53906 11.712 9.25108 11.3581 9.25108Z" fill="#941914"/>
</g>
<defs>
<clipPath id="clip0">
<rect width="8" height="8" fill="white" transform="translate(4 4)"/>
</clipPath>
</defs>
</svg>