<svg width="209" height="52" viewBox="0 0 209 52" fill="none" xmlns="http://www.w3.org/2000/svg">
<path d="M58.8587 38.0359H57.5597L56.3216 33.6842C56.2693 33.4956 56.2017 33.2214 56.1211 32.8639C56.0404 32.5064 55.9925 32.2585 55.9772 32.1182C55.9445 32.3309 55.89 32.6073 55.8159 32.9473C55.7418 33.2872 55.6786 33.5395 55.6285 33.7062L54.4187 38.0359H53.1197L52.1759 34.3839L51.2168 30.7429H52.4352L53.4793 34.9937C53.6428 35.6758 53.7583 36.2768 53.8281 36.801C53.8651 36.5181 53.9196 36.2022 53.9937 35.8535C54.0678 35.5047 54.1332 35.2218 54.1942 35.0047L55.3822 30.7451H56.5657L57.7842 35.0244C57.8997 35.4192 58.0239 36.0114 58.1547 36.801C58.2048 36.3251 58.3247 35.7197 58.5144 34.9849L59.5541 30.7451H60.7638L58.8587 38.0359Z" fill="#233A5E"/>
<path d="M68.4733 38.0359H64.3428V30.7429H68.4733V31.7497H65.5351V33.7347H68.288V34.7327H65.5351V37.0226H68.4733V38.0359Z" fill="#233A5E"/>
<path d="M77.1288 38.0359L76.3986 36.0114H73.6064L72.8915 38.0359H71.6338L74.3649 30.7122H75.664L78.3952 38.0359H77.1288ZM76.0847 34.9827L75.4003 32.9977C75.3501 32.8639 75.2804 32.6555 75.1932 32.3682C75.106 32.083 75.045 31.8725 75.0101 31.7387C74.9208 32.1488 74.7878 32.5963 74.6156 33.081L73.9573 34.9805H76.0847V34.9827Z" fill="#233A5E"/>
<path d="M81.9092 38.0359V30.7429H83.1015V37.0138H86.1945V38.0359H81.9092Z" fill="#233A5E"/>
<path d="M92.5221 38.0359H91.3277V31.765H89.1807V30.7429H94.6691V31.765H92.5221V38.0359Z" fill="#233A5E"/>
<path d="M104.094 38.0359H102.895V34.748H99.5294V38.0359H98.335V30.7429H99.5294V33.7259H102.895V30.7429H104.094V38.0359Z" fill="#233A5E"/>
<path d="M116.926 38.0359L114.807 31.9449H114.768C114.824 32.8486 114.853 33.6974 114.853 34.4892V38.0359H113.77V30.7429H115.452L117.479 36.5444H117.51L119.598 30.7429H121.285V38.0359H120.136V34.4278C120.136 34.0659 120.145 33.5921 120.165 33.0109C120.182 32.4296 120.2 32.0765 120.213 31.9537H120.173L117.981 38.0359H116.926Z" fill="#233A5E"/>
<path d="M130.285 38.0359L129.555 36.0114H126.765L126.05 38.0359H124.792L127.523 30.7122H128.822L131.553 38.0359H130.285ZM129.241 34.9827L128.556 32.9977C128.506 32.8639 128.436 32.6555 128.349 32.3682C128.262 32.083 128.201 31.8725 128.166 31.7387C128.077 32.1488 127.944 32.5963 127.772 33.081L127.113 34.9805H129.241V34.9827Z" fill="#233A5E"/>
<path d="M141.148 38.0359H139.685L136.093 32.2235H136.054L136.078 32.5481C136.124 33.1666 136.148 33.7325 136.148 34.2457V38.0381H135.064V30.7429H136.512L140.093 36.5247H140.123C140.117 36.4479 140.104 36.1693 140.084 35.689C140.065 35.2086 140.054 34.8336 140.054 34.5638V30.7429H141.148V38.0359Z" fill="#233A5E"/>
<path d="M150.153 38.0359L149.423 36.0114H146.631L145.916 38.0359H144.66L147.391 30.7122H148.69L151.422 38.0359H150.153ZM149.109 34.9827L148.424 32.9977C148.374 32.8639 148.305 32.6555 148.217 32.3682C148.128 32.083 148.069 31.8725 148.034 31.7387C147.945 32.1488 147.812 32.5963 147.64 33.081L146.982 34.9805H149.109V34.9827Z" fill="#233A5E"/>
<path d="M157.919 34.0791H160.607V37.7421C160.166 37.8846 159.746 37.9855 159.34 38.047C158.935 38.1062 158.499 38.1369 158.028 38.1369C156.923 38.1369 156.071 37.8101 155.471 37.1564C154.872 36.5028 154.573 35.5816 154.573 34.3906C154.573 33.2171 154.911 32.2981 155.587 31.6335C156.262 30.9711 157.193 30.6377 158.379 30.6377C159.142 30.6377 159.863 30.7847 160.548 31.0764L160.129 32.07C159.536 31.798 158.943 31.6598 158.351 31.6598C157.57 31.6598 156.956 31.9055 156.502 32.3924C156.049 32.8815 155.822 33.5505 155.822 34.3972C155.822 35.2877 156.027 35.9654 156.435 36.4304C156.842 36.8954 157.429 37.1257 158.196 37.1257C158.582 37.1257 158.994 37.0775 159.434 36.981V35.099H157.921V34.0791H157.919Z" fill="#233A5E"/>
<path d="M169.037 38.0359H164.906V30.7429H169.037V31.7497H166.101V33.7347H168.851V34.7327H166.101V37.0226H169.037V38.0359Z" fill="#233A5E"/>
<path d="M176.319 38.0359L174.201 31.9449H174.161C174.218 32.8486 174.246 33.6974 174.246 34.4892V38.0359H173.163V30.7429H174.846L176.873 36.5444H176.903L178.992 30.7429H180.679V38.0359H179.53V34.4278C179.53 34.0659 179.539 33.5921 179.558 33.0109C179.576 32.4296 179.593 32.0765 179.606 31.9537H179.567L177.374 38.0359H176.319Z" fill="#233A5E"/>
<path d="M189.28 38.0359H185.149V30.7429H189.28V31.7497H186.344V33.7347H189.095V34.7327H186.344V37.0226H189.28V38.0359Z" fill="#233A5E"/>
<path d="M199.49 38.0359H198.027L194.435 32.2235H194.396L194.42 32.5481C194.466 33.1666 194.49 33.7325 194.49 34.2457V38.0381H193.406V30.7429H194.854L198.435 36.5247H198.465C198.459 36.4479 198.446 36.1693 198.426 35.689C198.406 35.2086 198.396 34.8336 198.396 34.5638V30.7429H199.49V38.0359Z" fill="#233A5E"/>
<path d="M206.486 38.0359H205.292V31.765H203.145V30.7429H208.633V31.765H206.486V38.0359Z" fill="#233A5E"/>
<path d="M55.4279 9.75537H51.2168V25.1793H55.4279V9.75537Z" fill="#233A5E"/>
<path d="M73.8833 20.4167C73.8833 21.3467 73.6457 22.1736 73.1749 22.8952C72.7019 23.6168 72.0197 24.1783 71.1282 24.5775C70.2367 24.9767 69.1926 25.1785 67.9938 25.1785C66.9933 25.1785 66.1542 25.1083 65.4741 24.9679C64.7962 24.8276 64.09 24.5841 63.3555 24.2354V20.6229C64.1293 21.0199 64.9357 21.3291 65.7705 21.5507C66.6075 21.7722 67.3748 21.884 68.0745 21.884C68.6782 21.884 69.1185 21.7788 69.3997 21.5704C69.6809 21.362 69.8204 21.0922 69.8204 20.7654C69.8204 20.5592 69.7637 20.3794 69.6504 20.2259C69.537 20.0723 69.3561 19.9166 69.1054 19.7587C68.8548 19.6007 68.1878 19.2805 67.1067 18.7936C66.1258 18.3483 65.3913 17.9184 64.9009 17.5017C64.4104 17.0849 64.0486 16.6046 63.811 16.065C63.5756 15.5254 63.4557 14.885 63.4557 14.1458C63.4557 12.764 63.9592 11.687 64.9663 10.9127C65.9733 10.1407 67.3573 9.75244 69.1207 9.75244C70.677 9.75244 72.2616 10.1122 73.8811 10.8294L72.6365 13.9594C71.2306 13.3167 70.0187 12.9943 68.9965 12.9943C68.469 12.9943 68.0854 13.0864 67.8456 13.2706C67.6058 13.4549 67.486 13.6852 67.486 13.9572C67.486 14.2511 67.6385 14.5143 67.9437 14.7468C68.2488 14.9793 69.0771 15.4048 70.4263 16.0189C71.7211 16.6002 72.6213 17.2253 73.1248 17.8921C73.6326 18.5633 73.8833 19.4033 73.8833 20.4167Z" fill="#233A5E"/>
<path d="M91.2856 25.1785H82.1484L82.1396 9.75464H91.2856V13.139H86.3181V15.5101H90.8257V18.8945H86.3181V21.7897H91.2856V25.1785Z" fill="#233A5E"/>
<path d="M106.077 13.0798C105.114 13.0798 104.362 13.4746 103.823 14.2642C103.283 15.0539 103.013 16.144 103.013 17.5324C103.013 20.4189 104.109 21.8621 106.302 21.8621C106.964 21.8621 107.607 21.77 108.229 21.5857C108.85 21.4015 109.475 21.18 110.103 20.919V24.3472C108.852 24.9021 107.439 25.1785 105.861 25.1785C103.601 25.1785 101.866 24.5227 100.661 23.2088C99.4553 21.895 98.8516 19.9977 98.8516 17.5126C98.8516 15.9597 99.1436 14.5954 99.7278 13.4176C100.312 12.2419 101.151 11.3361 102.25 10.7044C103.346 10.0705 104.634 9.75464 106.119 9.75464C107.738 9.75464 108.63 10.1604 110.105 10.8645V14.2708C109.552 14.0098 108.414 13.5229 107.86 13.3452C107.307 13.1675 106.711 13.0798 106.077 13.0798Z" fill="#233A5E"/>
<path d="M8.14648 33.3752V43.1161L20.3527 51.4509L27.4803 46.5816L24.4505 44.5198L19.0013 46.5816L14.8381 43.7521L19.0885 40.8569L8.14648 33.3752Z" fill="#941914"/>
<path d="M32.5589 43.1161L28.7663 45.7043L24.6249 42.8968L19.1975 44.9585L17.4102 43.7522L32.5589 33.395V43.1161Z" fill="#B1191A"/>
<path d="M20.3528 39.9574V33.2896L14.2715 35.8119L20.3528 39.9574Z" fill="#941914"/>
<path d="M20.3525 39.9574V33.2896L26.4338 35.8119L20.3525 39.9574Z" fill="#B1191A"/>
<path d="M8.14648 31.6226L12.593 34.6494L19.568 30.6575V28.0912L15.6228 25.6346L14.8599 22.1252L8.14648 17.563V31.6226Z" fill="#941914"/>
<path d="M32.5592 31.6226L28.1127 34.6494L21.1377 30.6575V28.0912L25.0829 25.6346L25.8458 22.1252L32.5592 17.563V31.6226Z" fill="#B1191A"/>
<path d="M8.14648 15.7864C8.14648 15.7864 11.5969 15.2578 14.7073 18.0237C17.4014 20.4189 18.0204 23.9678 18.0204 23.9678H20.3527V9.75464H8.14648V15.7864Z" fill="#941914"/>
<path d="M32.5587 15.7864C32.5587 15.7864 29.1083 15.2578 25.9979 18.0237C23.3038 20.4189 22.663 23.9678 22.663 23.9678H20.3525V9.75464H32.5587V15.7864Z" fill="#B1191A"/>
<path d="M39.8604 10.8053L33.9971 14.7994V9.75464H39.8604V10.8053Z" fill="#B1191A"/>
<path d="M39.8604 28.394L33.9971 32.4123V42.129L39.8604 38.137V28.394Z" fill="#B1191A"/>
<path d="M39.8604 20.4802L33.9971 24.4722V30.6356L39.8604 26.6217V20.4802Z" fill="#B1191A"/>
<path d="M39.8604 12.5623L33.9971 16.5762V22.7176L39.8604 18.7037V12.5623Z" fill="#B1191A"/>
<path d="M0.84375 10.8053L6.70709 14.7994V9.75464H0.84375V10.8053Z" fill="#941914"/>
<path d="M0.84375 28.394L6.70709 32.4123V42.129L0.84375 38.137V28.394Z" fill="#941914"/>
<path d="M0.84375 20.4802L6.70709 24.4722V30.6356L0.84375 26.6217V20.4802Z" fill="#941914"/>
<path d="M0.84375 12.5623L6.70709 16.5762V22.7176L0.84375 18.7037V12.5623Z" fill="#941914"/>
<path d="M16.8434 5.28018H14.2714L12.9418 2.40684H8.14648V8.30704H20.3527V0.674072L16.2527 2.40026L16.8434 5.28018Z" fill="#941914"/>
<path d="M23.8618 5.28018H26.4338L27.7634 2.40684H32.5587V8.30704H20.3525V0.674072L24.4525 2.40026L23.8618 5.28018Z" fill="#B1191A"/>
</svg>