<svg width="40" height="40" viewBox="0 0 40 40" fill="none" xmlns="http://www.w3.org/2000/svg">
<g clip-path="url(#clip0)">
<path d="M18.7516 19.3899H17.5022C17.1571 19.3899 16.8774 19.1102 16.8774 18.7652C16.8774 18.4202 17.1571 18.1405 17.5022 18.1405H20.0011V16.891H18.7516V15.6415H17.5022V16.891C16.4668 16.891 15.6279 17.7302 15.6279 18.7652C15.6279 19.8002 16.4668 20.6394 17.5022 20.6394H18.7516C19.0967 20.6394 19.3764 20.9192 19.3764 21.2642C19.3764 21.6092 19.0967 21.8889 18.7516 21.8889H16.2527V23.1384H17.5022V24.3879H18.7516V23.1384C19.7867 23.1384 20.6259 22.2992 20.6259 21.2642C20.6259 20.2291 19.7867 19.3899 18.7516 19.3899Z" fill="white"/>
<path d="M24.008 26.8868L24.9988 25.896L25.9896 26.8868H27.4978V13.1424H25.6235V11.8929C25.626 10.5528 24.9116 9.31372 23.7505 8.64443C22.5895 7.97515 21.1591 7.9779 20.0008 8.65175C18.8423 7.9779 17.4122 7.97515 16.2512 8.64443C15.0901 9.31372 14.3757 10.5528 14.3781 11.8929V13.1424H12.5039V26.8868H24.008ZM25.6235 14.3919H26.2483V25.3786L24.9988 24.1291L23.7493 25.3786V14.3919H25.6235ZM19.3761 11.8929C19.3782 11.2898 19.6003 10.7084 20.0008 10.2572C20.4011 10.7084 20.6231 11.2898 20.6256 11.8929V13.1424H19.3761V11.8929ZM15.6276 11.8929C15.6276 10.5126 16.7463 9.39394 18.1266 9.39394C18.4097 9.39669 18.6903 9.44824 18.956 9.54647C18.4192 10.2103 18.1263 11.0388 18.1266 11.8929V13.1424H15.6276V11.8929ZM22.4998 25.6373H13.7534V14.3919H22.4998V25.6373ZM21.8751 13.1424V11.8929C21.8754 11.0388 21.5825 10.2103 21.0453 9.54647C21.311 9.44824 21.5917 9.39669 21.8751 9.39394C23.2551 9.39394 24.3741 10.5126 24.3741 11.8929V13.1424H21.8751Z" fill="white"/>
<path d="M38.7434 20.0148C38.7477 22.6187 38.2032 25.1946 37.1458 27.5743C36.8042 27.3269 36.4409 27.1112 36.0602 26.93C37.9719 22.5168 37.9719 17.5091 36.0602 13.0956C38.5143 11.9398 40.0579 9.44722 39.9984 6.73501C39.9392 4.0228 38.288 1.60008 35.7856 0.552538C33.283 -0.494702 30.3984 0.0299858 28.425 1.89141C25.7888 0.656256 22.9122 0.0183937 20.0011 0.0229695V1.27246C22.605 1.26819 25.1808 1.8124 27.5605 2.87001C27.3134 3.21228 27.0984 3.57682 26.9181 3.95874C22.5049 2.04698 17.4972 2.04698 13.0837 3.95874C11.9288 1.50399 9.43652 -0.0404811 6.724 0.0180887C4.01179 0.0766585 1.58816 1.72699 0.540312 4.22963C-0.507539 6.73196 0.016539 9.61683 1.87766 11.5908C0.642504 14.2271 0.00464208 17.1034 0.00921788 20.0148H1.25871C1.25444 17.4106 1.79865 14.835 2.85596 12.4553C3.19853 12.7024 3.56306 12.9175 3.94499 13.0975C2.03323 17.5109 2.03323 22.5187 3.94499 26.9318C1.48902 28.0865 -0.0566732 30.5793 0.00159156 33.2925C0.0598563 36.0059 1.7111 38.4301 4.21465 39.478C6.7179 40.5258 9.60369 40.0008 11.5777 38.1379C14.2136 39.373 17.0899 40.0112 20.0011 40.0066V38.7571C17.3968 38.7614 14.8213 38.2169 12.4416 37.1596C12.689 36.8182 12.9046 36.4546 13.0855 36.0739C17.499 37.9857 22.5067 37.9857 26.9199 36.0739C28.0758 38.5281 30.5686 40.0716 33.2808 40.0121C35.9928 39.953 38.4158 38.3017 39.463 35.7994C40.5103 33.2967 39.9856 30.4122 38.1241 28.4388C39.3593 25.8025 39.9975 22.9259 39.9929 20.0148H38.7434ZM33.1207 1.27246C35.4507 1.2691 37.5403 2.70528 38.3728 4.88152C39.2049 7.05775 38.6067 9.52165 36.8692 11.0741V8.45001L35.3579 7.3625C35.5279 7.02328 35.6172 6.6496 35.6197 6.27042C35.6197 4.89006 34.5007 3.77144 33.1207 3.77144C31.7403 3.77144 30.6217 4.89006 30.6217 6.27042C30.6238 6.64929 30.7135 7.02298 30.8834 7.36189L29.3722 8.4494V11.0734C27.635 9.52104 27.0371 7.05715 27.8692 4.88121C28.7014 2.70528 30.791 1.26941 33.1207 1.27246ZM33.1207 8.7694C33.6314 8.76909 34.1295 8.61108 34.5468 8.31701L35.6197 9.08909V11.8931H35.6822C34.0755 12.7244 32.1656 12.7244 30.5592 11.8931H30.6217V9.08909L31.6943 8.31701C32.1119 8.61108 32.61 8.76909 33.1207 8.7694ZM31.8712 6.27042C31.8712 5.58039 32.4307 5.02093 33.1207 5.02093C33.8107 5.02093 34.3702 5.58039 34.3702 6.27042C34.3702 6.96044 33.8107 7.51991 33.1207 7.51991C32.4307 7.51991 31.8712 6.96044 31.8712 6.27042ZM3.13294 8.4494V11.0734C1.39537 9.51921 0.79686 7.05409 1.62873 4.87603C2.46061 2.69827 4.55021 1.25965 6.88141 1.25965C9.21261 1.25965 11.3019 2.69827 12.1338 4.87603C12.9657 7.05409 12.3675 9.51921 10.6299 11.0734V8.4494L9.11866 7.36189C9.28826 7.02298 9.37795 6.64929 9.38039 6.27042C9.38039 4.89006 8.26146 3.77144 6.88141 3.77144C5.50105 3.77144 4.38243 4.89006 4.38243 6.27042C4.38457 6.64929 4.47425 7.02298 4.64417 7.36189L3.13294 8.4494ZM6.88141 8.7694C7.39207 8.76909 7.89021 8.61108 8.30752 8.31701L9.38039 9.08909V11.8931H9.44293C7.83622 12.7244 5.9263 12.7244 4.3199 11.8931H4.38243V9.08909L5.45499 8.31701C5.87261 8.61108 6.37076 8.76909 6.88141 8.7694ZM5.63192 6.27042C5.63192 5.58039 6.19138 5.02093 6.88141 5.02093C7.57144 5.02093 8.1309 5.58039 8.1309 6.27042C8.1309 6.96044 7.57144 7.51991 6.88141 7.51991C6.19138 7.51991 5.63192 6.96044 5.63192 6.27042ZM6.88141 38.7571C5.98975 38.7565 5.1115 38.5424 4.3199 38.1324H4.38243V35.329L5.45499 34.5563C6.31036 35.1594 7.45247 35.1594 8.30752 34.5563L9.38039 35.329V38.1324H9.44293C8.65101 38.5424 7.77277 38.7565 6.88141 38.7571ZM5.63192 32.5097C5.63192 31.8197 6.19138 31.2602 6.88141 31.2602C7.57144 31.2602 8.1309 31.8197 8.1309 32.5097C8.1309 33.1997 7.57144 33.7592 6.88141 33.7592C6.19138 33.7592 5.63192 33.1997 5.63192 32.5097ZM10.6299 37.3133V34.6893L9.11866 33.6024C9.28857 33.2632 9.37825 32.8892 9.38039 32.5097C9.38039 31.1293 8.26146 30.0107 6.88141 30.0107C5.50105 30.0107 4.38243 31.1293 4.38243 32.5097C4.38457 32.8886 4.47425 33.2623 4.64417 33.6012L3.13294 34.6881V37.3121C1.39537 35.7579 0.79686 33.2928 1.62873 31.1147C2.46061 28.9369 4.55021 27.4983 6.88141 27.4983C9.21261 27.4983 11.3019 28.9369 12.1338 31.1147C12.9657 33.2928 12.3675 35.7579 10.6299 37.3121V37.3133ZM26.2735 33.6274C26.304 34.0566 26.3754 34.4822 26.4864 34.8979C22.3527 36.7106 17.6491 36.7106 13.5154 34.8979C14.0315 32.9938 13.6999 30.9594 12.6057 29.3176C11.5112 27.6759 9.76109 26.5871 7.8048 26.3309C6.7902 24.3798 6.25941 22.2136 6.25667 20.0148H5.00718C5.00901 22.1807 5.48001 24.3206 6.38784 26.2873C5.95833 26.3178 5.53247 26.3892 5.11638 26.5002C3.30469 22.3664 3.30469 17.6632 5.11638 13.5294C7.02082 14.0453 9.05521 13.7137 10.697 12.6194C12.3388 11.5249 13.4278 9.77485 13.6841 7.81855C15.6355 6.80426 17.8019 6.27347 20.0011 6.27042V5.02093C17.8349 5.02276 15.6953 5.49376 13.7286 6.40159C13.6978 5.97208 13.6264 5.54623 13.5154 5.13014C17.6494 3.31844 22.3527 3.31844 26.4864 5.13014C25.9703 7.03457 26.3022 9.06896 27.3964 10.7107C28.4906 12.3525 30.241 13.4416 32.1973 13.6978C33.2113 15.6492 33.7424 17.8157 33.7454 20.0148H34.9949C34.9928 17.8486 34.5218 15.709 33.6143 13.7423C34.0438 13.7115 34.4693 13.6401 34.8854 13.5294C36.6974 17.6632 36.6974 22.3664 34.8854 26.5002C32.981 25.984 30.9466 26.3159 29.3048 27.4105C27.663 28.5047 26.574 30.2551 26.3177 32.2117C24.3663 33.2257 22.2002 33.7564 20.0011 33.7592V35.0087C22.1669 35.0068 24.3069 34.5359 26.2735 33.628V33.6274ZM33.1207 38.7571C32.229 38.7565 31.3508 38.5424 30.5592 38.1324H30.6217V35.329L31.6943 34.5563C32.5496 35.1594 33.6917 35.1594 34.5468 34.5563L35.6197 35.329V38.1324H35.6822C34.8903 38.5424 34.0121 38.7565 33.1207 38.7571ZM31.8712 32.5097C31.8712 31.8197 32.4307 31.2602 33.1207 31.2602C33.8107 31.2602 34.3702 31.8197 34.3702 32.5097C34.3702 33.1997 33.8107 33.7592 33.1207 33.7592C32.4307 33.7592 31.8712 33.1997 31.8712 32.5097ZM38.7434 33.1344C38.7422 34.7308 38.0604 36.2508 36.8692 37.3133V34.6893L35.3579 33.6024C35.5279 33.2632 35.6175 32.8892 35.6197 32.5097C35.6197 31.1293 34.5007 30.0107 33.1207 30.0107C31.7403 30.0107 30.6217 31.1293 30.6217 32.5097C30.6238 32.8886 30.7135 33.2623 30.8834 33.6012L29.3722 34.6881V37.3121C27.4504 35.5883 26.9507 32.7766 28.1606 30.4961C29.3704 28.2158 31.9786 27.0529 34.4837 27.6774C36.9884 28.3018 38.7455 30.5528 38.7434 33.1344Z" fill="white"/>
</g>
<defs>
<clipPath id="clip0">
<rect width="40" height="40" fill="white"/>
</clipPath>
</defs>
</svg>