<svg width="8" height="8" viewBox="0 0 8 8" fill="none" xmlns="http://www.w3.org/2000/svg">
<g clip-path="url(#clip0)">
<path d="M5.02063 1.30261C4.82043 0.783142 4.56879 0.345642 4.2796 0.0101929C4.18463 0.003479 4.08905 0 3.99298 0C3.89685 0 3.80127 0.003479 3.70636 0.0101929C3.41711 0.345642 3.16547 0.783081 2.96533 1.30261C2.9007 1.47034 2.84259 1.64423 2.79102 1.82318H5.19495C5.14331 1.64423 5.08521 1.47034 5.02063 1.30261Z" fill="#939598"/>
<path d="M2.67328 5.70807H5.31238C5.41327 5.2392 5.47186 4.74298 5.48566 4.23438H2.5C2.51379 4.74304 2.57239 5.2392 2.67328 5.70807Z" fill="#939598"/>
<path d="M5.31238 2.29199H2.67328C2.57239 2.76086 2.51379 3.25708 2.5 3.76569H5.48566C5.47186 3.25702 5.41327 2.76086 5.31238 2.29199Z" fill="#939598"/>
<path d="M2.96527 6.69733C3.16547 7.2168 3.41711 7.6543 3.7063 7.98975C3.80127 7.99646 3.89685 7.99994 3.99298 7.99994C4.08905 7.99994 4.18463 7.99646 4.2796 7.98975C4.56879 7.6543 4.82044 7.21686 5.02057 6.69733C5.08521 6.5296 5.14331 6.35571 5.19489 6.17676H2.79102C2.84259 6.35571 2.9007 6.5296 2.96527 6.69733Z" fill="#939598"/>
<path d="M5.79004 2.29187C5.88458 2.75989 5.94098 3.25537 5.95422 3.76556H7.98553C7.95587 3.24854 7.82843 2.74994 7.61163 2.2915C7.60937 2.29156 7.60718 2.29187 7.60492 2.29187H5.79004Z" fill="#939598"/>
<path d="M2.19556 5.70807C2.10095 5.24005 2.04456 4.74457 2.03131 4.23438H0C0.0296631 4.7514 0.157104 5.25 0.373901 5.70844C0.37616 5.70837 0.378357 5.70807 0.380615 5.70807H2.19556Z" fill="#939598"/>
<path d="M5.68048 6.17676C5.50598 6.82745 5.25427 7.41077 4.94043 7.88745C5.64667 7.71667 6.29456 7.35516 6.82135 6.82837C7.02209 6.62762 7.19861 6.40918 7.34997 6.17676H5.68048Z" fill="#939598"/>
<path d="M2.30524 1.82324C2.4798 1.17255 2.73145 0.589233 3.04529 0.112549C2.33911 0.283325 1.69116 0.644836 1.16431 1.17163C0.963623 1.37238 0.787109 1.59082 0.635742 1.82324H2.30524Z" fill="#939598"/>
<path d="M2.30524 6.17676H0.635742C0.787109 6.40918 0.963623 6.62762 1.16431 6.82837C1.69116 7.35516 2.33905 7.71667 3.04523 7.88745C2.73145 7.41077 2.4798 6.82745 2.30524 6.17676Z" fill="#939598"/>
<path d="M5.68048 1.82324H7.34997C7.19861 1.59082 7.02215 1.37238 6.82141 1.17163C6.29456 0.644836 5.64667 0.283325 4.94043 0.112549C5.25427 0.589233 5.50598 1.17255 5.68048 1.82324Z" fill="#939598"/>
<path d="M5.95422 4.23438C5.94098 4.74457 5.88464 5.24005 5.79004 5.70807H7.60492C7.60718 5.70807 7.60937 5.70837 7.61163 5.70844C7.82843 5.25 7.95587 4.7514 7.98553 4.23438H5.95422Z" fill="#939598"/>
<path d="M2.03131 3.76556C2.04456 3.25537 2.10095 2.75989 2.19556 2.29187H0.380615C0.378357 2.29187 0.37616 2.29156 0.373901 2.2915C0.157104 2.74994 0.0296631 3.24854 0 3.76556H2.03131Z" fill="#939598"/>
</g>
<defs>
<clipPath id="clip0">
<rect width="8" height="8" fill="white"/>
</clipPath>
</defs>
</svg>