<svg width="8" height="8" viewBox="0 0 8 8" fill="none" xmlns="http://www.w3.org/2000/svg">
<g clip-path="url(#clip0)">
<path d="M7.29733 0.953125H0.703578C0.595344 0.953125 0.494016 0.979734 0.402344 1.02359L3.98483 4.60608L4.78778 3.83441C4.78778 3.83441 4.78784 3.83433 4.78786 3.8343C4.78788 3.83427 4.78794 3.83423 4.78794 3.83423L7.59867 1.02366C7.50698 0.979766 7.40559 0.953125 7.29733 0.953125Z" fill="#939598"/>
<path d="M7.9302 1.35522L5.28516 4.00013L7.93011 6.64508C7.97397 6.55341 8.00058 6.45208 8.00058 6.34385V1.65635C8.00058 1.54818 7.97403 1.44687 7.9302 1.35522Z" fill="#939598"/>
<path d="M0.0704688 1.35498C0.0266094 1.44665 0 1.54798 0 1.65621V6.34371C0 6.45189 0.0265781 6.55323 0.0704063 6.64487L2.71545 3.99996L0.0704688 1.35498Z" fill="#939598"/>
<path d="M4.95372 4.33157L4.15066 5.10334C4.10487 5.14912 4.04491 5.17201 3.98495 5.17201C3.925 5.17201 3.86502 5.14912 3.81925 5.10334L3.04744 4.33154L0.402344 6.97646C0.494031 7.02036 0.595422 7.047 0.703687 7.047H7.29744C7.40567 7.047 7.507 7.02039 7.59867 6.97653L4.95372 4.33157Z" fill="#939598"/>
</g>
<defs>
<clipPath id="clip0">
<rect width="8" height="8" fill="white"/>
</clipPath>
</defs>
</svg>