<svg width="8" height="8" viewBox="0 0 8 8" fill="none" xmlns="http://www.w3.org/2000/svg">
<path d="M3.99992 0C2.38721 0 1.0752 1.3356 1.0752 2.97727C1.0752 3.89555 1.53963 5.01014 2.45565 6.29004C3.126 7.22673 3.78656 7.89477 3.81436 7.92277C3.86545 7.9742 3.93267 8 3.99997 8C4.06531 8 4.1307 7.97566 4.18139 7.92683C4.20925 7.9 4.87148 7.25901 5.54309 6.33526C6.45985 5.07431 6.92468 3.94452 6.92468 2.97726C6.92464 1.3356 5.61259 0 3.99992 0ZM3.99992 4.2626C3.21148 4.2626 2.57006 3.62116 2.57006 2.83274C2.57006 2.04432 3.2115 1.40288 3.99992 1.40288C4.78834 1.40288 5.42978 2.04432 5.42978 2.83274C5.42978 3.62116 4.78833 4.2626 3.99992 4.2626Z" fill="#939598"/>
</svg>