<svg width="16" height="16" viewBox="0 0 16 16" fill="none" xmlns="http://www.w3.org/2000/svg">
<path d="M0 3C0 1.34315 1.34315 0 3 0H13C14.6569 0 16 1.34315 16 3V13C16 14.6569 14.6569 16 13 16H3C1.34315 16 0 14.6569 0 13V3Z" fill="#284F8C"/>
<g clip-path="url(#clip0)">
<path d="M9.02063 5.30261C8.82043 4.78314 8.56879 4.34564 8.2796 4.01019C8.18463 4.00348 8.08905 4 7.99298 4C7.89685 4 7.80127 4.00348 7.70636 4.01019C7.41711 4.34564 7.16547 4.78308 6.96533 5.30261C6.9007 5.47034 6.84259 5.64423 6.79102 5.82318H9.19495C9.14331 5.64423 9.08521 5.47034 9.02063 5.30261Z" fill="white"/>
<path d="M6.67328 9.70807H9.31238C9.41327 9.2392 9.47186 8.74298 9.48566 8.23438H6.5C6.51379 8.74304 6.57239 9.2392 6.67328 9.70807Z" fill="white"/>
<path d="M9.31238 6.29199H6.67328C6.57239 6.76086 6.51379 7.25708 6.5 7.76569H9.48566C9.47186 7.25702 9.41327 6.76086 9.31238 6.29199Z" fill="white"/>
<path d="M6.96527 10.6973C7.16547 11.2168 7.41711 11.6543 7.7063 11.9897C7.80127 11.9965 7.89685 11.9999 7.99298 11.9999C8.08905 11.9999 8.18463 11.9965 8.2796 11.9897C8.56879 11.6543 8.82044 11.2169 9.02057 10.6973C9.08521 10.5296 9.14331 10.3557 9.19489 10.1768H6.79102C6.84259 10.3557 6.9007 10.5296 6.96527 10.6973Z" fill="white"/>
<path d="M9.79004 6.29187C9.88458 6.75989 9.94098 7.25537 9.95422 7.76556H11.9855C11.9559 7.24854 11.8284 6.74994 11.6116 6.2915C11.6094 6.29156 11.6072 6.29187 11.6049 6.29187H9.79004Z" fill="white"/>
<path d="M6.19556 9.70807C6.10095 9.24005 6.04456 8.74457 6.03131 8.23438H4C4.02966 8.7514 4.1571 9.25 4.3739 9.70844C4.37616 9.70837 4.37836 9.70807 4.38062 9.70807H6.19556Z" fill="white"/>
<path d="M9.68048 10.1768C9.50598 10.8275 9.25427 11.4108 8.94043 11.8875C9.64667 11.7167 10.2946 11.3552 10.8213 10.8284C11.0221 10.6276 11.1986 10.4092 11.35 10.1768H9.68048Z" fill="white"/>
<path d="M6.30524 5.82324C6.4798 5.17255 6.73145 4.58923 7.04529 4.11255C6.33911 4.28333 5.69116 4.64484 5.16431 5.17163C4.96362 5.37238 4.78711 5.59082 4.63574 5.82324H6.30524Z" fill="white"/>
<path d="M6.30524 10.1768H4.63574C4.78711 10.4092 4.96362 10.6276 5.16431 10.8284C5.69116 11.3552 6.33905 11.7167 7.04523 11.8875C6.73145 11.4108 6.4798 10.8275 6.30524 10.1768Z" fill="white"/>
<path d="M9.68048 5.82324H11.35C11.1986 5.59082 11.0222 5.37238 10.8214 5.17163C10.2946 4.64484 9.64667 4.28333 8.94043 4.11255C9.25427 4.58923 9.50598 5.17255 9.68048 5.82324Z" fill="white"/>
<path d="M9.95422 8.23438C9.94098 8.74457 9.88464 9.24005 9.79004 9.70807H11.6049C11.6072 9.70807 11.6094 9.70837 11.6116 9.70844C11.8284 9.25 11.9559 8.7514 11.9855 8.23438H9.95422Z" fill="white"/>
<path d="M6.03131 7.76556C6.04456 7.25537 6.10095 6.75989 6.19556 6.29187H4.38062C4.37836 6.29187 4.37616 6.29156 4.3739 6.2915C4.1571 6.74994 4.02966 7.24854 4 7.76556H6.03131Z" fill="white"/>
</g>
<defs>
<clipPath id="clip0">
<rect width="8" height="8" fill="white" transform="translate(4 4)"/>
</clipPath>
</defs>
</svg>