<svg width="255" height="69" viewBox="0 0 255 69" fill="none" xmlns="http://www.w3.org/2000/svg">
<path d="M74.8372 48.3415H73.3382L71.9097 43.3371C71.8493 43.1202 71.7714 42.8049 71.6783 42.3937C71.5852 41.9826 71.5299 41.6976 71.5123 41.5361C71.4746 41.7808 71.4117 42.0986 71.3262 42.4896C71.2407 42.8806 71.1678 43.1706 71.1099 43.3623L69.7141 48.3415H68.2151L67.1261 44.1418L66.0195 39.9546H67.4254L68.6301 44.843C68.8187 45.6274 68.952 46.3186 69.0325 46.9214C69.0753 46.596 69.1381 46.2328 69.2237 45.8318C69.3092 45.4307 69.3846 45.1053 69.455 44.8556L70.8257 39.9571H72.1914L73.5973 44.8783C73.7306 45.3323 73.8739 46.0134 74.0248 46.9214C74.0827 46.3741 74.221 45.6779 74.4398 44.8329L75.6394 39.9571H77.0353L74.8372 48.3415Z" fill="white"/>
<path d="M85.931 48.3415H81.165V39.9546H85.931V41.1124H82.5408V43.3951H85.7172V44.5428H82.5408V47.1762H85.931V48.3415Z" fill="white"/>
<path d="M95.9185 48.3415L95.076 46.0133H91.8542L91.0293 48.3415H89.5781L92.7294 39.9192H94.2284L97.3797 48.3415H95.9185ZM94.7138 44.8303L93.9241 42.5475C93.8662 42.3937 93.7858 42.154 93.6852 41.8236C93.5846 41.4957 93.5141 41.2535 93.4739 41.0997C93.3708 41.5714 93.2174 42.0859 93.0187 42.6434L92.2591 44.8278H94.7138V44.8303Z" fill="white"/>
<path d="M101.434 48.3415V39.9546H102.809V47.1661H106.378V48.3415H101.434Z" fill="white"/>
<path d="M113.679 48.3415H112.301V41.13H109.823V39.9546H116.156V41.13H113.679V48.3415Z" fill="white"/>
<path d="M127.031 48.3415H125.648V44.5605H121.765V48.3415H120.387V39.9546H121.765V43.385H125.648V39.9546H127.031V48.3415Z" fill="white"/>
<path d="M141.837 48.3415L139.392 41.3369H139.347C139.413 42.3761 139.445 43.3522 139.445 44.2628V48.3415H138.195V39.9546H140.137L142.476 46.6263H142.511L144.92 39.9546H146.867V48.3415H145.542V44.1922C145.542 43.776 145.552 43.2312 145.574 42.5627C145.594 41.8943 145.615 41.4882 145.63 41.3469H145.584L143.054 48.3415H141.837Z" fill="white"/>
<path d="M157.252 48.3415L156.409 46.0133H153.19L152.365 48.3415H150.914L154.065 39.9192H155.564L158.716 48.3415H157.252ZM156.047 44.8303L155.258 42.5475C155.2 42.3937 155.119 42.154 155.019 41.8236C154.918 41.4957 154.848 41.2535 154.807 41.0997C154.704 41.5714 154.551 42.0859 154.352 42.6434L153.593 44.8278H156.047V44.8303Z" fill="white"/>
<path d="M169.787 48.3415H168.099L163.955 41.6572H163.909L163.937 42.0305C163.99 42.7418 164.018 43.3926 164.018 43.9828V48.3441H162.768V39.9546H164.438L168.57 46.6036H168.605C168.597 46.5153 168.582 46.195 168.56 45.6426C168.537 45.0902 168.524 44.6588 168.524 44.3486V39.9546H169.787V48.3415Z" fill="white"/>
<path d="M180.176 48.3415L179.333 46.0133H176.111L175.287 48.3415H173.838L176.989 39.9192H178.488L181.639 48.3415H180.176ZM178.971 44.8303L178.181 42.5475C178.123 42.3937 178.043 42.154 177.942 41.8236C177.839 41.4957 177.771 41.2535 177.731 41.0997C177.628 41.5714 177.475 42.0859 177.276 42.6434L176.516 44.8278H178.971V44.8303Z" fill="white"/>
<path d="M189.137 43.7911H192.238V48.0035C191.73 48.1675 191.244 48.2835 190.777 48.3541C190.309 48.4222 189.806 48.4576 189.263 48.4576C187.988 48.4576 187.004 48.0817 186.313 47.3301C185.621 46.5784 185.276 45.519 185.276 44.1493C185.276 42.7998 185.666 41.7429 186.446 40.9787C187.225 40.2169 188.299 39.8335 189.668 39.8335C190.548 39.8335 191.38 40.0025 192.17 40.338L191.687 41.4806C191.003 41.1678 190.319 41.0089 189.635 41.0089C188.735 41.0089 188.025 41.2914 187.502 41.8514C186.979 42.4139 186.717 43.1832 186.717 44.1569C186.717 45.181 186.954 45.9604 187.424 46.4951C187.894 47.0299 188.571 47.2947 189.456 47.2947C189.901 47.2947 190.377 47.2392 190.885 47.1283V44.964H189.139V43.7911H189.137Z" fill="white"/>
<path d="M201.966 48.3415H197.2V39.9546H201.966V41.1124H198.578V43.3951H201.752V44.5428H198.578V47.1762H201.966V48.3415Z" fill="white"/>
<path d="M210.369 48.3415L207.925 41.3369H207.879C207.945 42.3761 207.978 43.3522 207.978 44.2628V48.3415H206.728V39.9546H208.669L211.008 46.6263H211.043L213.453 39.9546H215.399V48.3415H214.074V44.1922C214.074 43.776 214.084 43.2312 214.107 42.5627C214.127 41.8943 214.147 41.4882 214.162 41.3469H214.117L211.587 48.3415H210.369Z" fill="white"/>
<path d="M225.323 48.3415H220.557V39.9546H225.323V41.1124H221.935V43.3951H225.109V44.5428H221.935V47.1762H225.323V48.3415Z" fill="white"/>
<path d="M237.103 48.3415H235.416L231.271 41.6572H231.226L231.253 42.0305C231.306 42.7418 231.334 43.3926 231.334 43.9828V48.3441H230.084V39.9546H231.754L235.886 46.6036H235.921C235.914 46.5153 235.899 46.195 235.876 45.6426C235.853 45.0902 235.841 44.6588 235.841 44.3486V39.9546H237.103V48.3415Z" fill="white"/>
<path d="M245.177 48.3415H243.799V41.13H241.321V39.9546H247.654V41.13H245.177V48.3415Z" fill="white"/>
<path d="M70.8785 15.8184H66.0195V33.5558H70.8785V15.8184Z" fill="white"/>
<path d="M92.1729 28.0793C92.1729 29.1488 91.8987 30.0997 91.3555 30.9296C90.8097 31.7595 90.0226 32.4052 88.9939 32.8643C87.9653 33.3234 86.7606 33.5554 85.3773 33.5554C84.2229 33.5554 83.2547 33.4747 82.47 33.3133C81.6878 33.1518 80.8729 32.8718 80.0254 32.4708V28.3164C80.9182 28.773 81.8488 29.1286 82.812 29.3834C83.7778 29.6381 84.6631 29.7668 85.4704 29.7668C86.167 29.7668 86.6751 29.6457 86.9995 29.4061C87.3239 29.1665 87.4849 28.8562 87.4849 28.4804C87.4849 28.2433 87.4195 28.0364 87.2887 27.8599C87.158 27.6833 86.9492 27.5042 86.66 27.3226C86.3708 27.141 85.6012 26.7727 84.3537 26.2127C83.222 25.7007 82.3744 25.2063 81.8085 24.727C81.2427 24.2478 80.8252 23.6954 80.551 23.0749C80.2794 22.4544 80.1411 21.7178 80.1411 20.8678C80.1411 19.2787 80.7221 18.0402 81.884 17.1498C83.0459 16.2619 84.6429 15.8154 86.6776 15.8154C88.4733 15.8154 90.3017 16.2291 92.1704 17.0539L90.7343 20.6534C89.1121 19.9143 87.7138 19.5435 86.5342 19.5435C85.9256 19.5435 85.483 19.6495 85.2063 19.8613C84.9297 20.0732 84.7913 20.3381 84.7913 20.6509C84.7913 20.9889 84.9674 21.2915 85.3195 21.5589C85.6716 21.8263 86.6273 22.3156 88.1841 23.0219C89.678 23.6903 90.7167 24.4092 91.2977 25.176C91.8837 25.9479 92.1729 26.914 92.1729 28.0793Z" fill="white"/>
<path d="M112.253 33.5553H101.71L101.7 15.8179H112.253V19.7099H106.521V22.4366H111.723V26.3287H106.521V29.6582H112.253V33.5553Z" fill="white"/>
<path d="M129.32 19.6418C128.208 19.6418 127.34 20.0958 126.719 21.0039C126.095 21.912 125.784 23.1656 125.784 24.7623C125.784 28.0817 127.049 29.7415 129.579 29.7415C130.343 29.7415 131.085 29.6355 131.802 29.4236C132.519 29.2118 133.241 28.957 133.965 28.6568V32.5993C132.521 33.2375 130.892 33.5553 129.071 33.5553C126.463 33.5553 124.461 32.8011 123.07 31.2902C121.679 29.7793 120.982 27.5974 120.982 24.7396C120.982 22.9537 121.319 21.3848 121.993 20.0303C122.667 18.6783 123.636 17.6365 124.903 16.9101C126.168 16.1811 127.655 15.8179 129.367 15.8179C131.236 15.8179 132.265 16.2845 133.967 17.0942V21.0115C133.329 20.7113 132.016 20.1513 131.377 19.947C130.738 19.7427 130.052 19.6418 129.32 19.6418Z" fill="white"/>
<path d="M16.3223 42.9814V54.1834L30.4064 63.7685L38.6305 58.1688L35.1346 55.7977L28.8471 58.1688L24.0434 54.9149L28.9477 51.5853L16.3223 42.9814Z" fill="#941914"/>
<path d="M44.4901 54.1834L40.114 57.1598L35.3354 53.9311L29.0731 56.3022L27.0107 54.9149L44.4901 43.0042V54.1834Z" fill="#B1191A"/>
<path d="M30.4065 50.5511V42.8831L23.3896 45.7838L30.4065 50.5511Z" fill="#941914"/>
<path d="M30.4062 50.5511V42.8831L37.4231 45.7838L30.4062 50.5511Z" fill="#B1191A"/>
<path d="M16.3223 40.9661L21.4529 44.447L29.5009 39.8563V36.9051L24.9488 34.08L24.0685 30.0442L16.3223 24.7976V40.9661Z" fill="#941914"/>
<path d="M44.4902 40.9661L39.3596 44.447L31.3115 39.8563V36.9051L35.8637 34.08L36.744 30.0442L44.4902 24.7976V40.9661Z" fill="#B1191A"/>
<path d="M16.3223 22.7544C16.3223 22.7544 20.3035 22.1466 23.8925 25.3273C27.001 28.0817 27.7153 32.163 27.7153 32.163H30.4064V15.8179H16.3223V22.7544Z" fill="#941914"/>
<path d="M44.4903 22.7544C44.4903 22.7544 40.5091 22.1466 36.9201 25.3273C33.8116 28.0817 33.0722 32.163 33.0722 32.163H30.4062V15.8179H44.4903V22.7544Z" fill="#B1191A"/>
<path d="M52.9158 17.0261L46.1504 21.6194V15.8179H52.9158V17.0261Z" fill="#B1191A"/>
<path d="M52.9158 37.2532L46.1504 41.8742V53.0484L52.9158 48.4576V37.2532Z" fill="#B1191A"/>
<path d="M52.9158 28.1523L46.1504 32.7431V39.831L52.9158 35.215V28.1523Z" fill="#B1191A"/>
<path d="M52.9158 19.0466L46.1504 23.6626V30.7253L52.9158 26.1093V19.0466Z" fill="#B1191A"/>
<path d="M7.89746 17.0261L14.6629 21.6194V15.8179H7.89746V17.0261Z" fill="#941914"/>
<path d="M7.89746 37.2532L14.6629 41.8742V53.0484L7.89746 48.4576V37.2532Z" fill="#941914"/>
<path d="M7.89746 28.1523L14.6629 32.7431V39.831L7.89746 35.215V28.1523Z" fill="#941914"/>
<path d="M7.89746 19.0466L14.6629 23.6626V30.7253L7.89746 26.1093V19.0466Z" fill="#941914"/>
<path d="M26.3572 10.6723H23.3895L21.8553 7.36793H16.3223V14.1532H30.4064V5.37524L25.6756 7.36036L26.3572 10.6723Z" fill="#941914"/>
<path d="M34.4554 10.6723H37.4231L38.9573 7.36793H44.4903V14.1532H30.4062V5.37524L35.137 7.36036L34.4554 10.6723Z" fill="#B1191A"/>
</svg>