<svg width="41" height="40" viewBox="0 0 41 40" fill="none" xmlns="http://www.w3.org/2000/svg">
<g clip-path="url(#clip0)">
<path d="M30.4746 30.8835L29.7678 30.1781L30.2407 29.7067C30.2407 29.7028 30.2447 29.698 30.2479 29.6947L31.6555 28.2901L32.1278 28.7621C32.3888 29.0222 32.8119 29.0222 33.0725 28.7621L36.8519 24.9906C37.1125 24.7305 37.1125 24.3083 36.8519 24.0479L28.3488 15.5648C28.0836 15.3145 27.669 15.3145 27.4041 15.5648L23.6248 19.336C23.3641 19.5964 23.3641 20.0183 23.6248 20.2787L24.0971 20.75L22.8213 22.0235L21.7977 22.2266L19.8457 20.2787C19.7205 20.1537 19.5505 20.0834 19.3734 20.0834H16.816L15.594 18.8646C15.855 18.6045 15.855 18.1823 15.594 17.9219L11.8156 14.1501C11.6904 14.0248 11.5204 13.9545 11.343 13.9545C11.1655 13.9545 10.9956 14.0248 10.8703 14.1501L3.31193 21.6927C3.05097 21.9532 3.05097 22.375 3.31193 22.6355L7.09129 26.4066C7.35192 26.667 7.775 26.667 8.03564 26.4066L12.3735 30.7354C12.0822 31.3363 12.1128 32.043 12.4553 32.6163C12.7978 33.1895 13.4062 33.5528 14.0743 33.5827C14.117 34.6068 14.94 35.4265 15.9662 35.4675C16.0099 36.4886 16.8297 37.3064 17.853 37.35C17.895 38.1358 18.3958 38.8233 19.1313 39.1062C19.8673 39.3887 20.7007 39.2139 21.2601 38.6592L21.9703 39.3679C22.5274 39.9314 23.3661 40.112 24.1069 39.8285C24.8477 39.5446 25.3497 38.8503 25.3859 38.0593C26.4108 38.0173 27.2319 37.1976 27.274 36.1748C28.2992 36.1316 29.1209 35.3119 29.1643 34.2888C29.954 34.251 30.6469 33.7517 30.931 33.0157C31.2154 32.2793 31.0373 31.4454 30.4772 30.8887L30.4746 30.8835ZM27.8764 16.9766L35.4348 24.5215L32.6008 27.35L25.0418 19.8073L27.8764 16.9766ZM30.7111 27.35L29.7665 28.2927L24.0977 22.6361L25.0418 21.6934L30.7111 27.35ZM24.3336 26.6433C24.5945 26.9037 24.5945 27.3256 24.3336 27.586C24.0697 27.8389 23.6531 27.8389 23.3892 27.586L20.5546 24.7582C20.2936 24.4978 19.8708 24.4978 19.6099 24.7582C18.827 25.5398 17.5574 25.5398 16.7745 24.7582L15.8328 25.6999C16.0752 25.9375 16.3528 26.1368 16.6558 26.2907L13.234 29.7054L10.8703 27.35L16.816 21.4167H19.0968L24.3336 26.6433ZM7.56558 24.9935L4.72895 22.1641L11.3427 15.5642L14.1773 18.3926L7.56558 24.9935ZM14.6516 19.808L15.595 20.75L9.92499 26.4066L8.98031 25.4639L14.6516 19.808ZM19.8412 37.9102C19.666 37.9108 19.4973 37.8422 19.3734 37.7188C19.1167 37.4616 19.1134 37.0466 19.3659 36.7855L20.7464 35.4079L21.2614 34.8952L20.3181 33.9499L19.8017 34.4655L18.4235 35.8353L18.4173 35.8428C18.1514 36.0795 17.746 36.0661 17.4964 35.8122C17.2466 35.5586 17.2404 35.154 17.4821 34.8926L19.3734 33.0066L18.4287 32.0642L16.5394 33.9499C16.2787 34.2107 15.8556 34.2107 15.5944 33.9502C15.3334 33.6901 15.3334 33.2679 15.594 33.0075L17.484 31.1221L16.5394 30.1794L14.649 32.0648C14.3848 32.3168 13.9689 32.3168 13.705 32.0648C13.444 31.8044 13.444 31.3825 13.705 31.1221L15.122 29.7074L18.171 26.6635C18.8329 26.6732 19.483 26.4854 20.0375 26.1241L22.4465 28.528C23.2398 29.2836 24.4879 29.2836 25.2809 28.528C26.0634 27.7471 26.0634 26.4812 25.2809 25.6999L22.9361 23.3601L28.8257 29.2367L28.6254 29.4366C28.0435 29.2758 27.4198 29.3887 26.9311 29.7429C26.4428 30.0974 26.143 30.6547 26.1169 31.2566C25.0848 31.3002 24.2608 32.1299 24.2269 33.1602C23.2017 33.1856 22.3741 34.0039 22.3389 35.0267C21.7364 35.0525 21.1786 35.3506 20.8233 35.8366C20.4678 36.3226 20.3536 36.9437 20.5131 37.5241L20.3125 37.724C20.1866 37.8461 20.0167 37.9131 19.8412 37.9102ZM23.8612 38.4281C23.5974 38.6801 23.1811 38.6801 22.9169 38.4281L21.9716 37.4834C21.7377 37.2194 21.7501 36.8197 21.9996 36.5707C22.2488 36.3217 22.6494 36.309 22.914 36.542L23.8612 37.4834C23.9875 37.6078 24.0579 37.7774 24.0573 37.9541C24.0579 38.1319 23.9875 38.3025 23.8612 38.4281ZM25.7506 36.542C25.4896 36.8025 25.0669 36.8025 24.8059 36.542L23.8612 35.5993C23.736 35.4743 23.6655 35.3047 23.6655 35.1276C23.6655 34.9509 23.736 34.781 23.8612 34.656C23.9859 34.5303 24.1558 34.46 24.3329 34.4607C24.5101 34.4607 24.68 34.531 24.8053 34.656L25.7499 35.5987C25.8755 35.7237 25.946 35.8933 25.9463 36.0704C25.9463 36.2471 25.8762 36.417 25.7506 36.542ZM27.6393 34.656C27.3754 34.9079 26.9592 34.9079 26.6953 34.656L25.7506 33.7133C25.4975 33.4519 25.5011 33.0358 25.7588 32.7787C26.0165 32.5215 26.433 32.5179 26.6953 32.7705L27.64 33.7133C27.7652 33.8383 27.8357 34.0079 27.8357 34.1846C27.8363 34.3617 27.7655 34.5316 27.6393 34.656ZM29.53 32.7705C29.4047 32.8959 29.2344 32.9662 29.0573 32.9662C28.8798 32.9662 28.7099 32.8959 28.5846 32.7705L27.64 31.8282C27.3787 31.5674 27.3783 31.1449 27.6393 30.8842C27.9003 30.6231 28.324 30.6228 28.5853 30.8835L29.528 31.8282C29.7886 32.0883 29.7886 32.5105 29.528 32.7705H29.53Z" fill="white"/>
<path d="M39.4154 4.08362H26.7223V0.750285C26.7223 0.382121 26.4232 0.0836182 26.0543 0.0836182H14.0292C13.6603 0.0836182 13.3612 0.382121 13.3612 0.750285V4.08362H0.668059C0.299126 4.08362 6.25804e-07 4.38212 6.25804e-07 4.75029V11.417C-0.000325575 11.6556 0.126893 11.8763 0.33403 11.9957L1.33612 12.5657V30.7503C1.33612 31.8548 2.23349 32.7503 3.34029 32.7503H10.6889V31.417H3.34029C2.97136 31.417 2.67223 31.1185 2.67223 30.7503V13.3278L5.01044 14.6611C5.11189 14.7194 5.22736 14.7503 5.34447 14.7503H9.35282V13.417H5.52225L1.33612 11.0302V5.41695H38.7474V11.0302L34.5613 13.417H13.3612V14.7503H34.739C34.8561 14.7506 34.9713 14.7203 35.0731 14.6624L37.4113 13.3291V30.7503C37.4113 31.1185 37.1121 31.417 36.7432 31.417H32.0668V32.7503H36.7432C37.85 32.7503 38.7474 31.8548 38.7474 30.7503V12.5657L39.7495 11.9957C39.9566 11.8763 40.0838 11.6556 40.0835 11.417V4.75029C40.0835 4.38212 39.7844 4.08362 39.4154 4.08362ZM14.6973 1.41695H25.3862V4.08362H14.6973V1.41695Z" fill="white"/>
<path d="M4.00799 34.0833H2.67188V38.0833C2.67188 38.4514 2.971 38.7499 3.33993 38.7499H10.0205V37.4166H4.00799V34.0833Z" fill="white"/>
<path d="M11.3574 37.4167H12.6935V38.7501H11.3574V37.4167Z" fill="white"/>
<path d="M14.0293 37.4167H15.3654V38.7501H14.0293V37.4167Z" fill="white"/>
<path d="M36.743 37.4166H30.7305V38.7499H37.411C37.78 38.7499 38.0791 38.4514 38.0791 38.0833V34.0833H36.743V37.4166Z" fill="white"/>
<path d="M28.0586 37.4167H29.3947V38.7501H28.0586V37.4167Z" fill="white"/>
</g>
<defs>
<clipPath id="clip0">
<rect width="40.0835" height="40" fill="white"/>
</clipPath>
</defs>
</svg>