<svg width="16" height="16" viewBox="0 0 16 16" fill="none" xmlns="http://www.w3.org/2000/svg">
<path d="M0 3C0 1.34315 1.34315 0 3 0H13C14.6569 0 16 1.34315 16 3V13C16 14.6569 14.6569 16 13 16H3C1.34315 16 0 14.6569 0 13V3Z" fill="#284F8C"/>
<path d="M7.99992 4C6.38721 4 5.0752 5.3356 5.0752 6.97727C5.0752 7.89555 5.53963 9.01014 6.45565 10.29C7.126 11.2267 7.78656 11.8948 7.81436 11.9228C7.86545 11.9742 7.93267 12 7.99997 12C8.06531 12 8.1307 11.9757 8.18139 11.9268C8.20925 11.9 8.87148 11.259 9.54309 10.3353C10.4598 9.07431 10.9247 7.94452 10.9247 6.97726C10.9246 5.3356 9.61259 4 7.99992 4ZM7.99992 8.2626C7.21148 8.2626 6.57006 7.62116 6.57006 6.83274C6.57006 6.04432 7.2115 5.40288 7.99992 5.40288C8.78834 5.40288 9.42978 6.04432 9.42978 6.83274C9.42978 7.62116 8.78833 8.2626 7.99992 8.2626Z" fill="white"/>
</svg>