<svg width="46" height="59" viewBox="0 0 46 59" fill="none" xmlns="http://www.w3.org/2000/svg">
<path d="M9.32227 37.9814V49.1834L23.4064 58.7685L31.6305 53.1688L28.1346 50.7977L21.8471 53.1688L17.0434 49.9149L21.9477 46.5853L9.32227 37.9814Z" fill="#941914"/>
<path d="M37.4901 49.1834L33.114 52.1598L28.3354 48.9311L22.0731 51.3022L20.0107 49.9149L37.4901 38.0042V49.1834Z" fill="#B1191A"/>
<path d="M23.4065 45.5511V37.8831L16.3896 40.7838L23.4065 45.5511Z" fill="#941914"/>
<path d="M23.4062 45.5511V37.8831L30.4231 40.7838L23.4062 45.5511Z" fill="#B1191A"/>
<path d="M9.32227 35.9661L14.4529 39.447L22.5009 34.8563V31.9051L17.9488 29.08L17.0685 25.0442L9.32227 19.7976V35.9661Z" fill="#941914"/>
<path d="M37.4902 35.9661L32.3596 39.447L24.3115 34.8563V31.9051L28.8637 29.08L29.744 25.0442L37.4902 19.7976V35.9661Z" fill="#B1191A"/>
<path d="M9.32227 17.7544C9.32227 17.7544 13.3035 17.1466 16.8925 20.3273C20.001 23.0817 20.7153 27.163 20.7153 27.163H23.4064V10.8179H9.32227V17.7544Z" fill="#941914"/>
<path d="M37.4903 17.7544C37.4903 17.7544 33.5091 17.1466 29.9201 20.3273C26.8116 23.0817 26.0722 27.163 26.0722 27.163H23.4062V10.8179H37.4903V17.7544Z" fill="#B1191A"/>
<path d="M45.9158 12.0261L39.1504 16.6194V10.8179H45.9158V12.0261Z" fill="#B1191A"/>
<path d="M45.9158 32.2532L39.1504 36.8742V48.0484L45.9158 43.4576V32.2532Z" fill="#B1191A"/>
<path d="M45.9158 23.1523L39.1504 27.7431V34.831L45.9158 30.215V23.1523Z" fill="#B1191A"/>
<path d="M45.9158 14.0466L39.1504 18.6626V25.7253L45.9158 21.1093V14.0466Z" fill="#B1191A"/>
<path d="M0.897461 12.0261L7.66286 16.6194V10.8179H0.897461V12.0261Z" fill="#941914"/>
<path d="M0.897461 32.2532L7.66286 36.8742V48.0484L0.897461 43.4576V32.2532Z" fill="#941914"/>
<path d="M0.897461 23.1523L7.66286 27.7431V34.831L0.897461 30.215V23.1523Z" fill="#941914"/>
<path d="M0.897461 14.0466L7.66286 18.6626V25.7253L0.897461 21.1093V14.0466Z" fill="#941914"/>
<path d="M19.3572 5.67226H16.3895L14.8553 2.36793H9.32227V9.15316H23.4064V0.375244L18.6756 2.36036L19.3572 5.67226Z" fill="#941914"/>
<path d="M27.4554 5.67226H30.4231L31.9573 2.36793H37.4903V9.15316H23.4062V0.375244L28.137 2.36036L27.4554 5.67226Z" fill="#B1191A"/>
</svg>