<svg width="16" height="16" viewBox="0 0 16 16" fill="none" xmlns="http://www.w3.org/2000/svg">
<path d="M0 3C0 1.34315 1.34315 0 3 0H13C14.6569 0 16 1.34315 16 3V13C16 14.6569 14.6569 16 13 16H3C1.34315 16 0 14.6569 0 13V3Z" fill="#284F8C"/>
<g clip-path="url(#clip0)">
<path d="M11.2973 4.95312H4.70358C4.59534 4.95312 4.49402 4.97973 4.40234 5.02359L7.98483 8.60608L8.78778 7.83441C8.78778 7.83441 8.78784 7.83433 8.78786 7.8343C8.78788 7.83427 8.78794 7.83423 8.78794 7.83423L11.5987 5.02366C11.507 4.97977 11.4056 4.95312 11.2973 4.95312Z" fill="white"/>
<path d="M11.9302 5.35522L9.28516 8.00013L11.9301 10.6451C11.974 10.5534 12.0006 10.4521 12.0006 10.3438V5.65635C12.0006 5.54818 11.974 5.44687 11.9302 5.35522Z" fill="white"/>
<path d="M4.07047 5.35498C4.02661 5.44665 4 5.54798 4 5.65621V10.3437C4 10.4519 4.02658 10.5532 4.07041 10.6449L6.71545 7.99996L4.07047 5.35498Z" fill="white"/>
<path d="M8.95372 8.33157L8.15066 9.10334C8.10487 9.14912 8.04491 9.17201 7.98495 9.17201C7.925 9.17201 7.86502 9.14912 7.81925 9.10334L7.04744 8.33154L4.40234 10.9765C4.49403 11.0204 4.59542 11.047 4.70369 11.047H11.2974C11.4057 11.047 11.507 11.0204 11.5987 10.9765L8.95372 8.33157Z" fill="white"/>
</g>
<defs>
<clipPath id="clip0">
<rect width="8" height="8" fill="white" transform="translate(4 4)"/>
</clipPath>
</defs>
</svg>