<svg width="302" height="255" viewBox="0 0 302 255" fill="none" xmlns="http://www.w3.org/2000/svg">
<path d="M115.739 51.3276C125.035 34.8172 143.172 25.3196 162.037 27.0843L205.789 31.177L248.867 39.8467C267.442 43.5849 282.08 57.9 286.231 76.3868L295.858 119.262L300.925 162.911C303.11 181.732 294.018 200.077 277.719 209.737L239.918 232.143L199.971 250.45C182.746 258.343 162.49 255.366 148.265 242.85L115.275 213.822L85.5197 181.487C72.6897 167.545 69.2618 147.36 76.7697 129.964L94.1821 89.6188L115.739 51.3276Z" fill="#EAF3FF"/>
<path d="M31.2549 140.396V182.216L83.5005 218L114.008 197.095L101.04 188.243L77.7162 197.095L59.8967 184.947L78.0894 172.517L31.2549 140.396Z" fill="#941914"/>
<path d="M135.746 182.216L119.512 193.328L101.786 181.274L78.5555 190.126L70.9053 184.947L135.746 140.481V182.216Z" fill="#B1191A"/>
<path d="M83.5012 168.656V140.029L57.4717 150.858L83.5012 168.656Z" fill="#941914"/>
<path d="M83.5 168.656V140.029L109.529 150.858L83.5 168.656Z" fill="#B1191A"/>
<path d="M31.2549 132.872L50.2872 145.867L80.1418 128.729V117.711L63.2553 107.164L59.99 92.0973L31.2549 72.5103V132.872Z" fill="#941914"/>
<path d="M135.746 132.872L116.714 145.867L86.8594 128.729V117.711L103.746 107.164L107.011 92.0973L135.746 72.5103V132.872Z" fill="#B1191A"/>
<path d="M31.2549 64.8825C31.2549 64.8825 46.0236 62.6131 59.3369 74.4877C70.8683 84.7709 73.5179 100.007 73.5179 100.007H83.5005V38.9862H31.2549V64.8825Z" fill="#941914"/>
<path d="M135.746 64.8825C135.746 64.8825 120.977 62.6131 107.664 74.4877C96.1322 84.7709 93.3893 100.007 93.3893 100.007H83.5V38.9862H135.746V64.8825Z" fill="#B1191A"/>
<path d="M167 43.4969L141.903 60.6449V38.9862H167V43.4969Z" fill="#B1191A"/>
<path d="M167 119.01L141.903 136.262V177.979L167 160.84V119.01Z" fill="#B1191A"/>
<path d="M167 85.0346L141.903 102.173V128.635L167 111.402V85.0346Z" fill="#B1191A"/>
<path d="M167 51.0399L141.903 68.2728V94.6399L167 77.4071V51.0399Z" fill="#B1191A"/>
<path d="M0 43.4969L25.0966 60.6449V38.9862H0V43.4969Z" fill="#941914"/>
<path d="M0 119.01L25.0966 136.262V177.979L0 160.84V119.01Z" fill="#941914"/>
<path d="M0 85.0346L25.0966 102.173V128.635L0 111.402V85.0346Z" fill="#941914"/>
<path d="M0 51.0399L25.0966 68.2728V94.6399L0 77.4071V51.0399Z" fill="#941914"/>
<path d="M68.4799 19.7754H57.471L51.78 7.4393H31.2549V32.7706H83.5005V0L65.9516 7.41105L68.4799 19.7754Z" fill="#941914"/>
<path d="M98.5206 19.7754H109.529L115.221 7.4393H135.746V32.7706H83.5V0L101.049 7.41105L98.5206 19.7754Z" fill="#B1191A"/>
</svg>