<svg width="40" height="42" viewBox="0 0 40 42" fill="none" xmlns="http://www.w3.org/2000/svg">
<path d="M38.2918 12.9165H31.3842V2.72449C31.3842 1.2222 30.2008 0 28.7461 0H7.24748C5.79282 0 4.60937 1.2222 4.60937 2.72449V2.92781H1.05485C0.473206 2.92781 0 3.41651 0 4.01728V13.047C0 13.6478 0.473206 14.1365 1.05485 14.1365H4.60929V23.6811H1.05485C0.473206 23.6811 0 24.1698 0 24.7705V33.8003C0 34.4011 0.473206 34.8898 1.05485 34.8898H4.60929V38.9155C4.60929 40.4178 5.79274 41.64 7.2474 41.64H28.746C30.2007 41.64 31.3842 40.4178 31.3842 38.9155V24.1251H38.2917C38.8734 24.1251 39.3466 23.6364 39.3466 23.0357V14.0059C39.3466 13.4052 38.8735 12.9165 38.2918 12.9165ZM5.79054 2.72449C5.79054 1.89486 6.44408 1.21992 7.2474 1.21992H28.746C29.5494 1.21992 30.2029 1.89486 30.2029 2.72449V12.9165H28.7073L28.7068 3.94441C28.7068 3.38381 28.2652 2.92781 27.7224 2.92781H10.7655H5.79054V2.72449ZM26.3528 19.1923L27.5261 20.0087V23.0357L27.5255 33.6698H11.8204V30.7734L12.9937 29.957C13.4548 29.6362 13.4546 28.9345 12.9937 28.6139L11.8203 27.7974V24.7705C11.8203 24.1697 11.3471 23.681 10.7654 23.681H8.46802V14.1364H10.7655C11.3471 14.1364 11.8204 13.6477 11.8204 13.047V10.02L12.9937 9.20364C13.4548 8.8828 13.4546 8.18111 12.9937 7.86051L11.8203 7.04406V4.14773H27.5254L27.5261 14.006V17.0328L26.3528 17.8492C25.8918 18.17 25.892 18.8717 26.3528 19.1923ZM1.18124 4.14773H5.19991H10.6392V7.36864C10.6392 7.57147 10.7368 7.76113 10.8997 7.8745L11.8448 8.53212L10.8997 9.18974C10.7368 9.30311 10.6392 9.49276 10.6392 9.69559V12.9165C9.73951 12.9165 2.24507 12.9165 1.18117 12.9165V4.14773H1.18124ZM5.79054 14.1364H7.28678V23.6811H5.79054V14.1364ZM1.18124 24.901H5.19991H7.8774H10.6392V28.1219C10.6392 28.3247 10.7368 28.5144 10.8997 28.6278L11.8448 29.2854L10.8997 29.943C10.7368 30.0564 10.6392 30.246 10.6392 30.4489V33.6698H5.19991H1.18124V24.901ZM30.203 38.9154C30.203 39.7451 29.5495 40.42 28.7461 40.42H7.24748C6.44416 40.42 5.79062 39.7451 5.79062 38.9154V34.8897H27.7224C28.2652 34.8897 28.7068 34.4337 28.7068 33.8731L28.7074 24.1251H30.203V38.9154ZM38.1654 22.9052H30.7936H28.7075V19.6843C28.7075 19.4814 28.6098 19.2918 28.4468 19.1784L27.5017 18.5208L28.4468 17.8632C28.6097 17.7498 28.7075 17.5603 28.7075 17.3573V14.1364H30.7936H38.1654V22.9052Z" fill="white"/>
<path d="M21.4513 13.4082L16.3819 15.1849H13.297C11.5329 15.1849 10.0977 16.6672 10.0977 18.489C10.0977 20.0852 11.1994 21.4205 12.6588 21.7269V25.3589C12.6588 26.2317 13.3464 26.9429 14.1924 26.944H14.219H14.221C15.0684 26.944 15.7558 26.2359 15.7558 25.3589V21.793H16.3818L18.268 22.4541C18.577 22.5622 18.9123 22.3914 19.0171 22.0725C19.1219 21.7535 18.9565 21.4072 18.6476 21.2988L17.0699 20.7459V16.232L21.4009 14.7142V22.2639L21.2576 22.2136C20.9489 22.1056 20.6134 22.2762 20.5085 22.5952C20.4037 22.9142 20.5692 23.2606 20.878 23.3689L21.4519 23.57C21.5409 23.601 21.6333 23.6167 21.7266 23.6167C22.1983 23.6167 22.582 23.2201 22.582 22.7326V14.2453C22.5823 13.6431 22.0075 13.2126 21.4513 13.4082ZM11.2788 18.489C11.2788 17.3397 12.1841 16.4048 13.2969 16.4048H15.8888V20.5731C13.0094 20.5731 13.3455 20.5737 13.2577 20.572C12.163 20.5503 11.2788 19.6245 11.2788 18.489ZM14.5745 25.3589C14.5745 25.5596 14.4179 25.7241 14.2202 25.7241C14.2201 25.7241 14.2199 25.7241 14.2197 25.7241H14.1932C13.9985 25.7239 13.8401 25.56 13.8401 25.3589V21.793H14.5745V25.3589Z" fill="white"/>
<path d="M8.81623 10.7354V6.34366C8.81623 5.73825 8.33932 5.24573 7.75311 5.24573H3.50062C2.91441 5.24573 2.4375 5.73825 2.4375 6.34366V10.7354C2.4375 11.3408 2.91441 11.8333 3.50062 11.8333H7.75311C8.33932 11.8333 8.81623 11.3408 8.81623 10.7354ZM7.63498 10.6134H3.61875V6.46566H7.63498V10.6134Z" fill="white"/>
<path d="M6.29021 32.3132L8.35117 30.6512C9.14615 30.0129 9.42358 28.891 9.0259 27.9231C8.59167 26.8664 7.47587 26.3162 6.43086 26.643C6.13578 26.7352 5.86528 26.8929 5.63588 27.1015C5.4064 26.893 5.13597 26.7352 4.84098 26.643C3.73234 26.2963 2.56613 26.9299 2.18593 28.0853C1.87833 29.0202 2.18782 30.0627 2.9561 30.6797L4.9921 32.3146L4.99218 32.3147C5.37419 32.6213 5.90788 32.6215 6.29021 32.3132ZM3.68115 29.7168C3.31583 29.4234 3.16085 28.914 3.30433 28.478C3.47877 27.948 4.00434 27.6559 4.49873 27.8108C4.7601 27.8924 4.98037 28.0912 5.10298 28.356C5.31734 28.8187 5.95481 28.8178 6.16862 28.3561C6.29131 28.0912 6.5115 27.8924 6.77302 27.8107C7.2393 27.665 7.74054 27.9181 7.93844 28.3997C8.1272 28.8592 7.99876 29.389 7.6251 29.6891L5.64005 31.2899L3.68115 29.7168Z" fill="white"/>
<path d="M30.3423 18.712L31.2004 19.5757L30.9979 20.7953C30.8518 21.6749 31.7476 22.3462 32.5119 21.9313L33.5725 21.3554L34.633 21.9313C35.3982 22.3468 36.2932 21.6751 36.147 20.7953L35.9445 19.5757L36.8026 18.7119C37.4215 18.0885 37.0795 17.0021 36.2241 16.8739L35.0384 16.6959L34.5082 15.5862C34.1254 14.7855 33.0193 14.7859 32.6368 15.5862L32.1066 16.6959L30.9209 16.8739C30.0652 17.0021 29.7234 18.0885 30.3423 18.712ZM32.348 17.8924C32.6877 17.8414 32.9814 17.6211 33.1336 17.303L33.5723 16.3848L34.0111 17.3031C34.1632 17.6211 34.4568 17.8414 34.7968 17.8924L35.7778 18.0397L35.068 18.7543C34.8219 19.0018 34.7096 19.3586 34.7678 19.7082L34.9354 20.7174L34.0576 20.2408C33.7538 20.0759 33.3909 20.0759 33.0867 20.2409L32.2091 20.7173L32.3767 19.7083C32.4349 19.3586 32.3226 19.0018 32.0766 18.7544L31.3666 18.0398L32.348 17.8924Z" fill="white"/>
<path d="M21.0684 35.9675H14.9259C14.0357 35.9675 13.3115 36.7154 13.3115 37.6347C13.3115 38.554 14.0357 39.3019 14.9259 39.3019H21.0684C21.9586 39.3019 22.6827 38.554 22.6827 37.6347C22.6827 36.7154 21.9586 35.9675 21.0684 35.9675ZM21.0684 38.082H14.9259C14.687 38.082 14.4928 37.8814 14.4928 37.6347C14.4928 37.3881 14.687 37.1874 14.9259 37.1874H21.0684C21.3071 37.1874 21.5015 37.3881 21.5015 37.6347C21.5015 37.8814 21.3071 38.082 21.0684 38.082Z" fill="white"/>
<path d="M24.766 17.9109H23.9949C23.6687 17.9109 23.4043 18.1839 23.4043 18.5209C23.4043 18.8579 23.6687 19.1309 23.9949 19.1309H24.766C25.0922 19.1309 25.3566 18.8579 25.3566 18.5209C25.3566 18.1839 25.0922 17.9109 24.766 17.9109Z" fill="white"/>
<path d="M24.4807 16.246L25.026 15.7885C25.2791 15.5761 25.3176 15.1919 25.112 14.9304C24.9064 14.6691 24.5344 14.6292 24.2811 14.8416L23.7358 15.2991C23.4826 15.5115 23.4442 15.8957 23.6498 16.1572C23.8555 16.4186 24.2273 16.4584 24.4807 16.246Z" fill="white"/>
<path d="M25.0258 21.5603L24.4806 21.1029C24.2271 20.8903 23.8554 20.9303 23.6498 21.1918C23.4441 21.4533 23.4826 21.8374 23.7358 22.0499L24.2811 22.5073C24.534 22.7195 24.906 22.6801 25.1119 22.4184C25.3175 22.1569 25.279 21.7728 25.0258 21.5603Z" fill="white"/>
</svg>