<svg width="31" height="30" viewBox="0 0 31 30" fill="none" xmlns="http://www.w3.org/2000/svg">
<path fill-rule="evenodd" clip-rule="evenodd" d="M28.2537 13.3179C28.2537 13.6585 28.0933 13.8405 27.7731 13.8405H26.2407V12.772C26.2407 11.9771 26.126 11.5678 25.4398 11.5678H24.7531C24.0672 11.5678 23.9525 11.9771 23.9525 12.772V13.8405H22.8776C22.077 13.8405 21.665 13.9541 21.665 14.6358V15.3628C21.665 16.0448 22.077 16.1587 22.8776 16.1587H23.9525V17.2266C23.9525 18.0221 24.0672 18.4311 24.7531 18.4311H25.4398C26.126 18.4311 26.2407 18.0221 26.2407 17.2266V16.1587H27.7731C28.0707 16.1587 28.2308 16.3177 28.2537 16.6131V20.0673C28.2537 20.9083 28.0018 21.5445 27.4071 22.1128L22.3055 27.1809C21.7105 27.7716 21.0472 28.0443 20.2241 28.0443H10.0201C9.19671 28.0443 8.53342 27.7716 7.93844 27.1809L2.83705 22.1128C2.24237 21.5218 1.967 20.9083 1.99048 20.0673V10.0452C1.99048 9.20419 2.26525 8.47682 2.88279 7.86364L8.07567 2.63626C8.60203 2.11367 9.26532 1.95462 10.0201 1.95462H20.2241C20.9786 1.95462 21.6419 2.11367 22.1682 2.63626L27.3614 7.86364C27.9561 8.47682 28.2537 9.20419 28.2537 10.0452V13.3179ZM23.5634 1.31813C22.6714 0.454724 21.5507 0 20.2006 0H10.043C8.69322 0 7.54931 0.454724 6.68047 1.31813L1.30371 6.6361C0.457744 7.47708 0 8.59072 0 9.81797V20.0673C0 21.4764 0.480616 22.5673 1.44125 23.4991L6.54324 28.5672C7.54931 29.5669 8.67035 30.0216 10.1119 29.9992H20.1323C21.5278 29.9992 22.6714 29.5896 23.701 28.5672L28.8026 23.4991C29.7407 22.5673 30.2439 21.4536 30.2439 20.0673V9.81797C30.2439 8.59072 29.7865 7.47708 28.9399 6.6361L23.5634 1.31813ZM9.29171 8.13623H7.20977C6.40955 8.13623 5.99756 8.27256 5.99756 8.93147V9.68157C5.99756 10.3405 6.40955 10.4768 7.20977 10.4768H7.69038C7.98771 10.4768 8.12464 10.6359 8.12464 11.0903V20.9083C8.12464 21.7035 8.26217 22.1128 8.92576 22.1128H9.7031C10.367 22.1128 10.5045 21.7035 10.5045 20.9083V8.93147C10.5045 8.27256 10.0922 8.13623 9.29171 8.13623ZM14.5501 18.1356C14.5501 19.5673 15.0765 20.1353 16.5403 20.1353C18.0048 20.1353 18.5311 19.5673 18.5311 18.1356C18.5311 16.7039 18.0048 16.0446 16.5403 16.0446C15.0765 16.0446 14.5501 16.7039 14.5501 18.1356ZM18.3024 11.9543C18.3024 10.4313 17.7989 9.97692 16.5403 9.97692C15.2826 9.97692 14.7791 10.4313 14.7791 11.9543C14.7791 13.4311 15.2826 13.9313 16.5403 13.9313C17.7989 13.9313 18.3024 13.4311 18.3024 11.9543ZM20.5439 12.2042C20.5439 12.9767 20.521 13.9313 19.2399 14.8631C20.7732 15.4539 20.8876 16.7493 20.8876 18.4537C20.8876 20.9763 19.9949 22.2266 16.5403 22.2944C13.086 22.2266 12.194 20.9763 12.194 18.4537C12.194 16.7493 12.3083 15.4539 13.8411 14.8631C12.5599 13.9313 12.5371 12.9767 12.5371 12.2042V11.4314C12.6746 8.86329 13.5437 7.88599 16.5403 7.88599C19.5375 7.88599 20.4067 8.86329 20.5439 11.4314V12.2042Z" fill="#9898A3"/>
</svg>