<svg width="24" height="24" viewBox="0 0 24 24" fill="none" xmlns="http://www.w3.org/2000/svg">
<g opacity="1">
<path d="M13.3337 20.7778C13.3337 21.3669 12.7367 21.8444 12.0003 21.8444C11.2639 21.8444 10.667 21.3669 10.667 20.7778C10.667 20.1887 11.3337 19.4444 12.0003 19.1778C12.667 19.4444 13.3337 20.1887 13.3337 20.7778Z" fill="white"/>
<path d="M14 4.94709C14 5.03257 13.9943 5.11677 13.9834 5.19935C17.1435 6.07646 18 9.02683 18 10.6261V16.6296H19C19.5523 16.6296 20 17.0655 20 17.6032C20 18.1408 19.5523 18.5767 19 18.5767H5C4.44772 18.5767 4 18.1408 4 17.6032C4 17.0655 4.44772 16.6296 5 16.6296H6V10.6261C6 9.02683 6.85648 6.07646 10.0166 5.19935C10.0057 5.11677 10 5.03257 10 4.94709C10 3.87174 10.8954 3 12 3C13.1046 3 14 3.87174 14 4.94709Z" fill="white"/>
</g>
</svg>