<svg width="16" height="16" viewBox="0 0 16 16" fill="none" xmlns="http://www.w3.org/2000/svg">
<path opacity="1" d="M12.5423 2.6743L12.5523 2.68336L12.5625 2.69215C13.7109 3.68337 14.5153 5.01928 14.8534 6.48184C14.8623 6.77065 14.901 7.05121 14.9316 7.27357L14.9351 7.29925C14.9741 7.5827 15 7.78299 15 7.96265V7.96279C15 8.68683 14.9021 9.3604 14.6799 10.0286L14.6759 10.0406L14.6723 10.0526C14.3178 11.2155 13.6379 12.2912 12.7254 13.1422C11.3884 14.3493 9.70064 14.999 7.91161 15C4.05276 14.9653 0.967764 11.8128 1.00025 7.93406C1.03272 4.05866 4.18198 0.967602 8.04744 1.00026V1.00029H8.05589C8.74624 1.00029 9.44763 1.0999 10.0636 1.31597L10.0911 1.32564L10.1192 1.33369C11.0184 1.59123 11.8454 2.03922 12.5423 2.6743Z" stroke="white" stroke-width="2"/>
</svg>