<svg width="170" height="18" viewBox="0 0 170 18" fill="none" xmlns="http://www.w3.org/2000/svg">
<path opacity="1" d="M0.578857 2.48801C0.578857 1.34325 1.76418 0.198486 2.9495 0.198486H9.64C10.8253 0.198486 12.0106 1.34325 12.0106 2.48801H3.37095V8.13549H12.0106C12.0106 9.28025 10.8253 10.425 9.64 10.425H2.9495C1.76418 10.425 0.578857 9.28025 0.578857 8.13549V2.48801ZM13.275 2.48801C13.275 1.34325 14.4603 0.198486 15.6456 0.198486H22.7049C23.8902 0.198486 25.0755 1.34325 25.0755 2.48801V8.13549C25.0755 9.28025 23.8902 10.425 22.7049 10.425H15.6456C14.4603 10.425 13.275 9.28025 13.275 8.13549V2.48801ZM15.9617 2.48801V8.13549H22.3888V2.48801H15.9617ZM26.9194 0.198486C28.1047 0.198486 29.6061 1.34325 29.6061 2.48801V8.13549H36.0332V0.198486H38.7199V8.13549C38.7199 9.28025 37.5346 10.425 36.0332 10.425H29.6061C28.1047 10.425 26.9194 9.28025 26.9194 8.13549V0.198486ZM40.7745 0.198486C43.3559 0.198486 44.3568 1.09992 45.3577 2.00136L50.8366 6.93563V2.48801C50.8366 1.34325 52.1273 0.198486 53.4179 0.198486V10.425H50.8366L43.3559 3.68787V10.425H40.7745V0.198486ZM54.1555 2.48801C54.1555 1.34325 55.3408 0.198486 56.5261 0.198486H66.1141C66.1141 1.34325 64.9287 2.48801 63.7434 2.48801H61.3728V10.425H58.7914V2.48801H54.1555ZM66.9043 0.198486H77.1771C77.1771 1.34325 75.9918 2.48801 74.8064 2.48801H69.591V4.16699H75.9654C75.9654 5.31175 74.7801 6.45651 73.5948 6.45651H69.591V8.13549H77.1771C77.1771 9.28025 75.9918 10.425 74.8064 10.425H66.9043V0.198486ZM78.6522 0.198486H86.0802C89.0303 0.198486 89.7152 1.34325 89.7152 3.45469V4.01435C89.7152 5.64246 89.3014 6.71176 87.7331 7.10158L90.8215 10.7303H87.8187C87.4406 10.7303 87.1905 10.5776 87.0625 10.425L82.4979 4.98104H86.0802C86.5807 4.98104 87.0811 4.62489 87.0811 4.26875V3.2003C87.0811 2.84415 86.5807 2.48801 86.0802 2.48801H81.2862V10.425H78.6522V0.198486ZM92.718 4.16699H98.5129V6.45651H92.718V4.16699ZM101.516 2.48801C101.516 1.34325 102.859 0.198486 104.202 0.198486H110.63C111.973 0.198486 113.316 1.34325 113.316 2.48801H104.202V4.16699H110.63C111.973 4.16699 113.316 5.31175 113.316 6.45651V8.13549C113.316 9.28025 111.973 10.425 110.63 10.425H104.202C102.859 10.425 101.516 9.28025 101.516 8.13549H110.63V6.45651H104.202C102.859 6.45651 101.516 5.31175 101.516 4.16699V2.48801ZM113.79 2.48801C113.79 1.34325 114.976 0.198486 116.161 0.198486H125.749C125.749 1.34325 124.564 2.48801 123.378 2.48801H121.008V10.425H118.426V2.48801H113.79ZM126.645 0.198486H134.073C137.023 0.198486 137.708 1.34325 137.708 3.45469V4.01435C137.708 5.64246 137.294 6.71176 135.726 7.10158L138.814 10.7303H135.811C135.433 10.7303 135.183 10.5776 135.055 10.425L130.49 4.98104H134.073C134.573 4.98104 135.074 4.62489 135.074 4.26875V3.2003C135.074 2.84415 134.573 2.48801 134.073 2.48801H129.279V10.425H126.645V0.198486ZM140.5 0.198486H143.134V10.425H140.5V0.198486ZM145.926 0.198486H148.507V4.16699H148.876L153.881 0.198486H157.674L151.773 5.23543L158.675 10.425H154.882C154.381 10.425 154.224 10.1856 153.881 9.94612L148.876 6.30387H148.507V10.425H145.926V0.198486ZM158.885 0.198486H169.158C169.158 1.34325 167.973 2.48801 166.788 2.48801H161.572V4.16699H167.947C167.947 5.31175 166.761 6.45651 165.576 6.45651H161.572V8.13549H169.158C169.158 9.28025 167.973 10.425 166.788 10.425H158.885V0.198486ZM105.466 15.5507H107.107L107.118 16.2655C107.118 16.7859 107.016 17.1217 106.812 17.2729C106.61 17.4224 106.158 17.4971 105.455 17.4971C104.81 17.4971 104.383 17.3969 104.174 17.1964C103.965 16.996 103.86 16.5872 103.86 15.9701C103.86 15.1824 103.902 14.6848 103.986 14.4774C104.089 14.2242 104.247 14.0536 104.458 13.9657C104.669 13.8778 105.028 13.8339 105.534 13.8339C106.197 13.8339 106.624 13.9024 106.817 14.0396C107.01 14.1749 107.107 14.4765 107.107 14.9442H106.391C106.379 14.7086 106.325 14.5626 106.23 14.5064C106.137 14.4483 105.903 14.4193 105.526 14.4193C105.116 14.4193 104.856 14.4686 104.745 14.567C104.636 14.6655 104.581 14.8967 104.581 15.2606L104.578 15.622L104.584 16.0835C104.584 16.4404 104.638 16.6681 104.748 16.7666C104.857 16.8633 105.11 16.9116 105.507 16.9116C105.893 16.9116 106.137 16.8703 106.241 16.7876C106.347 16.705 106.4 16.5099 106.4 16.2022L106.402 16.0545H105.466V15.5507ZM108.707 13.8339H109.418V16.8865H111.104V17.4971H108.707V13.8339ZM114.147 13.8339C114.824 13.8339 115.26 13.9429 115.455 14.1609C115.649 14.3771 115.747 14.8624 115.747 15.6167C115.747 16.4413 115.648 16.9608 115.452 17.1753C115.257 17.3898 114.784 17.4971 114.032 17.4971C113.355 17.4971 112.917 17.3916 112.718 17.1806C112.52 16.9679 112.421 16.5011 112.421 15.7802C112.421 14.9222 112.518 14.3833 112.713 14.1635C112.908 13.9437 113.386 13.8339 114.147 13.8339ZM114.092 14.4193C113.617 14.4193 113.339 14.4782 113.259 14.596C113.179 14.7138 113.139 15.1217 113.139 15.8198C113.139 16.3367 113.185 16.6479 113.278 16.7534C113.373 16.8589 113.65 16.9116 114.108 16.9116C114.547 16.9116 114.81 16.8527 114.898 16.7349C114.985 16.6153 115.029 16.2549 115.029 15.6536C115.029 15.0505 114.987 14.6945 114.903 14.5855C114.821 14.4747 114.551 14.4193 114.092 14.4193ZM117.267 17.4971V13.8339H119.132C119.569 13.8339 119.866 13.9018 120.024 14.0378C120.183 14.172 120.263 14.4261 120.263 14.8C120.263 15.2526 120.077 15.5192 119.704 15.5997V15.6131C120.138 15.6775 120.355 15.9683 120.355 16.4853C120.355 16.8593 120.271 17.1214 120.104 17.2717C119.938 17.4219 119.647 17.4971 119.232 17.4971H117.267ZM117.987 15.3716H118.868C119.153 15.3716 119.335 15.3412 119.413 15.2804C119.492 15.2195 119.532 15.0791 119.532 14.859C119.532 14.5656 119.36 14.4189 119.015 14.4189H117.987V15.3716ZM117.987 16.912H118.776L119.029 16.9067C119.272 16.9067 119.431 16.8736 119.507 16.8074C119.585 16.7412 119.624 16.6016 119.624 16.3887C119.624 16.1669 119.583 16.0273 119.501 15.9701C119.422 15.9128 119.224 15.8842 118.907 15.8842H117.987V16.912ZM121.561 17.4971L122.852 13.8339H123.905L125.17 17.4971H124.379L124.158 16.8102H122.599L122.377 17.4971H121.561ZM122.771 16.276H123.985L123.378 14.3935L122.771 16.276ZM126.566 13.8339H127.277V16.8865H128.963V17.4971H126.566V13.8339ZM134.508 13.8339C135.185 13.8339 135.621 13.9429 135.816 14.1609C136.011 14.3771 136.108 14.8624 136.108 15.6167C136.108 16.4413 136.01 16.9608 135.813 17.1753C135.618 17.3898 135.145 17.4971 134.393 17.4971C133.716 17.4971 133.278 17.3916 133.08 17.1806C132.881 16.9679 132.782 16.5011 132.782 15.7802C132.782 14.9222 132.879 14.3833 133.074 14.1635C133.269 13.9437 133.747 13.8339 134.508 13.8339ZM134.453 14.4193C133.978 14.4193 133.7 14.4782 133.62 14.596C133.54 14.7138 133.5 15.1217 133.5 15.8198C133.5 16.3367 133.547 16.6479 133.639 16.7534C133.734 16.8589 134.011 16.9116 134.47 16.9116C134.908 16.9116 135.171 16.8527 135.259 16.7349C135.346 16.6153 135.39 16.2549 135.39 15.6536C135.39 15.0505 135.348 14.6945 135.264 14.5855C135.182 14.4747 134.912 14.4193 134.453 14.4193ZM137.681 13.8339H140.131V14.4953H138.392V15.462H140.026V16.0216H138.392V17.4971H137.681V13.8339ZM141.659 13.8339H144.108V14.4953H142.37V15.462H144.003V16.0216H142.37V17.4971H141.659V13.8339ZM145.557 13.8339H148.138V14.4444H146.268V15.3602H148.033V15.9199H146.268V16.8865H148.138V17.4971H145.557V13.8339ZM149.719 13.8339H150.931L152.485 16.8357V13.8339H153.196V17.4971H151.984L150.43 14.4953V17.4971H149.719V13.8339ZM157.695 14.9152H157.005C157.001 14.8817 156.999 14.8571 156.999 14.8413C156.983 14.6391 156.936 14.5125 156.86 14.4615C156.783 14.4088 156.603 14.3824 156.319 14.3824C155.984 14.3824 155.765 14.4123 155.661 14.4721C155.559 14.5319 155.508 14.6576 155.508 14.8492C155.508 15.076 155.55 15.2123 155.634 15.258C155.717 15.3037 155.994 15.3389 156.464 15.3635C157.019 15.3934 157.378 15.4699 157.54 15.5929C157.704 15.716 157.786 15.9718 157.786 16.3604C157.786 16.8386 157.69 17.1481 157.499 17.2887C157.308 17.4276 156.886 17.4971 156.234 17.4971C155.648 17.4971 155.259 17.4285 155.066 17.2914C154.875 17.1542 154.779 16.8764 154.779 16.458L154.776 16.3261H155.464L155.467 16.4026C155.467 16.654 155.513 16.8079 155.604 16.8641C155.695 16.9204 155.943 16.9485 156.349 16.9485C156.666 16.9485 156.868 16.916 156.955 16.8509C157.043 16.7859 157.087 16.6356 157.087 16.4C157.087 16.2259 157.053 16.1107 156.985 16.0545C156.92 15.9965 156.777 15.9613 156.557 15.949L156.166 15.9252C155.576 15.8918 155.2 15.8127 155.036 15.6879C154.872 15.5631 154.79 15.2949 154.79 14.8835C154.79 14.4633 154.888 14.1837 155.085 14.0448C155.283 13.9042 155.678 13.8339 156.27 13.8339C156.831 13.8339 157.208 13.898 157.403 14.0264C157.598 14.1547 157.695 14.4053 157.695 14.778V14.9152ZM159.386 13.8339H160.097V17.4971H159.386V13.8339ZM161.467 13.8339H162.231L163.232 16.8611L164.233 13.8339H164.996L163.785 17.4971H162.678L161.467 13.8339ZM166.287 13.8339H168.868V14.4444H166.998V15.3602H168.763V15.9199H166.998V16.8865H168.868V17.4971H166.287V13.8339Z" fill="white"/>
</svg>