<svg width="25" height="29" viewBox="0 0 25 29" fill="none" xmlns="http://www.w3.org/2000/svg">
<path opacity="1" d="M22.0714 0H2.92857C1.31429 0 0 1.32424 0 2.96515V22.4258C0 24.0667 1.31429 25.3909 2.92857 25.3909H19.1286L18.3714 22.728L20.2 24.4409L21.9286 26.053L25 28.7879V2.96515C25 1.32424 23.6857 0 22.0714 0ZM16.5571 18.7985C16.5571 18.7985 16.0429 18.1795 15.6143 17.6326C17.4857 17.1 18.2 15.9197 18.2 15.9197C17.6143 16.3083 17.0571 16.5818 16.5571 16.7689C15.8429 17.0712 15.1571 17.2727 14.4857 17.3879C13.1143 17.647 11.8571 17.575 10.7857 17.3735C9.97143 17.2152 9.27143 16.9848 8.68571 16.7545C8.35714 16.625 8 16.4667 7.64286 16.2652C7.6 16.2364 7.55714 16.222 7.51429 16.1932C7.48571 16.1788 7.47143 16.1644 7.45714 16.15C7.2 16.0061 7.05714 15.9053 7.05714 15.9053C7.05714 15.9053 7.74286 17.0568 9.55714 17.6038C9.12857 18.1508 8.6 18.7985 8.6 18.7985C5.44286 18.6977 4.24286 16.6106 4.24286 16.6106C4.24286 11.9758 6.3 8.21894 6.3 8.21894C8.35714 6.66439 10.3143 6.70758 10.3143 6.70758L10.4571 6.8803C7.88571 7.62879 6.7 8.76591 6.7 8.76591C6.7 8.76591 7.01429 8.59318 7.54286 8.34848C9.07143 7.67197 10.2857 7.48485 10.7857 7.44167C10.8714 7.42727 10.9429 7.41288 11.0286 7.41288C11.9 7.29773 12.8857 7.26894 13.9143 7.38409C15.2714 7.54242 16.7286 7.94545 18.2143 8.76591C18.2143 8.76591 17.0857 7.68636 14.6571 6.93788L14.8571 6.70758C14.8571 6.70758 16.8143 6.66439 18.8714 8.21894C18.8714 8.21894 20.9286 11.9758 20.9286 16.6106C20.9286 16.6106 19.7143 18.6977 16.5571 18.7985ZM9.91429 12.0765C9.1 12.0765 8.45714 12.7962 8.45714 13.6742C8.45714 14.5523 9.11429 15.272 9.91429 15.272C10.7286 15.272 11.3714 14.5523 11.3714 13.6742C11.3857 12.7962 10.7286 12.0765 9.91429 12.0765ZM15.1286 12.0765C14.3143 12.0765 13.6714 12.7962 13.6714 13.6742C13.6714 14.5523 14.3286 15.272 15.1286 15.272C15.9429 15.272 16.5857 14.5523 16.5857 13.6742C16.5857 12.7962 15.9429 12.0765 15.1286 12.0765Z" fill="white"/>
</svg>