<svg width="18" height="18" viewBox="0 0 18 18" fill="none" xmlns="http://www.w3.org/2000/svg">
<circle cx="9" cy="9" r="9" fill="#E44B3D"/>
<path d="M10.0905 3.991L9.83048 9.685H8.16648L7.90648 3.991H10.0905ZM8.99848 10.868C9.32781 10.868 9.60514 10.985 9.83048 11.219C10.0645 11.4443 10.1815 11.7173 10.1815 12.038C10.1815 12.3673 10.0645 12.649 9.83048 12.883C9.60514 13.1083 9.32781 13.221 8.99848 13.221C8.67781 13.221 8.40048 13.1083 8.16648 12.883C7.94114 12.649 7.82848 12.3673 7.82848 12.038C7.82848 11.7173 7.94114 11.4443 8.16648 11.219C8.40048 10.985 8.67781 10.868 8.99848 10.868Z" fill="white"/>
</svg>