<svg width="71" height="19" viewBox="0 0 71 19" fill="none" xmlns="http://www.w3.org/2000/svg">
<g opacity="1">
<path d="M0.67041 9.48923C0.67041 14.6874 0.683666 18.9385 0.70134 18.9385C0.727852 18.9385 4.32899 18.2914 4.77085 18.2057L5.00062 18.1628V14.6917V11.2248H6.37037H7.74013V10.5906C7.74013 10.2435 7.75339 9.33924 7.77106 8.57644L7.79757 7.19655H6.4013H5.00062V5.67524V4.15394H6.6134C7.50153 4.15394 8.22618 4.14536 8.22618 4.13251C8.22618 4.08537 8.57966 0.425659 8.60176 0.241388L8.62827 0.0399761H4.64713H0.67041V9.48923Z" fill="white"/>
<path d="M66.7635 0.592716L63.2375 0.875551V9.41202V17.9485L63.3833 17.9699C63.5114 17.9913 70.3381 18.4713 70.4751 18.467C70.5149 18.467 70.5281 18.0128 70.5281 16.3458V14.2245H69.0258H67.5235V12.6818V11.139H68.8049H70.0863V9.29631V7.4536H68.7607H67.4351V6.23227V5.01094L67.5368 4.9938C67.5898 4.98094 68.0405 4.9638 68.5398 4.94666C69.0391 4.9338 69.6886 4.91237 69.9891 4.89523L70.5281 4.86952V2.58542V0.297026L70.4088 0.30131C70.3381 0.305595 68.6988 0.434156 66.7635 0.592716Z" fill="white"/>
<path d="M44.1275 1.18438C44.1717 1.61292 44.6754 8.07098 44.6665 8.07955C44.6621 8.08812 44.0126 6.5411 43.2217 4.64268C42.4352 2.74426 41.7724 1.17152 41.7547 1.14153C41.7282 1.09439 40.5087 1.31294 38.507 1.72434L38.317 1.76291V9.12946V16.496H40.2833H42.2496L42.2275 16.1875C42.1833 15.6132 42.0198 10.865 42.0375 10.6765C42.0507 10.5094 42.1833 10.8008 43.4382 13.7405C44.1982 15.5275 44.8433 17.006 44.861 17.0317C44.8875 17.0574 45.5016 17.0188 46.5444 16.9331C47.4502 16.856 48.1926 16.7874 48.1926 16.7831C48.197 16.7789 48.1749 13.6891 48.144 9.91797C48.113 6.14684 48.0865 2.5857 48.0865 1.9986L48.0821 0.940113H46.0937H44.101L44.1275 1.18438Z" fill="white"/>
<path d="M13.0213 1.20084C10.379 1.37226 8.92527 3.12497 8.46574 6.68184C8.37295 7.41892 8.33318 9.92158 8.39946 10.7958C8.62039 13.6327 9.41131 15.4754 10.8164 16.4139C11.572 16.9153 12.7076 17.1853 13.8299 17.121C15.1069 17.0524 15.9773 16.701 16.7594 15.9425C17.4001 15.3211 17.7492 14.7383 18.085 13.7441C18.5534 12.3557 18.7655 10.2815 18.6594 8.12172C18.5401 5.70477 18.1645 4.2006 17.3913 3.04784C16.6534 1.95078 15.4869 1.29512 14.1259 1.2137C13.9094 1.20084 13.6797 1.18799 13.6178 1.17941C13.5559 1.17513 13.2908 1.1837 13.0213 1.20084ZM13.6443 4.56915C13.9669 4.90769 14.1039 6.25758 14.1039 9.14593C14.1039 12.7028 13.8741 14.1812 13.3704 13.8641C13.1539 13.7227 12.9904 13.0328 12.9108 11.8886C12.8534 11.0529 12.8534 7.22608 12.9108 6.42471C12.9948 5.29337 13.145 4.66771 13.3704 4.51772C13.4941 4.43201 13.5162 4.4363 13.6443 4.56915Z" fill="white"/>
<path d="M19.2284 8.9924V16.7961H21.2566H23.2803L23.3068 16.2518C23.3245 15.9476 23.3598 14.9619 23.3863 14.0534C23.4128 13.1449 23.4482 12.3479 23.4659 12.2836C23.488 12.1936 23.678 12.7721 24.2612 14.7262C24.6854 16.1361 25.0433 17.306 25.061 17.3232C25.0963 17.3617 29.2409 17.0446 29.2851 17.0018C29.2984 16.9846 28.8389 15.5833 28.2644 13.8777L27.2217 10.7837L27.4426 10.5951C28.1761 9.97375 28.7814 8.77385 28.9537 7.5868C29.0289 7.06827 28.9803 5.78266 28.8654 5.30698C28.4235 3.44284 27.2526 1.99439 25.7591 1.45443C25.1096 1.22302 25.1626 1.2273 22.0917 1.21016L19.2284 1.19302V8.9924ZM23.784 4.88701C24.0977 5.037 24.354 5.42269 24.491 5.95407C24.5838 6.30976 24.5705 7.43681 24.4689 7.79678C24.2789 8.47387 23.9431 8.86813 23.4393 9.01812L23.3377 9.04383V6.90114V4.75417L23.4835 4.78416C23.5587 4.79702 23.6956 4.84416 23.784 4.88701Z" fill="white"/>
<path d="M29.0838 3.23319V5.22589H30.2106H31.3373V10.9683V16.7107H33.4582H35.5791V11.3111V5.91155H36.728H37.8768V3.91885V1.92615L37.7796 1.90901C37.6868 1.88759 29.2606 1.23621 29.1413 1.24049C29.0971 1.24049 29.0838 1.66903 29.0838 3.23319Z" fill="white"/>
<path d="M49.012 9.44617V17.2241H51.1993H53.3865V9.44617V1.66821H51.1993H49.012V9.44617Z" fill="white"/>
<path d="M58.3771 2.20857C55.9823 2.33285 53.9895 2.4357 53.9497 2.4357C53.8746 2.43998 53.8702 2.56426 53.8702 4.45411V6.46824H54.9969H56.1236V12.1035V17.7388H58.2667H60.4097V11.8678V5.99684H61.6027H62.7957V3.98272C62.7957 2.87281 62.7824 1.97288 62.7647 1.97288C62.7427 1.97716 60.772 2.08001 58.3771 2.20857Z" fill="white"/>
</g>
</svg>