<svg width="20" height="14" viewBox="0 0 20 14" fill="none" xmlns="http://www.w3.org/2000/svg">
<path d="M0.715815 3.97859C0.875939 1.73686 2.74128 0 4.98873 0C5.65377 0 6.30968 0.154839 6.90451 0.452253L7 0.5C7.65763 0.828815 8.38278 1 9.11803 1H10.882C11.6172 1 12.3424 0.828814 13 0.5L13.0955 0.452253C13.6903 0.154838 14.3462 0 15.0113 0C17.2587 0 19.1241 1.73686 19.2842 3.9786L19.8252 11.5528C19.9197 12.8752 18.8723 14 17.5466 14C16.6125 14 15.7725 13.4313 15.4256 12.564L15 11.5C14.396 9.99009 12.9336 9 11.3074 9H8.69258C7.06636 9 5.60397 9.99009 5 11.5L4.5744 12.564C4.22748 13.4313 3.38749 14 2.45339 14C1.12766 14 0.0803422 12.8752 0.174797 11.5528L0.715815 3.97859Z" fill="white"/>
<circle cx="15" cy="5" r="2" stroke="#17171C" stroke-width="2"/>
<circle cx="5" cy="5" r="2" stroke="#17171C" stroke-width="2"/>
</svg>