<svg width="24" height="24" viewBox="0 0 24 24" fill="none" xmlns="http://www.w3.org/2000/svg">
<path opacity="1" fill-rule="evenodd" clip-rule="evenodd" d="M13.7197 19.8147C17.3115 19.0279 20 15.8279 20 12C20 7.58172 16.4183 4 12 4C7.58172 4 4 7.58172 4 12C4 16.0572 7.02021 19.409 10.935 19.9297L10.9424 15.1621C10.9424 14.8926 10.8926 14.6875 10.793 14.5469C10.6992 14.4062 10.585 14.3125 10.4502 14.2656C10.3213 14.2188 10.1514 14.1807 9.94043 14.1514C9.75879 14.1221 9.65625 14.1045 9.63281 14.0986C9.5625 14.0693 9.50977 14.0283 9.47461 13.9756C9.43945 13.9229 9.42188 13.8467 9.42188 13.7471C9.42188 13.665 9.43945 13.583 9.47461 13.501C9.51562 13.4131 9.56836 13.3662 9.63281 13.3604C10.9336 13.2783 12.208 13.2373 13.4561 13.2373C13.5205 13.2373 13.5791 13.2666 13.6318 13.3252C13.6904 13.3779 13.7197 13.4658 13.7197 13.5889V19.8147ZM11.4346 11.5146C11.6865 11.6494 11.9648 11.7168 12.2695 11.7168C12.5684 11.7168 12.8438 11.6494 13.0957 11.5146C13.3477 11.374 13.5469 11.1836 13.6934 10.9434C13.8457 10.6973 13.9219 10.4189 13.9219 10.1084C13.9219 9.79785 13.8457 9.51953 13.6934 9.27344C13.5469 9.02734 13.3477 8.83691 13.0957 8.70215C12.8438 8.56152 12.5684 8.49121 12.2695 8.49121C11.9648 8.49121 11.6865 8.56152 11.4346 8.70215C11.1826 8.83691 10.9834 9.02734 10.8369 9.27344C10.6904 9.51953 10.6172 9.79785 10.6172 10.1084C10.6172 10.4189 10.6904 10.6973 10.8369 10.9434C10.9834 11.1836 11.1826 11.374 11.4346 11.5146Z" fill="white"/>
</svg>