<svg width="18" height="17" viewBox="0 0 18 17" fill="none" xmlns="http://www.w3.org/2000/svg">
<g opacity="1">
<path d="M17.1515 4.99167C17.1114 4.08955 16.9643 3.46935 16.7536 2.93193C16.5363 2.36148 16.2019 1.85076 15.7638 1.42619C15.3358 0.995018 14.8175 0.659977 14.2491 0.447758C13.7042 0.238778 13.0822 0.0928942 12.1727 0.0531194C11.2565 0.00997608 10.9656 0 8.64173 0C6.31785 0 6.02698 0.00997608 5.11412 0.0497509C4.20466 0.0895257 3.57941 0.235539 3.03776 0.44439C2.46254 0.659977 1.94766 0.991649 1.51964 1.42619C1.08496 1.85076 0.747323 2.36485 0.533248 2.9287C0.322569 3.46935 0.175498 4.08618 0.1354 4.98831C0.0919054 5.89717 0.0818481 6.1857 0.0818481 8.49082C0.0818481 10.7959 0.0919054 11.0845 0.132004 11.99C0.172102 12.8921 0.319303 13.5123 0.529983 14.0497C0.747323 14.6202 1.08496 15.1309 1.51964 15.5554C1.94766 15.9866 2.46593 16.3217 3.03436 16.5339C3.57941 16.7429 4.20126 16.8887 5.11086 16.9285C6.02358 16.9684 6.31459 16.9783 8.63846 16.9783C10.9623 16.9783 11.2532 16.9684 12.1661 16.9285C13.0755 16.8887 13.7008 16.7429 14.2424 16.5339C15.3927 16.0927 16.3022 15.1906 16.7469 14.0497C16.9575 13.5091 17.1047 12.8921 17.1448 11.99C17.1849 11.0845 17.1949 10.7959 17.1949 8.49082C17.1949 6.1857 17.1915 5.89717 17.1515 4.99167ZM15.6101 11.9236C15.5732 12.7528 15.4328 13.2006 15.3158 13.4991C15.0282 14.2387 14.4364 14.8258 13.6907 15.1111C13.3898 15.2271 12.9351 15.3664 12.1025 15.4028C11.1997 15.4427 10.9289 15.4526 8.64512 15.4526C6.36135 15.4526 6.08719 15.4427 5.18766 15.4028C4.35173 15.3664 3.90033 15.2271 3.5994 15.1111C3.22832 14.975 2.89056 14.7594 2.6164 14.4775C2.33219 14.2022 2.11485 13.8705 1.9777 13.5024C1.86067 13.2039 1.72026 12.7528 1.68356 11.927C1.64333 11.0315 1.6334 10.7628 1.6334 8.49743C1.6334 6.23208 1.64333 5.96013 1.68356 5.06798C1.72026 4.2388 1.86067 3.79104 1.9777 3.49254C2.11485 3.12433 2.33219 2.78942 2.6198 2.51734C2.89722 2.23542 3.23159 2.01983 3.60279 1.88393C3.90373 1.76784 4.35852 1.62856 5.19105 1.59203C6.09385 1.55225 6.36474 1.54228 8.64839 1.54228C10.9356 1.54228 11.2063 1.55225 12.1059 1.59203C12.9418 1.62856 13.3932 1.76784 13.6941 1.88393C14.0652 2.01983 14.403 2.23542 14.6771 2.51734C14.9613 2.79266 15.1787 3.12433 15.3158 3.49254C15.4328 3.79104 15.5732 4.24204 15.6101 5.06798C15.6502 5.9635 15.6602 6.23208 15.6602 8.49743C15.6602 10.7628 15.6502 11.0281 15.6101 11.9236Z" fill="white"/>
<path d="M8.64203 4.12988C6.21458 4.12988 4.24506 6.08342 4.24506 8.49146C4.24506 10.8995 6.21458 12.853 8.64203 12.853C11.0696 12.853 13.039 10.8995 13.039 8.49146C13.039 6.08342 11.0696 4.12988 8.64203 4.12988ZM8.64203 11.3207C7.06722 11.3207 5.78982 10.0537 5.78982 8.49146C5.78982 6.9292 7.06722 5.66221 8.64203 5.66221C10.217 5.66221 11.4942 6.9292 11.4942 8.49146C11.4942 10.0537 10.217 11.3207 8.64203 11.3207Z" fill="white"/>
<path d="M14.2398 3.95703C14.2398 4.51938 13.7802 4.97534 13.2132 4.97534C12.6463 4.97534 12.1866 4.51938 12.1866 3.95703C12.1866 3.39456 12.6463 2.93872 13.2132 2.93872C13.7802 2.93872 14.2398 3.39456 14.2398 3.95703Z" fill="white"/>
</g>
</svg>