<svg width="72" height="27" viewBox="0 0 72 27" fill="none" xmlns="http://www.w3.org/2000/svg">
<g opacity="1">
<path d="M67.7953 19.3423C66.5915 19.0379 65.5529 18.7803 65.5529 17.7969C65.5529 17.0242 66.143 16.5325 67.0872 16.5325C67.9606 16.4857 68.7631 17.071 68.9284 17.9374L71.2888 16.8135C70.6515 15.2681 69.1172 14.3315 67.158 14.3315C64.6087 14.3315 62.8383 15.8769 62.8383 18.0779C62.8383 20.7705 64.7975 21.2857 66.5443 21.7305C67.7717 22.0349 68.8103 22.3159 68.8103 23.3227C68.8103 24.1657 68.1258 24.7042 67.0872 24.7042C66.0486 24.7042 65.1752 24.1422 64.9391 23.2993L62.5787 24.4232C63.2396 25.9686 64.9155 26.9052 66.9928 26.9052C69.7545 26.9052 71.5249 25.3832 71.5249 22.9949C71.5249 20.2788 69.4477 19.7637 67.7953 19.3423Z" fill="white"/>
<path d="M71.7152 3.44434V4.68531H69.7088V5.85604H71.4555L71.1251 7.05018H69.7088V8.89993H68.3397V3.44434H71.7152Z" fill="white"/>
<path d="M64.892 4.70816C65.7417 4.70816 66.4263 5.38719 66.4263 6.23011C66.4263 7.07303 65.7417 7.75206 64.892 7.75206C64.0422 7.75206 63.3576 7.07303 63.3576 6.23011C63.3576 5.38719 64.0422 4.70816 64.892 4.70816ZM64.892 9.06327C66.4735 9.06327 67.7482 7.77547 67.7482 6.2067C67.7482 4.63792 66.4499 3.37354 64.8683 3.37354C63.2868 3.37354 62.0121 4.66134 62.0121 6.2067C62.0121 7.79889 63.3104 9.08669 64.892 9.06327Z" fill="white"/>
<path d="M39.7304 26.5545H42.2797V18.5701L48.063 26.5545H50.7303V14.4023H48.1574V22.5038L42.445 14.4023H39.1403L39.7304 15.5965V26.5545Z" fill="white"/>
<path d="M59.3681 21.9177C59.014 22.784 58.3059 23.463 57.4561 23.8377C57.0076 24.025 56.5355 24.1186 56.0398 24.1186H54.5763V16.8601H56.0398C56.5355 16.8601 57.0076 16.9538 57.4561 17.1411C58.3295 17.4923 59.014 18.1947 59.3681 19.0611C59.7458 19.9977 59.7458 21.0045 59.3681 21.9177ZM58.5183 14.8933C57.7394 14.5889 56.9132 14.425 56.087 14.3782H51.9089V26.5303H56.087C57.7394 26.5303 59.3209 25.9216 60.5248 24.7977C61.0913 24.2591 61.5634 23.6035 61.8702 22.8777C62.8853 20.583 62.3423 17.9138 60.5248 16.1811C59.9346 15.6426 59.2737 15.1977 58.5183 14.8933Z" fill="white"/>
<path d="M17.2322 26.5545H9.93829V14.4023H17.2322V16.7672H12.6057V19.2257H16.8309L16.1936 21.5204H12.6057V24.1896L17.2322 24.213V26.5545Z" fill="white"/>
<path d="M33.8987 16.7672H38.5252V14.4023H31.2549V26.5545H38.5252V24.213L33.8987 24.1896V21.5204H37.4866L38.124 19.2257H33.8987V16.7672Z" fill="white"/>
<path d="M43.1533 9.64904C42.9173 8.97002 42.7992 8.26758 42.8228 7.56515L42.8701 0.0724868H45.5138L45.4902 7.44807C45.4902 8.26758 45.679 8.92319 46.0567 9.39148C46.9537 10.3281 48.4644 10.3515 49.385 9.43831L49.4322 9.39148C49.8335 8.92319 50.0223 8.26758 50.0223 7.44807L50.0459 0.0490723H52.7369L52.6897 7.61198C52.6897 8.31441 52.5953 9.01685 52.3592 9.69587C52.1468 10.2812 51.7927 10.8198 51.3678 11.2881C50.9193 11.7329 50.4 12.0842 49.8099 12.2949C48.4644 12.7632 47.0009 12.7632 45.6554 12.2715C45.0653 12.0373 44.546 11.7095 44.1211 11.2412C43.6962 10.7963 43.3658 10.2578 43.1533 9.64903L43.1533 9.64904Z" fill="white"/>
<path d="M29.8868 8.71222C29.5563 7.93954 29.3911 7.09661 29.3911 6.2771C29.3911 5.43418 29.5799 4.61467 29.9104 3.84199C30.2408 3.09272 30.7129 2.4137 31.3031 1.85175C31.8932 1.26639 32.6013 0.821512 33.3567 0.517123C34.1357 0.189319 34.9854 0.0254172 35.8588 0.0488317C37.0155 0.0254043 38.1721 0.329806 39.1871 0.891756C40.1313 1.43029 40.9103 2.22639 41.406 3.2098L38.9983 4.3337C38.715 3.77175 38.2665 3.30346 37.7236 2.97565C37.1571 2.64785 36.4962 2.50736 35.8352 2.50736C35.3395 2.50736 34.8202 2.60102 34.3717 2.78834C33.9232 2.97565 33.5219 3.25663 33.1915 3.60784C32.8374 3.95906 32.5777 4.38052 32.3889 4.8254C31.9876 5.7854 31.9876 6.83905 32.3653 7.79905C32.7194 8.71222 33.4511 9.46148 34.3481 9.85953C34.8202 10.0703 35.3159 10.1873 35.8352 10.1639C36.5906 10.1873 37.3459 9.95319 37.9597 9.53173C38.5262 9.13368 38.9275 8.5249 39.0927 7.84588H34.7258L35.8116 5.64491H41.9017C41.9253 6.1132 41.9017 7.12003 41.8781 7.33076C41.8073 7.89271 41.6656 8.45466 41.4532 8.99319C40.8631 10.4449 39.7064 11.5688 38.2429 12.1542C35.8352 13.1142 33.097 12.5522 31.2558 10.7259C30.6657 10.1405 30.2172 9.46148 29.8867 8.71222H29.8868Z" fill="white"/>
<path d="M1.5129 11.01V1.33983L0.89917 0.0754395H4.15666V9.88614H9.0429L8.35836 12.2744H0.89917L1.5129 11.01Z" fill="white"/>
<path d="M1.51351 25.2901V15.6199L0.89978 14.3555H4.15727V24.1662H9.04352L8.35897 26.5545H0.89978L1.51351 25.2901Z" fill="white"/>
<path d="M17.2322 12.2708H9.93829V0.118652H17.2322V2.48352H12.6057V4.94205H16.8309L16.1936 7.23668H12.6057V9.88252L17.2322 9.90595V12.2708Z" fill="white"/>
<path d="M61.1847 12.2708H53.9144V0.118652H61.2083V2.48352H56.5818V4.94205H60.807L60.1697 7.23668H56.5818V9.88252L61.2083 9.90595V12.2708L61.1847 12.2708Z" fill="white"/>
<path d="M24.2214 3.49055L25.7557 7.58809H22.6163L24.2214 3.49055ZM20.7987 12.271L21.7193 9.90614H26.6291L27.5733 12.271H30.3351L25.4017 0.0720215H21.6249L22.4274 1.66421L18.0841 12.271H20.7987Z" fill="white"/>
<path d="M22.7601 26.7419C23.2086 26.8355 23.6571 26.8823 24.1292 26.8823C24.9554 26.9058 25.7816 26.7419 26.5605 26.4375C28.024 25.8521 29.1807 24.7282 29.7708 23.2765C29.9833 22.738 30.1249 22.176 30.1957 21.6141C30.2429 21.0521 30.2429 20.4902 30.2193 19.9048H24.1292V19.9282L23.0434 22.1292H27.3867C27.2215 22.8082 26.8202 23.417 26.2537 23.815C25.6399 24.2599 24.9082 24.4706 24.1528 24.4472C23.9167 24.4472 23.7043 24.4238 23.4682 24.377L22.9253 24.2365C22.8309 24.2131 22.7601 24.1663 22.6657 24.1428C21.7687 23.7448 21.0369 23.0189 20.6828 22.0824C20.3052 21.1224 20.3052 20.0453 20.7064 19.0853C20.8953 18.6404 21.1785 18.219 21.509 17.8677C21.8395 17.5165 22.2644 17.259 22.7129 17.0717C23.185 16.8843 23.6807 16.7907 24.1764 16.7907C24.8373 16.7673 25.4983 16.9312 26.0648 17.259C26.6077 17.5868 27.0562 18.0551 27.3395 18.617L29.7472 17.4931C29.2515 16.5097 28.4961 15.7136 27.5283 15.1751C26.5133 14.6131 25.3803 14.3321 24.2 14.3321C22.5004 14.3087 20.8717 14.9643 19.6442 16.1585C19.0541 16.7204 18.582 17.3995 18.2515 18.1487C17.567 19.6941 17.567 21.4736 18.2279 23.0189C18.5584 23.7682 19.0069 24.4472 19.5734 25.0326C20.0927 25.5477 20.7064 25.9692 21.3674 26.297C21.8316 26.5044 22.2959 26.6727 22.7601 26.7419Z" fill="white"/>
</g>
</svg>