<svg width="24" height="24" viewBox="0 0 24 24" fill="none" xmlns="http://www.w3.org/2000/svg">
<g opacity="1">
<path d="M5.8199 11.801C5.92214 10.7786 6.78247 10 7.80998 10H16.19C17.2175 10 18.0779 10.7786 18.1801 11.801L18.7801 17.801C18.8978 18.9784 17.9733 20 16.79 20H7.20998C6.02673 20 5.10216 18.9784 5.2199 17.801L5.8199 11.801Z" fill="white"/>
<path d="M9 8C9 6.34315 10.3431 5 12 5C13.6569 5 15 6.34315 15 8V10C15 11.6569 13.6569 13 12 13C10.3431 13 9 11.6569 9 10V8Z" stroke="white" stroke-width="2"/>
</g>
</svg>