<svg width="27" height="21" viewBox="0 0 27 21" fill="none" xmlns="http://www.w3.org/2000/svg">
<g opacity="1">
<path d="M5.06011 20.9468V19.5558C5.06011 19.0226 4.73293 18.6749 4.17204 18.6749C3.8916 18.6749 3.58779 18.7676 3.37746 19.069C3.21387 18.814 2.98016 18.6749 2.62961 18.6749C2.3959 18.6749 2.16221 18.7445 1.97524 18.9995V18.7213H1.48447V20.9468H1.97524V19.7181C1.97524 19.324 2.18557 19.1386 2.51276 19.1386C2.83994 19.1386 3.00353 19.3472 3.00353 19.7181V20.9468H3.49431V19.7181C3.49431 19.324 3.72801 19.1386 4.03182 19.1386C4.35901 19.1386 4.5226 19.3472 4.5226 19.7181V20.9468H5.06011ZM12.3283 18.7213H11.5337V18.049H11.0429V18.7213H10.5989V19.1617H11.0429V20.1818C11.0429 20.6918 11.2532 20.9932 11.8141 20.9932C12.0244 20.9932 12.2581 20.9236 12.4217 20.8309L12.2815 20.4136C12.1413 20.5063 11.9777 20.5295 11.8609 20.5295C11.6272 20.5295 11.5337 20.3904 11.5337 20.1586V19.1617H12.3283V18.7213ZM16.4882 18.6749C16.2077 18.6749 16.0208 18.814 15.9039 18.9995V18.7213H15.4131V20.9468H15.9039V19.6949C15.9039 19.324 16.0675 19.1154 16.3713 19.1154C16.4648 19.1154 16.5816 19.1386 16.6751 19.1617L16.8153 18.6981C16.7219 18.6749 16.5816 18.6749 16.4882 18.6749ZM10.2016 18.9067C9.96786 18.7444 9.64068 18.6749 9.29013 18.6749C8.72924 18.6749 8.35532 18.9531 8.35532 19.3936C8.35532 19.7645 8.63576 19.9731 9.12653 20.0427L9.36023 20.0659C9.61731 20.1122 9.75753 20.1818 9.75753 20.2977C9.75753 20.46 9.57057 20.5759 9.24338 20.5759C8.9162 20.5759 8.65913 20.46 8.49554 20.3441L8.26184 20.715C8.51891 20.9004 8.86947 20.9932 9.22002 20.9932C9.87439 20.9932 10.2483 20.6918 10.2483 20.2745C10.2483 19.8804 9.94449 19.6718 9.47709 19.6022L9.24338 19.579C9.03305 19.5558 8.86947 19.5095 8.86947 19.3704C8.86947 19.2081 9.03305 19.1154 9.29013 19.1154C9.57057 19.1154 9.85101 19.2313 9.99123 19.3008L10.2016 18.9067ZM23.2422 18.6749C22.9617 18.6749 22.7748 18.814 22.6579 18.9995V18.7213H22.1671V20.9468H22.6579V19.6949C22.6579 19.324 22.8215 19.1154 23.1253 19.1154C23.2188 19.1154 23.3356 19.1386 23.4291 19.1617L23.5693 18.6981C23.4759 18.6749 23.3356 18.6749 23.2422 18.6749ZM16.9789 19.834C16.9789 20.5063 17.4463 20.9932 18.1708 20.9932C18.498 20.9932 18.7317 20.9236 18.9654 20.7382L18.7317 20.3441C18.5447 20.4831 18.3578 20.5527 18.1474 20.5527C17.7502 20.5527 17.4697 20.2745 17.4697 19.834C17.4697 19.4167 17.7502 19.1386 18.1474 19.1154C18.3578 19.1154 18.5447 19.1849 18.7317 19.324L18.9654 18.9299C18.7317 18.7445 18.498 18.6749 18.1708 18.6749C17.4463 18.6749 16.9789 19.1617 16.9789 19.834ZM21.5128 19.834V18.7213H21.022V18.9995C20.8584 18.7908 20.6247 18.6749 20.3209 18.6749C19.6899 18.6749 19.1991 19.1617 19.1991 19.834C19.1991 20.5063 19.6899 20.9932 20.3209 20.9932C20.6481 20.9932 20.8818 20.8773 21.022 20.6686V20.9468H21.5128V19.834ZM19.7133 19.834C19.7133 19.4399 19.9703 19.1154 20.391 19.1154C20.7883 19.1154 21.0687 19.4167 21.0687 19.834C21.0687 20.2281 20.7883 20.5527 20.391 20.5527C19.9703 20.5295 19.7133 20.2281 19.7133 19.834ZM13.8473 18.6749C13.193 18.6749 12.7256 19.1386 12.7256 19.834C12.7256 20.5295 13.193 20.9932 13.8707 20.9932C14.1979 20.9932 14.5251 20.9004 14.7821 20.6918L14.5484 20.3441C14.3615 20.4831 14.1278 20.5759 13.8941 20.5759C13.5903 20.5759 13.2864 20.4368 13.2163 20.0427H14.8756C14.8756 19.9731 14.8756 19.9268 14.8756 19.8572C14.899 19.1386 14.4783 18.6749 13.8473 18.6749ZM13.8473 19.0922C14.1511 19.0922 14.3615 19.2777 14.4082 19.6254H13.2397C13.2864 19.324 13.4968 19.0922 13.8473 19.0922ZM26.0232 19.834V17.8403H25.5324V18.9995C25.3689 18.7908 25.1352 18.6749 24.8313 18.6749C24.2003 18.6749 23.7096 19.1617 23.7096 19.834C23.7096 20.5063 24.2003 20.9932 24.8313 20.9932C25.1585 20.9932 25.3922 20.8773 25.5324 20.6686V20.9468H26.0232V19.834ZM24.2237 19.834C24.2237 19.4399 24.4808 19.1154 24.9014 19.1154C25.2987 19.1154 25.5792 19.4167 25.5792 19.834C25.5792 20.2281 25.2987 20.5527 24.9014 20.5527C24.4808 20.5295 24.2237 20.2281 24.2237 19.834ZM7.8178 19.834V18.7213H7.32703V18.9995C7.16344 18.7908 6.92973 18.6749 6.62592 18.6749C5.99492 18.6749 5.50414 19.1617 5.50414 19.834C5.50414 20.5063 5.99492 20.9932 6.62592 20.9932C6.9531 20.9932 7.18681 20.8773 7.32703 20.6686V20.9468H7.8178V19.834ZM5.99492 19.834C5.99492 19.4399 6.25199 19.1154 6.67266 19.1154C7.06995 19.1154 7.3504 19.4167 7.3504 19.834C7.3504 20.2281 7.06995 20.5527 6.67266 20.5527C6.25199 20.5295 5.99492 20.2281 5.99492 19.834Z" fill="white"/>
<circle opacity="0.5" cx="8.5" cy="8.5" r="8.5" fill="white"/>
<circle cx="18.5" cy="8.5" r="8.5" fill="white"/>
</g>
</svg>