<svg width="24" height="24" viewBox="0 0 24 24" fill="none" xmlns="http://www.w3.org/2000/svg">
<g opacity="1">
<path d="M7.60714 6.99736C8.75817 6.99736 9.69398 6.0928 9.69398 4.97368C9.69398 3.85456 8.75817 2.95 7.60714 2.95C6.45612 2.95 5.52031 3.85456 5.52031 4.97368C5.52031 6.0928 6.45612 6.99736 7.60714 6.99736Z" fill="white" stroke="white" stroke-width="0.1"/>
<path d="M15.8806 9.82326L15.8805 9.82332L15.8826 9.82537C16.3042 10.2339 16.9872 10.3225 17.4187 9.90432C17.6295 9.70008 17.7585 9.45244 17.78 9.1916C17.8016 8.93012 17.7147 8.6606 17.5033 8.41476L17.5033 8.41475L17.5026 8.41393L15.3049 5.96892C15.1273 5.71376 14.7816 5.6342 14.5324 5.63419L14.5312 5.63422L11.2734 5.71315C11.2732 5.71315 11.273 5.71315 11.2728 5.71315C11.0196 5.71328 10.7621 5.79483 10.5878 5.96322L7.98425 8.2495C7.72297 8.41987 7.63883 8.67548 7.63862 8.99875L7.55954 10.6079H6.05915C5.4587 10.6079 5.03526 11.1053 4.95072 11.5968L4.95 11.5967V11.6052C4.95 11.8964 5.07865 12.1651 5.26977 12.3606C5.46064 12.5558 5.71736 12.6816 5.97768 12.6816H8.50335C9.09926 12.6816 9.53027 12.2666 9.53103 11.6857L9.60435 10.4779L11.4513 12.8641L8.46856 15.8325C8.46848 15.8326 8.4684 15.8326 8.46832 15.8327C8.30012 15.9958 8.12767 16.2445 8.12746 16.5783C8.12746 16.5785 8.12746 16.5787 8.12746 16.5789L8.046 19.9725H8.04599V19.9737C8.04599 20.5501 8.47206 21.05 9.07366 21.05C9.67128 21.05 10.0976 20.6345 10.1823 20.0599L10.1826 20.06L10.1828 20.054L10.2637 17.0743L13.5047 13.9338V16.5C13.5047 17.0841 14.0199 17.4971 14.5319 17.4973C14.5321 17.4973 14.5322 17.4973 14.5324 17.4973L18.931 17.5763V17.5763H18.9319C19.5295 17.5763 19.9558 17.1608 20.0406 16.5862L20.0407 16.5853C20.1263 15.9214 19.6114 15.424 19.014 15.4237C19.0138 15.4237 19.0136 15.4237 19.0134 15.4237L15.6415 15.3459V12.1579C15.6415 12.0334 15.6201 11.9274 15.5759 11.8311C15.5323 11.7361 15.4677 11.653 15.3846 11.572L12.4337 7.70789H13.9401L15.8806 9.82326Z" fill="white" stroke="white" stroke-width="0.1"/>
</g>
</svg>