<svg width="51" height="30" viewBox="0 0 51 30" fill="none" xmlns="http://www.w3.org/2000/svg">
<path opacity="1" d="M3.90289 0.559377C3.54961 0.664862 3.28604 0.809209 3.08977 1.04794C2.80938 1.38105 2.79817 1.43101 2.8206 2.42479C2.83182 2.99663 2.83182 4.00706 2.8206 4.68994C2.80938 5.91134 2.80938 5.91134 2.57947 5.83917C2.11963 5.68371 1.02051 5.75589 0.83546 5.95575C0.678443 6.12231 0.678443 6.12231 0.857891 6.06124C0.992476 6.02238 1.03734 6.03903 1.00369 6.12231C0.981261 6.19448 0.897145 6.24445 0.83546 6.22779C0.762559 6.21669 0.717697 6.40545 0.717697 6.74411C0.717697 7.04391 0.684051 7.4603 0.656012 7.65461C0.616758 7.94331 0.656012 8.071 0.874714 8.29863C1.12706 8.56511 1.21118 8.58732 1.96262 8.58732C2.66358 8.58732 2.78695 8.62063 2.83182 8.76498C2.8935 9.00371 2.8206 20.818 2.75891 20.9846C2.72527 21.0789 2.48974 21.1178 2.03552 21.1178C1.58129 21.1178 1.25043 21.1789 1.04295 21.2955C0.728913 21.4842 0.717697 21.5009 0.706482 22.3114C0.684051 23.9603 0.728913 24.0214 2.04673 24.0214H2.92715L2.8935 26.009C2.85425 28.8071 2.93275 28.9292 4.96276 29.0403C7.97411 29.1957 16.7895 29.2568 18.2363 29.1346C18.741 29.0958 19.1896 29.0847 19.6775 29.0958C20.356 29.1069 20.5242 29.0958 20.6476 28.9792C20.7542 28.8959 20.7934 28.8959 20.7934 28.9792C20.7934 29.0403 20.8439 29.0958 20.9 29.0958C20.9616 29.0958 21.0065 29.0014 21.0065 28.8793C21.0065 28.7627 20.9672 28.7016 20.9 28.7349C20.8495 28.7682 20.7934 28.746 20.7934 28.6849C20.7934 28.4962 21.0458 28.6239 21.1579 28.8737C21.2645 29.1013 21.2925 29.1013 23.6141 29.1013C24.9095 29.1013 26.6871 29.1346 27.5676 29.1624C29.9396 29.2568 33.6576 29.1235 33.6576 28.9348C33.6576 28.8515 33.708 28.7904 33.7753 28.7904C33.837 28.7904 33.8707 28.8626 33.8258 28.9459C33.7865 29.0791 33.8987 29.1013 34.5772 29.1013C35.0146 29.1124 37.4316 29.1235 39.9551 29.1346C42.4673 29.1457 44.4917 29.1235 44.4637 29.0736C44.4412 29.0347 44.4973 29.0014 44.587 29.0014C44.6936 29.0014 44.7216 29.0514 44.6824 29.1235C44.559 29.3179 47.2956 29.1568 47.7554 28.9292C48.5181 28.5573 48.5629 28.4018 48.5685 26.1533C48.5798 25.0429 48.6078 24.0714 48.6527 23.977C48.6919 23.8548 48.776 23.8326 48.9443 23.8826C49.2471 23.9881 50.3854 23.9326 50.5985 23.8215C50.7331 23.7383 50.7219 23.7272 50.5649 23.7161C50.4471 23.7161 50.3854 23.6661 50.4191 23.5828C50.4415 23.5217 50.5144 23.4662 50.5649 23.4773C50.6995 23.5106 50.806 21.8506 50.6883 21.6452C50.4359 21.2011 50.3967 21.1789 49.4433 21.1289L48.49 21.0789L48.4676 14.8331L48.434 8.59842H49.3648C50.2228 8.59842 50.2957 8.57622 50.5481 8.30973C50.7668 8.0821 50.8116 7.95996 50.7668 7.66572C50.7331 7.4714 50.7051 7.05502 50.7051 6.76632C50.7051 6.41656 50.6658 6.22779 50.5873 6.25C50.5256 6.26111 50.4415 6.21114 50.4191 6.13341C50.3854 6.05014 50.4303 6.02793 50.5649 6.07234C50.7331 6.13341 50.7331 6.12231 50.5985 5.97796C50.4303 5.8003 49.3985 5.71703 48.9274 5.84472C48.4564 5.96686 48.4171 5.85582 48.3498 3.99041C48.2321 1.10901 48.0134 0.698173 46.5834 0.737036C46.1628 0.748139 45.7703 0.725932 45.703 0.698173C45.5908 0.59824 43.8132 0.4761 42.9159 0.4761C42.5683 0.487203 41.9626 0.487203 41.5589 0.487203C41.1607 0.487203 39.0915 0.509411 36.9549 0.520514C34.8296 0.531618 32.6874 0.553825 32.1939 0.570481C31.7005 0.587136 31.0948 0.609344 30.8369 0.603792C26.7769 0.542722 23.4122 0.520514 23.2328 0.564929C23.0982 0.59824 23.0029 0.65931 23.0253 0.698173C23.0365 0.737036 23.0029 0.78145 22.9412 0.792554C22.8907 0.814761 22.8346 0.759243 22.8346 0.687069C22.8346 0.592688 22.3299 0.564929 20.6925 0.564929C19.027 0.564929 18.5615 0.59824 18.5671 0.687069C18.5896 0.759243 18.5279 0.820313 18.4325 0.820313C18.3484 0.820313 18.298 0.78145 18.326 0.725932C18.4494 0.53717 17.7708 0.509411 13.0043 0.509411C10.3574 0.509411 7.34605 0.487203 6.30861 0.470548C4.93472 0.437237 4.27861 0.464996 3.90289 0.559377ZM25.1618 3.36305C39.4784 3.38526 44.2169 3.35195 44.2169 3.26867C44.2169 3.17429 44.2506 3.18539 44.3011 3.26867C44.3403 3.34084 44.6151 3.41302 44.8955 3.42412L45.417 3.45743L45.4282 3.97375C45.4506 4.80097 45.5852 13.1676 45.574 13.3452C45.5404 14.228 45.574 20.8846 45.6245 23.2053C45.6749 25.5259 45.6637 26.1866 45.5628 26.2477C45.4899 26.2866 45.0917 26.3088 44.6936 26.2977C43.9197 26.2643 41.0934 26.2643 30.2593 26.2754C24.6403 26.2866 23.9113 26.3088 23.9618 26.442C24.001 26.5475 23.9506 26.5975 23.816 26.5975C23.6814 26.5975 23.6253 26.5475 23.6702 26.442C23.7206 26.3088 23.0645 26.2977 18.4101 26.2977C15.4941 26.3088 12.2416 26.3365 11.1817 26.3698C10.1331 26.4087 9.28071 26.4087 9.28071 26.3587C9.28071 26.2366 8.91621 26.2754 8.77602 26.4087C8.68069 26.5031 8.619 26.5142 8.56853 26.4309C8.52928 26.3476 8.02458 26.3088 7.20024 26.2977C6.48806 26.2865 5.85999 26.2588 5.82074 26.2255C5.77027 26.1922 5.72541 25.8035 5.72541 25.3372C5.72541 24.6432 5.70298 24.5211 5.56839 24.571C5.46184 24.6099 5.41138 24.5599 5.41138 24.4267C5.41138 24.2934 5.46184 24.2379 5.56839 24.2823C5.70298 24.3323 5.72541 23.8771 5.73662 20.5848C5.77588 8.19869 5.77588 8.34304 5.63008 8.29307C5.54596 8.25976 5.52353 8.2209 5.59643 8.17649C5.75345 8.08211 5.77588 6.83294 5.63008 6.37214C5.55718 6.16672 5.53475 5.9391 5.59082 5.86693C5.63008 5.79475 5.67494 5.21181 5.69737 4.59556C5.70859 3.96265 5.7198 3.39636 5.7198 3.31308C5.73102 3.2187 5.7927 3.1965 5.91607 3.26312C6.0114 3.30198 14.6754 3.35195 25.1618 3.36305Z" fill="white"/>
<path opacity="1" d="M38.9904 5.90893L36.7527 5.93129L36.3412 6.32818C35.9918 6.66358 35.9185 6.79774 35.8678 7.28967C35.7494 8.27911 35.7494 9.66544 35.8452 11.8791C35.896 13.0586 35.9298 14.2046 35.9072 14.4337C35.8847 14.6629 35.8678 16.5803 35.8678 18.7101L35.8565 22.5673L36.1101 22.9753C36.2454 23.1934 36.5103 23.4337 36.6963 23.5176C37.1191 23.6965 41.3407 23.7356 41.8988 23.5679C42.4117 23.4114 42.8231 22.8915 42.8851 22.3157C42.9922 21.3039 42.9471 13.6008 42.8344 13.3101L42.716 13.0306H41.2731C40.298 13.0306 39.7907 13.0698 39.7062 13.1536C39.6216 13.2375 39.5822 13.6456 39.5822 14.2772V15.2778L39.8978 15.4567L40.2135 15.6468L40.2247 16.8151C40.2247 17.4636 40.2247 18.5033 40.2135 19.1517C40.2022 19.8505 40.2473 20.3927 40.3206 20.5045C40.4051 20.6387 40.4164 20.7729 40.3318 20.9741C40.2247 21.2536 40.2135 21.2536 39.43 21.2145C38.5338 21.1753 38.3703 21.1083 38.5338 20.9014C38.6522 20.7561 38.7029 13.4667 38.6071 10.04L38.5564 8.36296L39.3116 8.32383C40.4389 8.27352 40.4276 8.26234 40.4276 9.0114C40.4276 9.37476 40.4784 9.71016 40.5516 9.78283C40.6475 9.87786 40.6475 9.90581 40.5516 9.90581C40.3206 9.90581 40.4164 10.1965 40.67 10.2524C41.0476 10.3251 42.53 10.2636 42.6371 10.1574C42.6766 10.1071 42.7442 9.30209 42.7724 8.36296L42.8118 6.6524L42.5188 6.36172C42.2651 6.11017 42.0453 6.02632 41.3407 5.91452C41.2731 5.89216 40.2078 5.89216 38.9904 5.90893ZM8.94824 6.11017C8.85242 6.2052 8.82424 6.79774 8.85242 8.24557C8.88624 10.5822 8.87496 10.4033 8.99896 10.2077C9.08351 10.0847 9.10606 10.1126 9.10606 10.3307C9.10606 10.476 9.05533 10.6213 8.98206 10.6437C8.88624 10.6772 8.85805 11.1244 8.85805 12.1977C8.84678 13.5002 8.82423 13.7406 8.66642 13.8971C8.5086 14.0424 8.47478 14.2716 8.47478 15.2331C8.47478 15.8704 8.5086 16.3567 8.54805 16.3288C8.64387 16.2337 8.99896 16.558 8.99896 16.748C8.99896 16.8207 8.96515 16.8822 8.92569 16.8822C8.87496 16.8822 8.82987 18.3132 8.80733 20.0629C8.79605 21.8126 8.82987 23.2437 8.86933 23.2437C8.92005 23.2437 9.01587 23.3611 9.07787 23.5064C9.19624 23.7579 9.23569 23.7691 10.2446 23.7691C11.8003 23.7691 11.7157 23.9592 11.6875 20.1635C11.665 18.5033 11.6481 17.1002 11.6255 17.0443C11.5072 16.5971 11.5635 16.5747 13.0572 16.5747C14.6748 16.5747 15.2836 16.4573 15.6443 16.0828L15.8867 15.8201L15.9205 11.2977C15.943 8.25116 15.9092 6.69712 15.8359 6.56296C15.571 6.08222 15.2892 6.04309 12.0821 6.00955C9.86134 5.99278 9.02715 6.01514 8.94824 6.11017ZM13.0966 8.60892C13.1079 8.71513 13.1079 9.82755 13.1192 11.0909C13.1192 12.3543 13.153 13.299 13.1699 13.1983C13.2545 12.8853 13.4123 13.0083 13.4123 13.394C13.4123 13.6959 13.3785 13.7574 13.2432 13.707C13.1248 13.6679 13.0966 13.6959 13.1361 13.83C13.1868 13.9865 13.1248 14.0089 12.4935 13.9754C12.0934 13.953 11.7383 13.8692 11.6537 13.7965C11.4846 13.6288 11.4734 13.3269 11.6312 13.3269C11.7044 13.3269 11.727 12.5946 11.6819 10.94C11.6594 9.62631 11.6594 8.51948 11.6932 8.49153C11.7326 8.45799 12.0595 8.43004 12.4315 8.43004C12.9952 8.43563 13.0966 8.46358 13.0966 8.60892ZM17.944 6.07663C17.7636 6.28346 17.8256 8.59774 18.0172 8.55861C18.0792 8.54743 18.1412 8.60892 18.1412 8.69277C18.1412 8.77662 18.0792 8.83811 18.0172 8.81575C17.9214 8.80457 17.8707 8.97227 17.8481 9.34681C17.8256 9.78283 17.8481 9.88904 17.9552 9.82755C18.0623 9.76606 18.0623 9.77724 17.9778 9.90022C17.8087 10.1182 17.696 21.93 17.8538 22.6288C17.9496 23.0033 18.0623 23.2045 18.3272 23.389L18.6767 23.6573L21.4329 23.6182C24.5048 23.5791 24.7246 23.5232 25.0571 22.8859C25.2882 22.4387 25.384 18.9226 25.3277 12.8015C25.3051 10.3083 25.2882 7.82631 25.2882 7.30644C25.2882 6.70271 25.2488 6.317 25.1699 6.2611C25.0966 6.22756 25.0233 6.24992 25.0008 6.31141C24.95 6.49029 24.7697 6.46793 24.7697 6.27787C24.7697 6.15489 24.6006 6.12135 23.8735 6.12135C22.4306 6.12135 22.5376 5.77477 22.5489 10.5822C22.5602 12.8015 22.5884 15.2443 22.6222 15.9934C22.6729 16.9828 22.656 17.3797 22.5715 17.3797C22.3798 17.3797 22.4362 17.7766 22.6447 17.8884C22.7687 17.9722 22.7913 18.0226 22.6955 18.0785C22.6222 18.1399 22.5602 18.6542 22.5376 19.5878C22.5038 20.7952 22.4756 21.0468 22.3178 21.2033C22.1375 21.3822 22.1206 21.3822 21.9909 21.2033C21.8331 21.0076 21.3935 20.9741 21.0778 21.1418C20.7622 21.2983 20.4353 20.9965 20.5198 20.6219C20.5931 20.3089 20.6438 11.6555 20.5931 8.51948L20.5536 6.3729L20.1027 6.13253C19.7983 5.96483 19.5785 5.90334 19.4489 5.96483C19.2516 6.04868 18.5471 6.04868 18.2427 5.95365C18.1469 5.95365 18.0172 5.99278 17.944 6.07663ZM27.3117 6.06545C27.1933 6.22197 27.1539 10.0064 27.2722 10.5151C27.323 10.7108 27.323 11.2027 27.2948 11.6108C27.2553 12.0188 27.261 12.3934 27.3173 12.4661C27.4526 12.6338 27.3173 13.0195 27.1257 13.0195C27.0411 13.0195 27.0017 13.0698 27.0299 13.1257C27.0637 13.1872 27.0186 13.3046 26.9341 13.394C26.7424 13.5841 26.6917 15.0431 26.8721 15.1549C26.9341 15.1884 26.9791 15.3114 26.9791 15.4176C26.9791 15.5238 27.0299 15.6244 27.0975 15.6468C27.1933 15.6803 27.2215 16.6139 27.2215 19.0679C27.2102 21.03 27.2553 22.5058 27.3173 22.584C27.3681 22.6455 27.3681 22.7294 27.3286 22.7517C27.2779 22.7853 27.2553 23.0033 27.2779 23.2325L27.3173 23.6573L30.1243 23.6238C34.3065 23.5902 34.0641 23.8865 34.0754 18.7549C34.0754 15.3058 34.0641 15.1493 33.8668 14.9369C33.2356 14.2605 33.1623 14.1319 33.3314 14.0424C33.7541 13.8133 33.8556 13.3325 33.8781 11.7673C33.8894 10.9344 33.9119 9.41948 33.9289 8.40209C33.9627 6.6524 33.9514 6.53501 33.7372 6.33936C33.4103 6.01514 32.9199 5.95365 30.0679 5.94247C28.0782 5.94247 27.3962 5.96483 27.3117 6.06545ZM31.2459 8.44681C31.3079 8.55302 31.3079 9.34122 31.2459 12.399C31.2346 13.1592 31.1839 13.2039 30.3948 13.0754L29.9439 13.0139L29.8819 12.1083C29.8481 11.6052 29.8199 11.13 29.8086 11.0462C29.8086 10.9623 29.8424 10.3139 29.8819 9.60954L29.9552 8.33501H30.5639C30.8965 8.32942 31.2008 8.37973 31.2459 8.44681ZM31.2008 15.7754C31.2403 15.8368 31.2854 16.6418 31.2854 17.5586C31.2854 18.4754 31.2966 19.6549 31.2966 20.1859C31.3079 20.7058 31.2854 21.1865 31.2459 21.2368C31.1614 21.371 30.0679 21.3207 29.8875 21.1642C29.7692 21.0691 29.7523 20.9462 29.8143 20.6611C29.865 20.4542 29.9101 19.2747 29.9101 18.0337C29.9101 16.094 29.9326 15.7698 30.0792 15.6691C30.2764 15.5238 31.0881 15.5965 31.2008 15.7754Z" fill="white"/>
</svg>