<svg width="24" height="24" viewBox="0 0 24 24" fill="none" xmlns="http://www.w3.org/2000/svg">
<path opacity="1" fill-rule="evenodd" clip-rule="evenodd" d="M14 10.5C14 12.433 12.433 14 10.5 14C8.567 14 7 12.433 7 10.5C7 8.567 8.567 7 10.5 7C12.433 7 14 8.567 14 10.5ZM14.2374 15.8188C13.1802 16.563 11.8911 17 10.5 17C6.91015 17 4 14.0899 4 10.5C4 6.91015 6.91015 4 10.5 4C14.0899 4 17 6.91015 17 10.5C17 11.8913 16.5629 13.1804 15.8185 14.2377C15.8537 14.2586 15.8881 14.2815 15.9214 14.3065L19.152 16.7259C19.9967 17.3585 20.0849 18.5928 19.3387 19.339C18.5924 20.0852 17.3582 19.997 16.7256 19.1523L14.3062 15.9217C14.2812 15.8883 14.2583 15.854 14.2374 15.8188Z" fill="white"/>
</svg>