<svg width="24" height="24" viewBox="0 0 24 24" fill="none" xmlns="http://www.w3.org/2000/svg">
<path opacity="1" d="M12.1769 9.10892L14.8671 7.78122L12.1769 9.10892C12.7595 10.2895 13.8858 11.1078 15.1887 11.2971L15.5531 11.35L15.2894 11.6071C14.3466 12.5261 13.9165 13.8501 14.139 15.1476L14.2013 15.5106L13.8753 15.3392C12.71 14.7266 11.3178 14.7266 10.1525 15.3392L9.82655 15.5106L9.88881 15.1476C10.1114 13.8501 9.68117 12.5261 8.73843 11.6071L6.70863 13.6895L8.73843 11.6071L8.4747 11.35L8.83916 11.2971C10.142 11.1078 11.2683 10.2895 11.8509 9.10892L9.1607 7.78122L11.8509 9.10892L12.0139 8.77866L12.1769 9.10892Z" stroke="white" stroke-width="6"/>
</svg>