<svg width="84" height="34" viewBox="0 0 84 34" fill="none" xmlns="http://www.w3.org/2000/svg">
<path opacity="1" d="M82.36 22.1028C81.8792 22.4722 81.8165 22.5133 81.5447 22.8827C81.2103 23.3343 81.1057 23.519 81.2312 24.0116C81.2521 24.1347 81.3566 24.34 81.4193 24.4426C81.6702 24.7915 81.8165 24.9147 82.0046 25.1815C82.3809 25.6946 82.5481 25.8177 82.7363 26.4335C82.8199 26.7208 82.9035 27.5828 82.9244 27.8907V27.9112C82.8617 28.4038 82.8617 28.5064 82.8199 28.8348C82.7781 29.1427 82.6109 29.6148 82.4436 29.9021C81.5865 31.3388 81.5656 30.9694 80.7504 31.6672C80.5204 31.8725 79.956 32.1393 79.7051 32.3035C79.287 32.5498 79.287 32.4677 78.8271 32.6319C78.7435 32.6524 78.4718 32.714 78.3463 32.7345C78.2418 32.7345 77.8655 32.755 77.6983 32.6319C77.8446 32.5087 78.0119 32.5908 78.1582 32.4677C78.1582 32.4471 78.409 32.2624 78.3881 32.2419C78.2627 32.324 77.4474 32.5703 77.322 32.6319C77.2593 32.6729 77.1966 32.6934 77.1548 32.6113C77.0294 32.4061 76.883 32.5703 76.7576 32.365C76.7158 32.3035 76.444 32.3856 76.5067 32.3445C76.6113 32.3035 76.9457 32.2419 77.3638 31.893C77.3638 31.8725 77.0294 32.0777 77.0294 32.0572C76.8412 32.1598 76.235 32.2009 76.0259 32.2624C75.8378 32.1393 75.7333 31.9135 75.6287 31.7698C75.4824 31.5441 76.5485 31.4414 76.4231 31.2157C76.3395 31.0925 76.9875 30.8052 76.8203 30.8462C76.7785 30.8462 75.9632 31.1746 75.9423 31.1336C76.0677 30.682 76.1723 30.7026 76.1932 30.682C77.0084 30.3536 76.7158 30.4357 77.5729 30.0868C77.7401 30.0047 77.9701 29.9021 78.1582 29.7584C78.6808 29.389 78.8689 29.3274 79.1407 28.8348C79.1616 28.7938 79.287 28.5885 79.287 28.5475C79.3288 28.3833 79.3707 28.2807 79.3707 28.2191C79.4752 27.0492 79.0153 26.9261 78.6599 26.3308C78.3672 25.8383 78.0746 25.3457 77.9073 24.812C77.7819 24.1553 77.552 23.8269 77.8028 22.8827C77.9073 22.5954 77.991 22.267 78.1582 22.0207C78.3881 21.6718 78.5972 21.3023 78.8899 20.974C79.2243 20.6045 79.726 20.3582 80.165 20.0914C80.4577 19.9272 80.7295 19.8862 81.0221 19.7425C81.043 19.7425 81.0639 19.722 81.0848 19.722C81.712 19.4962 81.6074 19.6604 81.6702 20.0093C81.712 20.1735 81.6911 20.2966 81.8792 20.3172C81.9628 20.3172 81.482 20.7071 82.2555 20.4608C82.36 20.4198 82.3809 20.6045 82.4018 20.7071C82.4227 20.7892 82.1719 20.9124 82.2137 20.9534C82.4645 21.2202 82.5063 21.1381 82.6736 21.4665C82.7572 21.6307 82.7154 21.8565 82.569 21.9797C82.5272 21.9797 82.4436 22.0412 82.36 22.1028ZM48.4738 4.32858C48.5574 4.24648 48.7455 4.06176 48.8291 3.97967C48.8709 3.95914 48.8918 3.89757 48.8918 3.85652C48.8918 3.38446 48.8918 2.93292 48.8918 2.46085C48.8918 2.4198 48.8919 2.35823 48.8709 2.31718C48.202 2.80977 48.6828 1.94774 48.85 1.80407C48.8709 1.7425 48.8918 1.68092 48.8918 1.61935C48.8918 1.45515 48.8709 1.29096 48.8918 1.12676C48.9128 0.880467 48.8918 0.634173 48.8918 0.387879C48.8918 0.326305 48.8709 0.162109 48.85 0.162109C48.8082 0.162109 48.7037 0.244207 48.6619 0.285256C48.4947 0.449452 48.3274 0.634173 48.1393 0.798369C47.8048 1.12676 47.4494 1.43463 47.115 1.76302C46.7596 2.09141 46.4251 2.44033 46.0906 2.78925C45.8816 2.99449 45.6935 3.15869 45.5053 3.36393C45.2545 3.63075 45.0245 3.91809 44.7528 4.18491C44.481 4.43121 44.1883 4.65698 43.9166 4.92379C43.4985 5.33428 43.0595 5.7653 42.6414 6.17579C42.4533 6.38103 42.2442 6.56575 42.0561 6.771C41.8052 7.01729 41.5753 7.28411 41.3244 7.53041C41.1363 7.71513 40.9063 7.87932 40.7182 8.06404C40.2165 8.55663 39.7148 9.04922 39.2131 9.54181C38.8995 9.84967 38.565 10.1781 38.2514 10.4859C38.126 10.6091 38.126 10.6707 38.2514 10.7938C38.2933 10.8348 38.356 10.8759 38.3978 10.9169C38.356 10.958 38.356 10.999 38.3351 11.0196C38.356 11.0401 38.356 11.0401 38.3769 11.0606C38.5859 11.2659 38.795 11.4506 38.9831 11.6558C39.0667 11.7174 39.1922 11.779 39.1294 11.9226C39.1294 11.9226 39.1503 11.9432 39.1712 11.9637C39.5266 12.2921 39.673 12.4563 40.0074 12.8052C40.0701 12.8873 40.091 12.8668 40.1538 12.8052C40.2374 12.7231 41.0317 11.9637 41.1363 11.8816C41.1363 11.9021 40.53 12.641 40.53 12.641C40.4673 12.7231 40.321 12.9078 40.2583 12.9899C40.2583 13.0104 40.4046 13.0104 40.4046 13.0104C40.4464 12.9694 40.4882 12.9489 40.5509 12.9078C40.5091 13.0515 40.321 13.0925 40.5509 13.2567C40.6764 13.3799 40.8227 13.503 40.9272 13.6262C41.0527 13.7699 41.1154 13.7493 41.2408 13.6262C43.7284 11.1838 46.3415 8.67978 48.8291 6.23736C48.8709 6.19631 48.8918 6.11421 48.8918 6.05264C48.8918 5.6011 48.8918 5.14956 48.8918 4.69802C48.8918 4.65697 48.8918 4.63645 48.8918 4.57488C48.7455 4.69802 48.5992 4.82117 48.4529 4.94432L48.0766 5.23166C48.1811 5.10851 48.6619 4.6775 48.7873 4.57488C48.9128 4.47225 48.9128 4.36963 48.8918 4.24648C48.85 4.26701 48.8291 4.28753 48.8082 4.28753C48.8291 4.20544 48.8709 4.12334 48.9128 4.04124C48.8919 4.04124 48.8919 4.02072 48.8709 4.02072C48.7873 4.08229 48.7037 4.14386 48.6201 4.20544C48.5992 4.20544 48.4738 4.30806 48.4738 4.32858ZM41.1154 0.675222C40.9272 0.839418 40.7182 1.02414 40.53 1.20886C40.4046 1.31148 40.3001 1.45515 40.1747 1.5783C39.9447 1.80407 39.6939 1.98879 39.4639 2.21456C39.2549 2.39928 39.0876 2.62505 38.8995 2.80977C38.7323 2.97397 38.5232 3.13816 38.356 3.30236C36.7881 4.86222 35.1994 6.42208 33.6106 7.96142C33.5688 8.00247 33.5688 8.04352 33.5688 8.08457C33.6106 8.26929 33.5897 8.45401 33.5897 8.63873C33.5897 8.67978 33.5688 9.06974 33.5897 9.11079C35.7011 7.34568 34.9067 8.08457 33.6734 9.45971C33.6734 9.48023 33.6525 9.48023 33.6525 9.48023C33.5688 9.58286 33.5688 9.80862 33.5688 9.97282C33.5479 11.3274 33.5688 12.4973 33.5688 13.8314C33.5688 13.893 33.5479 13.934 33.6315 13.9751C33.6943 14.0161 33.7361 13.9546 33.7779 13.9135C34.7604 12.9489 35.7429 11.9637 36.7254 10.999C36.9345 10.8143 37.1226 10.6091 37.3107 10.4038C37.478 10.2191 37.6243 10.0549 37.7915 9.89072C37.8543 9.82915 37.9379 9.7881 38.0215 9.72653C38.4814 9.35709 38.8368 8.90555 39.234 8.47453C39.4639 8.22824 39.7357 7.98194 39.9865 7.73565C40.1329 7.59198 40.3419 7.46883 40.4882 7.32516C41.6589 6.19631 42.8295 5.06746 43.9793 3.91809C44.1047 3.79495 44.2301 3.6718 44.3556 3.52813C44.4601 3.44603 44.3765 3.46655 44.3556 3.4255C44.3347 3.38446 44.2929 3.34341 44.272 3.30236C44.1883 3.17921 44.1465 3.15869 44.0002 3.22026C43.9793 3.19974 43.9584 3.19974 43.9375 3.17921C43.8748 2.91239 43.6657 2.68662 43.5194 2.60452C43.4149 2.5019 43.4358 2.39928 43.2894 2.4198C43.2685 2.39928 43.2685 2.35823 43.2476 2.33771C43.2267 2.31718 43.1849 2.33771 43.164 2.35823C43.1013 2.4198 42.7459 2.76872 42.6623 2.83029C42.5578 2.91239 42.7877 2.60452 42.8086 2.56348C42.8086 2.54295 42.8086 2.54295 42.8086 2.54295C42.8295 2.48138 43.0177 2.33771 43.0386 2.29666L43.0177 2.21456C42.955 2.25561 42.8923 2.33771 42.8295 2.39928C42.725 2.46085 42.6205 2.52243 42.6205 2.52243C42.6623 2.46085 42.7877 2.29666 42.8295 2.23508C42.8713 2.17351 42.9341 2.13246 42.955 2.09141C42.9341 2.05036 42.8713 2.02984 42.8713 1.98879C42.8295 1.88617 42.725 1.78354 42.6205 1.76302C42.4742 1.7425 42.3069 1.7425 42.3278 1.53725C42.3278 1.51673 42.3069 1.51673 42.3069 1.4962C42.2233 1.37305 42.1606 1.22938 42.077 1.10624C42.0561 1.08571 42.0143 1.06519 41.9934 1.06519C41.8679 1.06519 41.7425 1.08571 41.638 1.08571C41.6589 1.04466 41.6798 0.983089 41.6798 0.921516C41.6798 0.859942 41.6798 0.736795 41.5962 0.695746L41.3035 0.859942L41.2826 0.572599C41.1781 0.511026 41.0945 0.654697 41.1154 0.675222ZM14.6084 25.0378C14.5039 24.8941 14.4621 24.8326 14.3576 24.6889C13.7513 23.8269 13.166 23.088 12.5598 22.2054C12.3925 21.9797 12.3089 22.1439 12.1626 21.8976C12.1208 21.8155 12.0999 21.7128 11.9535 21.7744C11.9326 21.7744 11.9117 21.7334 11.8908 21.7334C11.8281 21.7128 11.7445 21.7128 11.7027 21.7334C11.6609 21.7539 11.5146 21.7128 11.4936 21.7539C11.4518 21.836 11.4936 21.9386 11.4518 22.0412C11.41 21.6923 11.5355 21.7334 11.0965 21.7128C10.8874 21.7128 10.6993 21.7334 10.4902 21.7334C10.4693 21.7334 10.4484 21.7334 10.4275 21.7334C10.093 21.7539 10.0512 21.6923 10.0512 21.8976V22.0207C10.0303 22.0207 10.0303 22.0207 10.0303 21.9386C10.0094 21.8565 10.0303 21.8155 10.0094 21.7539C10.0094 21.7128 9.94671 21.7334 9.92581 21.7334C9.9049 21.7334 9.84219 21.7334 9.82128 21.7539C9.80038 21.7744 9.80038 21.9591 9.80038 22.0002C9.80038 25.5304 9.80038 28.7322 9.80038 32.2624C9.80038 32.324 9.82128 32.4677 9.82128 32.5292C9.82128 32.6524 9.84219 33.1245 10.0512 33.1039C10.1767 33.1039 10.3648 33.4529 10.4902 33.4118C10.5111 33.4118 10.532 32.4471 10.5529 32.4471C10.5948 32.4471 10.6366 33.7197 10.6575 33.7197C10.762 33.7197 10.8038 33.6581 10.9083 33.6991C10.9501 33.6991 10.971 33.7197 11.0128 33.7197C11.4727 33.617 11.0128 33.9249 11.4727 33.8633C11.7236 33.8428 11.8699 33.8839 12.0581 33.8633C12.288 33.8428 12.2044 33.9454 12.2462 33.0834C12.2671 33.0013 12.288 32.8987 12.3716 32.8371C12.5389 32.6934 12.6225 32.9192 12.6016 32.6319C12.6016 32.2214 12.6016 31.462 12.6016 31.0515C12.6016 29.8405 12.5807 28.6296 12.5807 27.4186C12.5807 27.316 12.5598 26.9466 12.5807 26.8029C12.7479 26.9876 12.8315 27.1313 12.8524 27.1724C13.6677 28.4243 14.3994 29.6558 15.2356 30.9283C15.2983 31.031 15.4028 31.1541 15.4446 31.2567C15.57 31.4209 15.6955 31.462 15.8209 31.462C15.9672 31.462 16.0926 31.462 16.239 31.462C16.5525 31.462 16.7616 31.4825 17.0752 31.4825C17.1797 31.4825 17.1797 31.4414 17.1797 31.3388C17.1797 31.1952 17.1797 30.8257 17.2006 30.7026C17.2424 30.8257 17.2424 31.1746 17.2424 31.2978C17.2424 31.5646 17.326 31.503 17.5142 31.503C17.6396 31.5235 17.5978 31.3183 17.5978 31.2362C17.5978 27.747 17.5978 23.8269 17.5978 20.3377C17.5978 20.2761 17.5769 20.2351 17.5769 20.1735C17.556 20.1735 17.5351 19.9888 17.5142 19.9888C17.4932 20.0504 17.3678 20.4198 17.3469 20.4814C17.2842 20.4198 17.326 20.2351 17.2633 20.1735C17.2215 20.153 17.2842 19.4757 17.2424 19.4757C17.1588 19.4757 16.9915 19.4757 16.887 19.4757C16.6571 19.4757 16.6153 19.4757 16.5944 19.7014C16.5525 19.7014 16.5107 19.6604 16.4689 19.6809C16.4062 19.722 16.3226 19.722 16.2808 19.6809C16.239 19.6604 16.2181 19.5783 16.1763 19.5783C16.0926 19.5783 15.9672 19.5783 15.8836 19.5783C15.4655 19.5988 15.5909 19.4757 15.57 20.3582C15.5909 20.3993 15.5491 20.153 15.5491 20.3172C15.4864 20.194 15.4655 20.1735 15.4655 20.0093C15.4655 19.9477 15.4655 19.9477 15.131 19.9477C15.131 19.9683 15.131 20.0914 15.131 20.0914C14.8802 20.1119 14.8593 20.3172 14.8593 20.7892C14.8593 21.0355 14.692 20.9329 14.692 21.1792C14.692 22.5338 14.692 23.8269 14.692 25.0994L14.6084 25.0378ZM1.91937 21.2818C1.87756 21.2408 1.83575 21.2202 1.79394 21.1997C1.77304 21.1997 1.73123 20.7071 1.71033 20.7071C1.62671 20.6866 1.56399 20.6866 1.48038 20.6866C1.43857 20.6661 1.45947 20.8919 1.41766 20.8919C1.33404 20.8919 1.1459 20.8919 1.06229 20.8919C0.957763 20.8713 1.02048 20.7482 0.915954 20.7482C0.89505 20.7482 0.811432 20.7071 0.790527 20.7687C0.748718 20.8919 0.727814 21.1587 0.706909 21.1587C0.497864 21.0971 0.456055 21.1792 0.456055 21.3844C0.456055 23.6627 0.456055 25.7356 0.456055 28.0139C0.456055 28.568 0.518768 29.1427 0.644195 29.6969C0.999573 30.7641 1.48038 31.1952 1.89847 31.5646C2.21204 31.8519 2.73465 32.2214 3.25726 32.3856C4.23977 32.6934 5.38952 32.5087 5.89123 32.3445C6.6438 32.1393 6.99917 31.9135 7.5845 31.4414C7.70993 31.3388 7.83535 31.2157 7.93988 31.0925C8.56701 30.3126 8.85968 29.2453 8.85968 28.2601C8.85968 25.6946 8.88058 27.8907 8.92239 20.8919C8.92239 20.7892 9.11053 20.5429 9.11053 20.4403C9.11053 20.3582 8.71334 20.3787 8.62973 20.3787C8.39978 20.3582 8.14892 20.3787 7.91897 20.3787C7.70993 20.3787 7.5845 20.4814 7.37545 20.4814C7.29184 20.4814 7.20822 20.4608 7.18731 20.5635C7.16641 20.7071 7.04098 21.6718 7.02008 21.7949C6.87375 20.8303 7.1455 20.4403 6.85284 20.4814C6.56018 20.4814 6.24661 20.4814 5.95395 20.4814C5.82852 20.4814 5.7449 20.584 5.7449 20.6866C5.7449 23.1906 5.7449 25.243 5.7449 27.7265C5.7449 27.9523 5.7449 27.9728 5.70309 28.1781C5.53586 28.8348 5.13867 29.0606 4.3443 28.999C3.94711 28.9375 3.67535 28.7733 3.50812 28.3012C3.4454 27.7676 3.46631 27.316 3.4245 26.7824C3.50812 24.5452 3.40359 23.6421 3.40359 21.6923C3.40359 21.4255 3.52902 21.3023 3.19455 21.3229C3.00641 21.3023 2.83917 21.3023 2.65103 21.3023C2.60922 21.3023 2.58832 21.3434 2.54651 21.3639C2.40018 21.3229 2.25384 21.2818 2.10751 21.3229C2.0448 21.3434 2.0448 21.5486 2.00299 21.6718C1.98209 21.6513 1.96118 21.3023 1.91937 21.2818ZM30.8512 23.7242C31.8965 23.7242 32.6908 23.7242 33.757 23.7242C33.9869 23.7242 33.9869 23.56 33.9451 23.3548C33.9242 23.3343 33.9242 23.2932 33.9242 23.2727C33.9242 22.698 33.9242 22.1028 33.9242 21.5281C33.9242 21.1381 33.9242 21.2818 33.6943 21.2408C33.6943 21.015 33.7152 21.015 33.5688 21.015C31.4784 21.015 29.4924 21.0355 27.402 21.0355C27.3602 21.0355 27.1511 21.015 27.1093 21.015C27.0048 21.015 26.8167 21.015 26.7749 21.0355C26.7958 21.056 26.9421 21.1792 27.0675 21.2202C27.1302 21.2408 27.2348 21.2818 27.3393 21.3023C27.4229 21.3229 27.4438 21.3229 27.5274 21.3844C27.3602 21.4255 26.4822 21.3023 27.2557 21.6307C27.3184 21.7128 27.3811 21.7334 27.402 21.8155C27.4856 21.9181 27.5483 21.7539 27.5901 22.7185C27.611 23.3753 27.5901 23.7653 27.5901 24.4221C27.5901 24.5657 27.611 25.1404 27.611 25.2841C27.611 25.5509 27.611 25.6741 27.611 25.9409C27.611 26.1461 27.6319 26.4129 27.6319 26.6182C27.611 27.0492 27.6319 27.4392 27.6319 27.8702C27.6319 28.958 27.6738 30.6615 27.6738 31.8109C27.6738 31.8725 27.8619 31.9546 27.8619 32.0161C27.8619 32.1598 27.9664 32.2624 28.1127 32.2624C28.3636 32.2624 28.5308 32.2624 28.7608 32.2624C28.8026 32.2624 28.8444 32.2624 28.9071 32.2624C28.9071 32.0367 28.9698 31.8109 28.9698 31.6056L29.0325 31.2157C29.0535 31.4414 29.0744 32.0367 29.0953 32.2624C29.158 32.2624 29.158 32.2624 29.1998 32.2624C29.3252 32.2624 29.4506 32.2624 29.5761 32.2624C29.7224 32.2624 29.8687 32.2624 30.0151 32.2624C30.0987 32.2624 30.2032 31.6262 30.2868 31.6262C31.3948 31.6262 32.0637 31.6262 33.1716 31.6262C33.2135 31.6262 33.2762 31.6262 33.318 31.6262C33.6524 31.6262 33.5897 31.503 33.6106 31.3183C33.6106 31.1952 33.6106 31.0925 33.6106 30.9694C33.6106 30.6205 33.4434 30.3536 33.4852 30.0253C33.5061 29.779 33.5061 29.5532 33.4643 29.3069C33.4225 29.1017 33.5688 28.9169 33.1507 28.9375C32.3355 28.9375 32.1264 28.8759 31.3111 28.8759C31.0812 28.8759 30.5586 28.8964 30.3077 28.8964V27.6444C30.475 27.6444 30.914 27.6239 31.0603 27.6239C31.9174 27.6239 32.6072 27.6649 33.4643 27.6649C33.5061 27.6649 33.6524 27.5828 33.6734 27.5623C33.7988 27.6239 33.7988 27.6239 33.7988 27.1108C33.7779 26.9876 33.7988 26.7413 33.7988 26.6182C33.7988 26.5156 33.5479 26.5566 33.3807 26.495C33.527 26.4745 33.7988 26.5156 33.7988 26.3924C33.7988 26.0846 33.8197 25.6946 33.8197 25.3867C33.8197 25.161 33.7779 25.1199 33.5479 25.1199C32.8581 25.1199 32.3564 25.0994 31.6665 25.0994C31.332 25.0994 30.684 25.0789 30.3286 25.0789V23.7242C30.3913 23.7242 30.7467 23.7448 30.8512 23.7242ZM37.0181 3.48708C35.8892 2.39928 34.7813 1.31148 33.6734 0.223683C33.6524 0.182634 33.5897 0.162109 33.5688 0.182634C33.527 0.203158 33.5061 0.264732 33.5061 0.305781C33.5061 0.962565 33.5061 1.59882 33.5061 2.25561C33.5061 2.31718 33.527 2.37876 33.5688 2.44033C33.6315 2.52243 33.7152 2.60452 33.7779 2.68662C33.7779 2.70715 33.757 2.70715 33.757 2.70715C33.6943 2.64557 33.6315 2.584 33.5688 2.52243C33.5688 2.54295 33.5479 2.54295 33.5479 2.54295C33.6106 2.62505 33.6525 2.70715 33.7152 2.78925L33.6943 2.80977C33.6315 2.7482 33.5897 2.6661 33.527 2.60452C33.4852 2.78925 33.527 2.91239 33.6525 3.03554C33.7361 3.11764 33.7988 3.22026 33.8824 3.32288L33.8615 3.34341C33.757 3.22026 33.6315 3.11764 33.527 2.99449C33.5061 3.01501 33.5061 3.03554 33.5061 3.03554C33.5061 4.06176 33.5061 5.06746 33.5061 6.09369C33.5061 6.13474 33.5061 6.15526 33.527 6.17579C33.6524 6.29893 33.7988 6.44261 33.9451 6.58628C33.966 6.54523 34.0078 6.50418 34.0287 6.48366C34.7813 5.74477 35.513 5.02642 36.2655 4.28753C36.4328 4.14386 36.4328 4.14386 36.2864 3.97967C36.2028 3.89757 36.1401 3.79495 36.0565 3.69232C36.0774 3.69232 36.0774 3.69232 36.0774 3.69232C36.2237 3.836 36.3491 3.95914 36.4955 4.08229C36.6836 3.89757 36.8717 3.71285 37.0599 3.52813C37.039 3.5076 37.039 3.5076 37.0181 3.48708ZM48.3483 7.67408C47.3449 8.65925 46.3206 9.66495 45.2963 10.6707C45.2963 10.6912 45.2963 10.7117 45.2963 10.7117C45.9861 11.3685 46.676 12.0458 47.3658 12.7231C47.763 13.1131 48.1811 13.503 48.5783 13.9135C48.641 13.9751 48.7664 14.0367 48.8082 14.0161C48.85 14.0161 48.8291 13.9956 48.85 13.8109C48.85 13.6672 48.85 13.5236 48.85 13.3799C48.85 13.3594 48.85 13.3183 48.8291 13.2978C48.7664 13.2157 48.6619 13.1336 48.5783 13.0515C48.4947 12.9489 48.3901 12.8668 48.3065 12.7642C48.3274 12.7642 47.9721 12.3947 47.9721 12.3947C48.1393 12.5384 48.7455 13.031 48.8918 13.1541C48.8918 12.0663 48.8918 11.0606 48.8918 9.99335C48.8918 9.97282 48.85 9.91125 48.8291 9.89072C48.7664 9.82915 48.432 9.41866 48.3692 9.35709C48.3692 9.35709 48.641 9.60338 48.641 9.58286C48.7037 9.6239 48.8082 9.76758 48.8709 9.80862C48.8919 9.7881 48.8918 9.76758 48.8918 9.76758C48.8918 9.19289 48.8918 8.57715 48.8918 8.02299V8.00247C48.7455 7.87932 48.6201 7.73565 48.4738 7.59198C48.432 7.6125 48.432 7.6125 48.3483 7.67408ZM58.8633 25.8177C58.9051 26.5566 58.717 27.2544 58.4243 27.9318C58.1317 28.5885 57.6927 29.1427 57.1909 29.6353C56.8565 29.9637 56.5429 30.3126 56.1039 30.5384C55.644 30.7641 55.205 30.9899 54.7242 31.0925C54.5152 31.1336 54.327 31.1131 54.118 31.1336C54.118 31.1541 53.4699 31.0515 53.4699 31.031C53.4699 31.0104 53.9717 31.0104 53.9926 30.9899C53.9926 30.9899 54.3897 30.9899 54.4106 30.9899C54.7451 30.8668 54.8078 30.7641 55.1423 30.6615C55.3514 30.5794 55.5813 30.5178 55.6858 30.3331C55.7485 30.251 55.7903 30.1689 55.874 30.1074C55.9994 30.0047 56.083 30.0253 56.2084 29.9432C56.2293 29.9226 56.3966 29.779 56.4175 29.7584C56.4802 29.6763 56.6683 29.43 56.6683 29.4095C56.4593 29.5327 55.8112 30.0047 55.6231 30.1484C55.2886 30.3947 54.9542 30.5999 54.5152 30.641C54.0553 30.6615 53.6163 30.8052 53.1564 30.7436C52.7383 30.682 52.3202 30.641 51.9021 30.5178C51.5049 30.3947 51.3168 30.251 51.7558 30.5999C51.7976 30.641 51.7558 30.7231 51.7558 30.7847C51.7558 30.9283 51.6931 30.9899 51.5885 31.0104C51.5467 31.031 51.5467 31.0925 51.5885 31.1131C51.7349 31.1746 51.8812 31.2362 51.8812 31.4209C51.8812 31.6467 51.8812 31.6262 52.1112 31.6672C52.2575 31.6877 52.2575 31.7083 52.3411 31.8519C52.362 31.893 52.4456 31.893 52.5083 31.9135C52.571 31.934 52.6129 31.9751 52.6756 32.0161C52.6129 32.0572 52.5292 32.3035 52.4874 32.3035C49.958 32.3035 47.3867 32.3035 44.8364 32.3035C44.7946 32.3035 44.8782 32.5498 44.8155 32.5498C44.7737 32.5498 44.69 32.5498 44.6273 32.5292C44.5646 32.5087 44.5437 32.5498 44.5019 32.5292C44.4392 32.4882 44.1465 32.0161 44.0838 31.9751C44.0629 31.9956 44.0211 31.934 44.0002 31.934C43.9166 32.0161 43.9584 32.0161 43.9584 32.0982C43.9375 32.2419 43.9584 32.324 43.8748 32.365C43.7493 32.4266 43.7702 32.4471 43.6448 32.5292C43.5821 32.4471 43.5403 32.4471 43.4567 32.3445C43.4567 32.324 43.4358 32.324 43.4149 32.3445C43.3731 32.3856 43.4985 32.5498 43.1431 32.6113C43.1222 32.6319 42.9759 32.4471 42.955 32.4266L42.8086 32.1598C42.7668 32.0572 42.6832 32.0982 42.5578 32.1803C42.4742 32.2419 42.4742 32.1188 42.2651 31.9546C42.2651 31.9956 42.286 32.0161 42.286 32.0367C42.3069 32.0572 42.3069 32.0982 42.3278 32.1188C41.9725 32.324 41.9306 32.3035 41.7843 32.0982C40.8227 30.7231 39.882 29.3685 38.9204 27.9933C38.8368 27.8907 38.7741 27.8702 38.6277 27.8702C38.2724 27.8702 38.0424 27.8497 37.7288 27.8291C37.248 27.8086 37.248 27.8086 37.248 27.9728C37.248 29.2248 37.248 30.4973 37.248 31.7493C37.248 31.8109 37.248 31.893 37.2062 31.934C37.1853 31.9546 37.1226 31.934 37.0808 31.9546C37.0181 31.9751 37.1226 32.1803 37.0599 32.1803C36.9763 32.1803 36.9763 32.2419 36.8927 32.2419C36.7881 32.2419 36.6836 32.283 36.6 32.365C36.5582 32.4061 36.4955 32.4266 36.4746 32.4471C36.4328 32.3651 36.5582 32.1598 36.5164 32.0777C36.5164 32.0572 36.4537 32.2214 36.4118 31.9956C36.3491 31.7698 36.2446 32.2624 36.0983 32.3035C35.9519 32.3445 35.8683 32.0777 35.722 32.0572C35.6175 32.0367 35.4084 32.2009 35.3039 32.1598C35.2621 32.1393 35.2412 32.1803 35.1994 32.1803C35.0321 32.1803 35.0112 32.0982 34.8649 32.0982C34.844 32.0982 34.6977 32.1803 34.6559 32.1803C34.5932 32.1803 34.0078 32.1598 33.9451 32.1598C33.9451 32.1188 34.1124 31.9956 34.1333 31.934C34.1333 31.9135 34.3214 31.8725 34.3423 31.8519C34.7186 31.5235 34.6141 31.0104 34.6141 30.5589C34.6141 30.1689 34.6141 29.779 34.6141 29.389C34.6141 27.8086 34.5932 26.2487 34.5932 24.6889C34.5932 23.95 34.635 23.2111 34.635 22.4722C34.635 21.3844 34.6371 21.5671 34.4259 20.974C34.4531 21.0458 34.4426 21.015 34.2796 20.9124C34.2608 20.898 34.1312 20.7872 34.1312 20.7667C34.1291 20.7256 34.1981 20.7071 34.1479 20.6969C34.0873 20.6722 34.2022 20.6476 34.2022 20.6476C33.7235 20.508 34.5074 20.4608 34.6956 20.4608C35.1346 20.4608 35.6363 20.5429 36.0753 20.5635C37.0996 20.625 38.0403 20.6661 39.0437 20.6661C39.65 20.6661 40.0471 20.7277 40.5698 20.9945C41.385 21.3844 41.9076 21.9386 42.3048 22.6364C42.6184 23.1701 42.7647 23.7858 42.7438 24.4221C42.702 25.202 42.263 25.8383 41.8449 26.454C41.7404 26.5977 41.615 26.7413 41.4896 26.8645C41.4268 26.9261 41.4477 26.9876 41.4896 27.0492C42.2212 28.0139 42.932 28.8554 43.6636 29.82C43.7891 29.9842 43.9981 30.1895 44.1235 30.3537C44.1444 30.3947 44.019 30.2716 44.0817 30.3331C44.1026 30.251 44.1026 30.251 44.1026 30.1895C44.1026 29.7995 44.1026 29.4095 44.1026 29.0196C44.1235 26.9466 44.1235 24.8941 44.1235 22.8212C44.1235 22.4312 44.1026 22.267 44.019 21.7334C43.9772 21.4255 43.8309 21.3844 43.6427 21.1587C43.6009 21.0971 43.4337 20.974 43.3919 20.9124C43.4964 20.7892 43.7682 20.7687 43.9563 20.8919C44.019 20.8508 44.0817 20.8098 44.1653 20.7687C44.1653 20.7687 44.1653 20.7277 44.1653 20.7071C44.1653 20.584 44.2699 20.6866 44.3953 20.6866C44.5207 20.6866 44.667 20.6866 44.8134 20.6866C44.9597 20.6866 45.0642 20.5224 45.2106 20.5224C45.2942 20.5224 45.3778 20.5224 45.4614 20.5224C45.5868 20.5224 45.6914 20.5429 45.7959 20.5429C45.8168 20.625 45.8168 20.7071 45.8168 20.7892C46.1931 20.8303 46.4439 20.4814 46.8202 20.5224C46.8411 20.6045 46.8411 20.6866 46.862 20.7687H47.1338C47.1547 20.7687 47.1756 20.7892 47.1756 20.8098C47.1756 20.974 47.1547 21.4255 47.1547 21.4871C47.1547 24.0526 47.092 26.6387 47.1547 29.2248C47.1547 29.6148 47.0711 29.5532 47.74 29.5532C48.1372 29.5737 48.4299 29.5737 48.827 29.5737C49.6841 29.5737 49.8932 29.6148 50.1649 29.5942C50.1231 29.5327 49.6423 29.3069 49.6005 29.2659C49.1824 28.9375 48.9316 28.5885 48.618 28.1575C48.179 27.5213 47.97 26.844 47.9491 26.0846C47.9072 25.202 48.0954 24.381 48.5553 23.6011C48.5762 23.56 48.5762 23.5395 48.5971 23.4985C48.6389 23.3958 48.6598 23.2522 48.7225 23.1701C48.9525 22.8622 49.2033 22.5543 49.4542 22.267C49.5169 22.1849 49.6005 22.1439 49.6632 22.1028C50.0395 21.8565 50.3322 21.5486 50.7085 21.3229C50.9175 21.1997 51.2102 21.1587 51.4401 21.0561C51.461 21.0355 51.8791 20.9534 51.9418 20.9534C51.3774 21.2202 50.7294 21.6718 50.5203 21.836C50.4994 21.8565 50.4994 21.8565 50.4994 21.8565C50.4576 21.9181 50.1231 22.3696 50.144 22.3901C50.3531 22.1644 50.8966 21.7744 51.0847 21.6102C51.6073 21.1792 52.2345 21.0766 52.9034 21.0971C53.1125 21.0971 53.3006 21.0766 53.4888 20.9945C53.7396 20.8919 53.9905 20.8713 54.2413 20.9945C54.3877 21.0766 54.5549 21.0766 54.7012 21.0971C54.743 21.0971 54.7848 21.0766 54.8266 21.0971C55.6837 21.405 56.5408 21.6718 57.2516 22.2465C57.2725 22.2465 57.2725 22.267 57.2725 22.267C57.6697 22.7596 58.0878 23.2111 58.4222 23.7448C58.6731 24.1347 58.8194 24.5657 58.8612 25.0378C58.8842 25.2636 58.9469 25.5099 58.8633 25.8177ZM39.7984 24.6273C40.0283 24.1553 39.9447 23.3958 39.2131 23.129C38.8577 23.0059 38.7113 23.0469 38.4187 23.0264C38.4187 23.0469 38.4187 23.0469 38.4187 23.0469C37.917 23.0469 37.6661 23.0469 37.1853 23.0469C37.1435 23.0469 37.1226 23.088 37.1226 23.1085C37.1226 23.7653 37.1435 24.4221 37.1435 25.0789C37.1435 25.0994 37.1853 25.1199 37.2062 25.1199C37.7288 25.1199 38.2305 25.1609 38.7323 25.1199C39.004 25.0994 39.0876 25.1199 39.3594 25.0378C39.4639 25.0173 39.7775 24.7505 39.7984 24.6273ZM55.9576 25.7972C55.9158 25.2225 55.6649 24.8941 55.2886 24.4631C55.1841 24.34 55.0796 24.2579 54.9542 24.1963C54.5779 24.0116 54.118 23.8679 53.7208 23.7858C53.5536 23.8063 53.4072 23.8063 53.24 23.8269C52.8219 23.8679 52.4874 23.9705 52.1321 24.1963C51.5049 24.6068 51.0868 25.161 51.1286 25.9204C51.1913 26.7413 51.5467 27.3365 52.3202 27.6649C52.8637 27.8907 53.449 27.8702 54.0344 27.7676C54.5779 27.6649 55.0587 27.4392 55.4559 27.0697C55.8322 26.7208 55.9994 26.3103 55.9576 25.7972ZM77.6774 25.7562C77.7401 26.5977 77.5938 27.3776 77.322 28.137C77.1548 28.6296 76.8621 29.0401 76.5276 29.43C76.2768 29.7379 75.7751 30.1689 75.4406 30.3742C75.1479 30.5589 74.6671 30.7641 74.3745 30.9283C73.7473 31.2567 73.0784 31.3388 72.3885 31.503C71.9495 31.6056 71.4269 31.5441 70.967 31.6262C70.9043 31.6467 70.8207 31.6467 70.7371 31.6467C70.5071 31.6467 70.3817 31.6467 70.1518 31.6262C70.0681 31.6262 69.9845 31.6056 69.9218 31.6262C69.9636 31.6877 70.2563 31.9751 70.2981 32.0367C70.3608 32.0982 70.4653 32.1598 70.2563 32.2214C70.1727 32.2624 70.089 32.324 70.0263 32.3856C69.9427 32.4677 69.8591 32.4677 69.7964 32.365C69.7337 32.2624 69.6291 32.2624 69.5455 32.3445C69.441 32.4266 69.4619 32.5498 69.3783 32.4677C69.3783 32.4471 69.3574 32.4471 69.3574 32.4266C69.2738 32.3445 69.2111 32.283 69.0438 32.3035C68.7512 32.3445 68.8975 32.5908 69.002 32.7345C69.002 32.7345 68.9393 32.8371 68.9602 32.8576C68.8766 32.9603 68.7512 32.714 68.6675 32.6319C68.5421 32.5087 68.5212 32.4677 68.4167 32.3445C68.3958 32.3035 68.3331 32.3035 68.2913 32.324C68.1449 32.4266 67.9986 32.5498 67.8523 32.6319C67.8104 32.6524 67.7059 32.6319 67.6641 32.5908C67.5596 32.5087 67.3924 32.324 67.3087 32.2214C67.2878 32.2214 67.2878 32.2419 67.2669 32.2419C67.3297 32.3651 67.3924 32.4882 67.4551 32.6113C67.4551 32.6113 67.6014 32.8166 67.6014 32.8371C67.5596 32.8166 67.3087 32.6113 67.2878 32.5703C66.9952 32.2214 66.598 31.7493 66.3262 31.3799C65.4273 30.1895 64.6539 28.958 63.7759 27.747C63.6923 27.6239 63.4832 27.5213 63.3369 27.5213C62.9815 27.5213 62.647 27.5213 62.2917 27.5213C62.1662 27.5213 62.1035 27.5828 62.1035 27.7265C62.1035 27.8086 62.1244 28.0344 62.1244 28.137C62.1453 29.3479 62.1244 30.5794 62.1035 31.7904C62.1035 31.8519 62.0826 31.893 62.0408 31.934C62.0199 31.934 61.8945 31.5646 61.8318 31.5441C61.8109 31.7288 61.9572 32.4061 61.3091 32.1188C60.9956 31.9546 60.6193 31.9546 60.2848 32.1188C59.9713 32.2624 59.8876 32.0367 59.6577 32.0367C59.6786 31.934 59.6995 31.8314 59.7204 31.7493C59.6995 31.7493 59.6995 31.7288 59.6786 31.7288C59.6159 31.7904 59.5741 31.8314 59.5323 31.893C59.4905 31.9751 59.365 32.0161 59.2814 31.9546C59.1351 31.8725 58.9887 31.7904 58.8215 31.7083C58.8424 31.6467 58.8842 31.6056 58.9051 31.5646C59.0096 31.4004 59.1351 31.2362 59.2396 31.072C59.3859 30.8257 59.4277 30.5589 59.4277 30.2716C59.4277 28.4654 59.4277 26.6798 59.4277 24.8941C59.4277 23.8884 59.4486 22.8827 59.4277 21.877C59.4277 21.5692 59.2605 21.3023 58.9469 21.1587C58.8215 21.0971 58.6731 21.1033 58.6459 20.8713C58.7086 20.8713 58.5288 20.8241 58.6125 20.8241C58.6125 20.8036 58.6125 20.8036 58.6125 20.7831C58.5079 20.7626 58.5916 20.7174 58.5874 20.6763C58.5456 20.6763 58.5957 20.6517 58.6125 20.625C58.6417 20.5901 58.6961 20.5429 58.7379 20.5429C58.9051 20.5019 59.0724 20.4814 59.2605 20.4814C59.7831 20.4608 60.3266 20.4198 60.8492 20.4198C61.8736 20.4198 62.8561 20.4608 63.8804 20.4814C64.403 20.5019 65.072 20.584 65.5319 20.8303C65.8245 20.9945 66.1381 21.1587 66.3889 21.3844C66.9952 21.9386 67.6014 22.7391 67.685 23.56C67.8105 24.8531 67.2669 25.2636 66.7234 26.0435C66.6189 26.2077 66.4308 26.3308 66.2844 26.495C66.2635 26.5361 66.2635 26.5771 66.2844 26.6182C67.1415 27.7265 67.915 28.8964 68.793 30.0047C68.793 30.0047 68.8766 30.1279 68.8975 30.1279C68.8975 30.0458 68.8975 29.8405 68.8975 29.779C68.8975 27.5007 68.8557 25.2225 68.8975 22.9443C68.9184 22.1233 68.7093 22.1028 68.354 21.836C68.2494 21.7539 68.0822 21.6923 67.9986 21.6102C67.9568 21.5692 67.9359 21.5076 67.8941 21.4665C67.9568 21.4255 68.3958 21.4665 68.4585 21.4255C68.4376 21.405 68.1658 21.3229 68.1449 21.3023C68.1031 21.2818 68.0822 21.2613 68.0404 21.2408C68.0613 21.1997 68.0613 21.1587 68.1031 21.1381C68.5421 20.9124 68.3749 20.9945 69.0229 20.9124C69.3365 20.8713 69.671 20.8919 69.9845 20.9124C70.1936 20.9329 70.4235 20.8919 70.6326 20.8919C71.1343 20.9124 71.8032 20.9124 72.3049 20.9329C73.0575 20.974 73.8101 21.1792 74.479 21.5281C74.918 21.7334 75.1688 21.9386 75.3361 22.0823C75.3988 22.1233 75.5869 22.308 75.796 22.5749C75.9632 22.7801 76.1514 23.088 76.3186 23.4779C76.2977 23.2727 76.1305 22.8827 75.9632 22.5954C75.796 22.2875 75.3988 21.877 75.2525 21.7334C75.6078 21.877 76.1723 22.3696 76.3813 22.657C76.6949 23.0675 76.9457 23.6011 77.1757 24.0526C77.322 24.3194 77.3429 24.6478 77.4265 24.9557C77.4893 25.202 77.552 25.4483 77.6774 25.7562ZM64.6121 23.4164C64.5493 23.129 64.2985 22.9443 64.0058 22.9033C63.8804 22.8827 63.7341 22.8827 63.6086 22.8827C63.3996 22.8827 63.1696 22.8827 62.9606 22.8827C62.6679 22.8827 62.3962 22.8827 62.1244 22.8827C61.9363 22.8827 61.8945 23.0059 61.8945 23.1701C61.8945 23.6421 61.8945 24.1347 61.8945 24.6068C61.9154 24.7094 61.999 24.812 62.1244 24.812C62.5843 24.812 63.0233 24.8326 63.4832 24.812C63.6714 24.812 63.8804 24.771 64.0685 24.7094C64.5911 24.5452 64.8002 23.9911 64.6121 23.4164ZM74.3118 24.9557C73.8728 24.0732 73.1202 23.8474 72.1586 23.8063C72.0959 23.8063 72.0332 23.8063 71.9705 23.8063C71.7614 23.8269 71.7196 23.8474 71.7196 24.0526C71.7196 25.4483 71.7196 26.7208 71.7196 28.096C71.7196 28.3012 71.7823 28.2807 71.9914 28.2807C72.0332 28.2807 72.075 28.2807 72.1168 28.2807C72.723 28.2396 73.2456 28.1781 73.7264 27.8086C74.688 27.0903 74.8553 25.9614 74.3118 24.9557ZM27.1929 26.5566C27.172 26.844 27.0884 27.316 27.0257 27.5828C26.9839 27.8086 27.0048 27.9112 26.9212 28.1575C26.9003 28.1986 26.8585 28.4038 26.8376 28.4449C26.4195 29.2453 25.8969 30.0253 25.1443 30.5178C25.0398 30.5794 24.7262 30.8257 24.7053 30.8257C24.6844 30.8052 25.1443 30.3331 25.1861 30.2716C25.2697 30.1689 25.3115 30.0868 25.3324 30.0663C25.4997 29.9226 25.6878 29.7379 25.7505 29.4916C25.7923 29.3685 25.9387 29.1838 26.0641 29.1017C26.3568 28.8759 26.315 28.5475 26.3986 28.2191C26.2731 28.568 25.9805 28.8964 25.7505 29.1838C25.6042 29.3685 25.5624 29.6353 25.4161 29.82C25.3534 29.9226 25.1443 29.9842 25.0398 30.0663C24.9353 30.1484 24.8098 30.2716 24.7471 30.3742C24.5799 30.5999 24.3917 30.641 24.1618 30.7641C23.7437 30.9694 23.3047 31.0925 22.8448 31.1952C22.2177 31.3388 21.6742 31.4004 21.0261 31.4414C20.2526 31.4825 19.4792 31.4825 18.7684 31.462C18.7057 31.462 18.643 31.4004 18.643 31.3388C18.643 31.031 18.643 30.4768 18.643 30.0253C18.643 29.7584 18.6639 29.4916 18.6639 29.2248C18.6639 28.7117 18.6639 28.2191 18.6639 27.7265C18.6639 27.2955 18.6848 26.8645 18.6848 26.4335C18.6848 25.9204 18.6848 25.3867 18.6848 24.8531C18.6848 23.8269 18.6848 22.9033 18.6848 21.877C18.6848 21.8155 18.643 21.6923 18.643 21.6513C18.6221 21.5486 18.6221 21.5486 18.5594 21.4255C18.5385 21.3639 18.4967 21.3023 18.6221 21.2202C18.5594 21.1997 18.5594 21.1381 18.4967 21.1176C18.4967 20.9945 18.5385 20.8919 18.643 20.8919C19.3119 20.8919 19.7718 20.8919 20.4408 20.8919C20.7334 20.8919 21.0261 20.8713 21.2979 20.8919C22.1968 20.9329 22.8866 21.1587 23.6601 21.3639C24.3499 21.5486 24.9353 21.9181 25.5206 22.308C26.0641 22.6775 26.4404 23.1701 26.754 23.7448C26.9839 24.1347 27.0675 24.5657 27.1093 25.0173C27.1511 25.5714 27.2557 25.3457 27.1929 26.5566ZM23.0329 24.2579C22.4894 24.0321 21.9877 24.0116 21.4024 24.0321C21.4024 24.0321 21.3815 24.0321 21.3815 24.0526C21.3815 24.771 21.3815 25.4688 21.3815 26.1872C21.3815 26.8234 21.3815 27.4392 21.3815 28.0754V28.096C21.3815 28.3217 21.4233 28.2807 21.6532 28.2396C22.0295 28.1986 22.3849 28.137 22.7612 28.0344C23.6601 27.8086 24.2454 27.1108 24.2872 26.1667C24.329 25.3867 23.9527 24.6273 23.0329 24.2579ZM34.405 16.8896C34.405 17.2385 34.405 17.5258 34.3841 17.69C34.3841 17.7927 34.3632 17.8748 34.2796 17.8953C34.2378 17.9158 34.196 17.9158 34.1333 17.9158C34.0914 17.9158 34.0705 17.9158 34.0705 17.9363C34.0705 17.9569 34.1123 17.9774 34.1542 17.9774C34.2378 17.9774 34.3423 17.9774 34.4259 17.9774C34.5095 17.9774 34.5932 17.9774 34.635 17.9774C34.7395 17.9774 34.8649 17.9774 35.0112 17.9979C35.1576 17.9979 35.3039 18.0184 35.4502 18.0184C36.161 18.0184 36.5582 17.7721 36.7254 17.5874C36.9345 17.3616 37.1435 17.0127 37.1435 16.5407C37.1435 16.1096 36.9554 15.7813 36.7672 15.5965C36.3491 15.1655 35.722 15.1655 35.2412 15.1655C35.0112 15.1655 34.7813 15.186 34.6559 15.186C34.5513 15.186 34.3214 15.1655 34.1124 15.1655C34.0496 15.1655 34.0287 15.1655 34.0287 15.2066C34.0287 15.2476 34.0496 15.2476 34.0914 15.2476C34.1333 15.2476 34.2169 15.2681 34.2378 15.2681C34.3632 15.2887 34.405 15.3502 34.405 15.4734C34.405 15.5965 34.405 15.6992 34.405 16.2738V16.8896ZM34.8858 16.6843V16.2328C34.8858 15.9455 34.8858 15.6171 34.8858 15.4939C34.8858 15.4529 34.8858 15.4323 34.9276 15.4118C34.9694 15.4118 35.0949 15.3913 35.1785 15.3913C35.4921 15.3913 35.9101 15.4323 36.2655 15.7607C36.4118 15.9044 36.6209 16.2123 36.6209 16.6843C36.6209 17.0538 36.5582 17.4027 36.3073 17.6079C36.0774 17.7927 35.8265 17.8748 35.4293 17.8748C35.1158 17.8748 34.9694 17.7927 34.9276 17.7311C34.9067 17.69 34.8858 17.5464 34.8858 17.4437C34.8858 17.3616 34.8858 17.0743 34.8858 16.6843ZM39.7984 18.08C40.76 18.08 41.3662 17.4027 41.3662 16.5407C41.3662 15.6786 40.7809 15.145 39.8402 15.145C38.7113 15.145 38.2724 15.966 38.2724 16.6022C38.2724 17.259 38.7113 18.0595 39.7984 18.08ZM39.9656 17.8748C39.234 17.8748 38.795 17.259 38.795 16.4791C38.795 15.5555 39.2967 15.3092 39.7357 15.3092C40.3628 15.3092 40.8436 15.8223 40.8436 16.6638C40.8436 17.7516 40.2374 17.8748 39.9656 17.8748ZM43.4149 15.3913V16.9101C43.4149 17.259 43.4149 17.5464 43.394 17.7106C43.394 17.8132 43.3731 17.8953 43.2894 17.9158C43.2476 17.9363 43.2058 17.9363 43.1431 17.9363C43.1013 17.9363 43.0804 17.9363 43.0804 17.9569C43.0804 17.9774 43.1222 17.9979 43.164 17.9979C43.3103 17.9979 43.5612 17.9774 43.6448 17.9774C43.7702 17.9774 44.0002 17.9979 44.251 17.9979C44.2929 17.9979 44.3138 17.9774 44.3138 17.9569C44.3138 17.9569 44.2929 17.9363 44.251 17.9363C44.2092 17.9363 44.1256 17.9158 44.0629 17.9158C43.9584 17.8953 43.9375 17.8132 43.9166 17.7106C43.8957 17.5464 43.8957 17.259 43.8957 16.9101V15.3708L44.3765 15.3913C44.7109 15.3913 44.8155 15.4939 44.8155 15.5965V15.6376C44.8155 15.6992 44.8364 15.7197 44.8573 15.7197C44.8782 15.7197 44.8991 15.6992 44.8991 15.6581C44.8991 15.5555 44.92 15.3092 44.92 15.2271C44.92 15.1655 44.92 15.145 44.8991 15.145C44.8782 15.145 44.8573 15.145 44.7946 15.1655C44.7319 15.1655 44.6482 15.186 44.5228 15.186H43.0177C42.8923 15.186 42.7459 15.186 42.6414 15.1655C42.5369 15.1655 42.4951 15.1245 42.4742 15.1245C42.4533 15.1245 42.4533 15.145 42.4324 15.186C42.4114 15.2271 42.3487 15.5555 42.3487 15.6171C42.3487 15.6581 42.3696 15.6786 42.3905 15.6786C42.4114 15.6786 42.4324 15.6581 42.4324 15.6376C42.4324 15.6171 42.4533 15.576 42.4951 15.5144C42.5578 15.4323 42.6414 15.4118 42.8713 15.4118L43.4358 15.3913H43.4149ZM48.7664 17.1974C48.7246 17.1974 48.7246 17.1974 48.641 17.1974C48.411 17.218 48.3065 17.3206 48.0975 17.3206C48.1184 17.3616 48.1393 17.4232 48.1602 17.4643C48.3065 17.8132 48.411 17.8542 48.4947 17.8748C48.5574 17.8953 48.6201 17.8953 48.6619 17.8953C48.6828 17.8953 48.7037 17.8953 48.7037 17.9158C48.7037 17.9569 48.6828 17.9569 48.5365 17.9569C48.411 17.9569 48.1393 17.9569 47.8257 17.9569C47.763 17.9569 47.7212 17.9569 47.7212 17.9363C47.7212 17.9158 47.7421 17.8953 47.7839 17.8953C47.8257 17.8953 47.8466 17.8542 47.8257 17.8132L47.6585 17.3616C47.6376 17.3411 47.6376 17.3411 47.6167 17.3411H46.5087C46.4878 17.3411 46.4669 17.3411 46.4669 17.3616L46.4042 17.5464C46.3624 17.6285 46.3415 17.7311 46.3415 17.7721C46.3415 17.8542 46.3624 17.8953 46.4878 17.8953H46.5505C46.5924 17.8953 46.6133 17.8953 46.6133 17.9158C46.6133 17.9569 46.5924 17.9569 46.5505 17.9569C46.4251 17.9569 46.2788 17.9363 46.1534 17.9363C46.1115 17.9363 45.9025 17.9569 45.7144 17.9569C45.6726 17.9569 45.6516 17.9363 45.6516 17.9158C45.6516 17.8953 45.6726 17.8953 45.6935 17.8953C45.7353 17.8953 45.798 17.8953 45.8189 17.8953C45.9861 17.8748 46.0488 17.7516 46.1325 17.5669L47.0941 15.2271C47.1359 15.1245 47.1568 15.0834 47.1986 15.0834C47.2404 15.0834 47.2613 15.1245 47.3031 15.2066C47.3658 15.3913 47.8048 16.4996 48.0975 17.1769C48.3901 17.1769 48.7455 17.1769 48.8082 17.1769C48.8919 17.1769 48.8709 17.2385 48.7664 17.1974ZM46.5714 17.2385H47.554C47.5749 17.2385 47.5749 17.2385 47.5749 17.218L47.0941 15.9249C47.0941 15.9044 47.0941 15.8839 47.0732 15.8839C47.0732 15.8839 47.0523 15.9044 47.0523 15.9249L46.5505 17.1974C46.5505 17.218 46.5505 17.218 46.5714 17.2385ZM83.1293 19.6173V19.7281H82.9119V20.2864H82.776V19.7281H82.5586V19.6173H83.1293ZM83.8651 20.2884L83.84 19.8944C83.838 19.8431 83.838 19.7794 83.8359 19.7076H83.8275C83.8108 19.7671 83.7899 19.8451 83.769 19.9067L83.6456 20.2782H83.5056L83.3822 19.8964C83.3697 19.8451 83.3488 19.7671 83.3342 19.7076H83.3258C83.3258 19.7692 83.3237 19.8328 83.3216 19.8944L83.2965 20.2884H83.1669L83.2171 19.6193H83.4199L83.5369 19.9457C83.5516 19.997 83.5641 20.0462 83.5829 20.116H83.585C83.6017 20.0545 83.6185 19.997 83.6331 19.9477L83.7502 19.6173H83.9467L83.9989 20.2864H83.8651V20.2884Z" fill="white"/>
</svg>