<svg width="49" height="32" viewBox="0 0 49 32" fill="none" xmlns="http://www.w3.org/2000/svg">
<g opacity="1">
<path d="M11.8842 0.480467C12.0309 0.393702 12.1244 0.569069 12.2036 0.661343C17.296 6.98052 22.3944 13.2951 27.4863 19.6143C27.5909 19.7043 27.5118 19.8966 27.3706 19.876C24.9325 19.8787 22.4939 19.8769 20.0558 19.8769C19.8604 19.8792 19.6735 19.7828 19.5536 19.6317C17.0238 16.4967 14.4954 13.3603 11.9657 10.2248C11.8583 10.0981 11.8028 9.93422 11.8097 9.76941C11.8097 6.74043 11.8106 3.71098 11.8088 0.682001C11.8102 0.610386 11.8074 0.517652 11.8842 0.480467Z" fill="white"/>
<path d="M35.4381 0.465935C35.5423 0.426913 35.657 0.522401 35.6418 0.630743C35.6455 3.6611 35.6413 6.69147 35.6436 9.72183C35.6506 9.89352 35.6126 10.0712 35.5002 10.2062C34.7314 11.1601 33.9617 12.1136 33.193 13.0671C33.0648 13.2324 32.8551 13.3237 32.6455 13.3132C30.2235 13.3109 27.8011 13.3146 25.3792 13.3113C25.2362 13.3334 25.1547 13.1419 25.2603 13.0497C28.6189 8.88172 31.9804 4.71514 35.3409 0.54811C35.3664 0.512302 35.3988 0.484757 35.4381 0.465935Z" fill="white"/>
<path d="M18.6923 25.0878C19.4273 24.9758 20.1988 25.1048 20.8523 25.4592C21.4859 25.7994 22.0065 26.3425 22.3162 26.9884C22.6596 27.6968 22.7396 28.5249 22.5457 29.287C22.3615 30.0247 21.9158 30.6941 21.3077 31.1564C20.2677 31.9689 18.7437 32.0887 17.5857 31.4538C16.9193 31.099 16.3787 30.5192 16.0737 29.8324C15.6896 28.9794 15.6845 27.9681 16.0589 27.1105C16.5101 26.0473 17.5404 25.2526 18.6923 25.0878ZM18.8779 26.2355C18.1402 26.3462 17.4913 26.8658 17.202 27.5448C16.9031 28.2206 16.9618 29.04 17.3603 29.6639C17.6871 30.1895 18.2443 30.5724 18.8608 30.6707C19.4874 30.7799 20.1548 30.5876 20.6324 30.1726C21.1772 29.7103 21.472 28.9813 21.4104 28.2734C21.3642 27.6417 21.0374 27.0357 20.5278 26.6524C20.066 26.298 19.455 26.1414 18.8779 26.2355Z" fill="white"/>
<path d="M0.524551 25.2455C0.810572 25.1684 1.11279 25.2308 1.40529 25.2088C1.50942 25.223 1.66771 25.1697 1.72648 25.2863C1.74685 25.4383 1.73389 25.5921 1.73574 25.7454C1.73574 27.0818 1.73528 28.4186 1.73574 29.755C2.91685 28.291 4.09656 26.8261 5.27628 25.3612C5.33784 25.285 5.42161 25.2175 5.52481 25.2157C5.86359 25.201 6.20284 25.2175 6.54208 25.2092C6.66889 25.2115 6.80959 25.1876 6.91789 25.2712C6.52311 25.7872 6.10472 26.2853 5.70022 26.794C4.48764 28.2997 3.2746 29.805 2.06156 31.3103C1.97131 31.4196 1.89217 31.5399 1.78434 31.6345C1.67835 31.7212 1.53071 31.6941 1.4039 31.701C1.11094 31.6909 0.816125 31.7166 0.524551 31.6808V25.2455Z" fill="white"/>
<path d="M8.72383 25.4782C8.84971 25.3088 9.05613 25.206 9.26856 25.2106C9.53052 25.211 9.79293 25.206 10.0549 25.2129C10.1451 25.2032 10.1956 25.296 10.184 25.3749C10.184 27.427 10.184 29.4795 10.184 31.5316C10.196 31.6106 10.1474 31.707 10.0549 31.6969C9.73045 31.7005 9.40602 31.7005 9.08158 31.6964C8.96264 31.6996 8.86869 31.6165 8.80204 31.5279C8.24111 30.8292 7.6774 30.1328 7.11647 29.4341C6.54536 30.1397 5.97748 30.8476 5.40776 31.5546C5.34666 31.6321 5.25827 31.6973 5.1546 31.696C4.78296 31.7042 4.41085 31.6941 4.03875 31.7001C3.94757 31.6941 3.83326 31.723 3.77679 31.6289C5.41609 29.5713 7.07759 27.5303 8.72383 25.4782ZM7.79959 28.4549C8.18465 28.93 8.56416 29.4093 8.952 29.8817C8.95477 28.9291 8.95385 27.977 8.95292 27.0244C8.5674 27.5005 8.18326 27.9774 7.79959 28.4549Z" fill="white"/>
<path d="M11.6532 25.3738C11.6444 25.3013 11.6842 25.2122 11.7689 25.2141C12.0952 25.2063 12.4229 25.2095 12.7496 25.2127C12.8431 25.2026 12.9014 25.2944 12.8866 25.3793C12.8885 27.099 12.8875 28.8187 12.8871 30.5389C13.7942 30.5421 14.7013 30.5366 15.608 30.5412C15.6857 30.5247 15.7343 30.6225 15.6728 30.6743C15.4367 30.9759 15.1928 31.272 14.9526 31.5714C14.88 31.6687 14.7569 31.7082 14.6384 31.6994C13.6822 31.6962 12.7255 31.7031 11.7693 31.6962C11.6814 31.6999 11.6449 31.6053 11.6532 31.5323C11.6532 29.4798 11.6527 27.4268 11.6532 25.3738Z" fill="white"/>
<path d="M23.7415 25.376C23.7202 25.2814 23.797 25.1955 23.8937 25.2111C25.5469 25.2093 27.1996 25.2102 28.8524 25.2107C28.9287 25.2001 29.019 25.2474 29.0116 25.3337C29.0167 25.7781 29.0125 26.223 29.0134 26.6673C29.0232 26.7734 28.9667 26.8666 28.901 26.9446C28.4238 27.5299 27.9545 28.1212 27.476 28.7056C27.4523 28.747 27.3737 28.8016 27.4334 28.8493C28.1563 29.7509 28.8852 30.6484 29.6072 31.5505C29.6595 31.5937 29.6605 31.6965 29.5748 31.6942C29.1463 31.7034 28.7172 31.6988 28.2887 31.6965C28.1207 31.6988 28.0258 31.5441 27.9328 31.4303C27.2691 30.6044 26.6049 29.779 25.9389 28.9554C25.8894 28.8948 25.8135 28.8071 25.8825 28.7323C26.5096 27.9426 27.1483 27.1613 27.7786 26.3735C26.8451 26.3694 25.9112 26.3813 24.9781 26.3676C24.9615 28.1029 24.979 29.8391 24.9693 31.5744C24.98 31.6552 24.8957 31.7089 24.8226 31.6979C24.4986 31.6979 24.1747 31.7029 23.8507 31.6956C23.7646 31.6965 23.7299 31.6006 23.741 31.5294C23.7415 29.4783 23.741 27.4271 23.7415 25.376Z" fill="white"/>
<path d="M30.6622 25.379C30.6474 25.2964 30.7015 25.2018 30.795 25.2124C31.1037 25.2069 31.4133 25.2101 31.7225 25.211C31.8382 25.2041 31.9502 25.2578 32.0182 25.351C33.5608 27.2654 35.1029 29.1802 36.6455 31.0945C36.7783 31.2713 36.9375 31.4301 37.0527 31.6197C37.0416 31.6376 37.0194 31.6734 37.0083 31.6913C36.6344 31.7101 36.259 31.6913 35.8846 31.6996C35.7369 31.7019 35.5583 31.7143 35.4606 31.5802C34.8812 30.8673 34.3073 30.1497 33.7306 29.4345C33.1595 30.1396 32.5912 30.8475 32.0219 31.554C31.9608 31.6326 31.8715 31.6968 31.7678 31.6964C31.4448 31.701 31.1217 31.6996 30.7992 31.6973C30.7029 31.7106 30.6469 31.6142 30.6622 31.5302C30.6622 29.4799 30.6626 27.4293 30.6622 25.379ZM31.8937 27.0276C31.8923 27.9797 31.8923 28.9313 31.8937 29.8835C32.2788 29.4079 32.662 28.9309 33.0457 28.4544C32.6611 27.9792 32.2806 27.5004 31.8937 27.0276Z" fill="white"/>
<path d="M36.1016 25.3813C36.0919 25.3101 36.1238 25.2174 36.2085 25.2155C36.5163 25.2031 36.8245 25.2137 37.1323 25.2105C37.2517 25.2027 37.3767 25.2417 37.4494 25.3409C38.6365 26.8108 39.819 28.2844 41.007 29.7535C41.007 28.295 41.0066 26.8365 41.007 25.3776C40.9871 25.2858 41.0593 25.1967 41.1561 25.2114C41.4819 25.2119 41.8077 25.2041 42.1331 25.2155C42.2164 25.2187 42.2465 25.3106 42.2372 25.3813C42.2372 27.4306 42.2372 29.4799 42.2372 31.5292C42.2469 31.599 42.2159 31.6935 42.1317 31.6949C41.8082 31.7041 41.4837 31.6977 41.1602 31.6981C41.0533 31.7023 40.952 31.6513 40.889 31.5673C39.7033 30.0987 38.5217 28.6265 37.335 27.1588C37.3336 28.0196 37.3373 28.8808 37.3336 29.7416C37.3563 29.8182 37.2462 29.8839 37.1994 29.8141C36.8588 29.4041 36.5297 28.9845 36.1937 28.5709C36.1187 28.4897 36.0947 28.3804 36.1002 28.2734C36.1021 27.3094 36.0998 26.3453 36.1016 25.3813Z" fill="white"/>
<path d="M43.0881 25.3331C43.0784 25.2496 43.1682 25.2014 43.2418 25.211C44.6006 25.2087 45.9594 25.211 47.3183 25.2101C47.4358 25.2028 47.559 25.2409 47.6307 25.3391C47.8714 25.6366 48.1143 25.9332 48.3508 26.2343C48.4133 26.2848 48.3666 26.3849 48.2879 26.3711C47.5775 26.3766 46.8666 26.3711 46.1557 26.3734C46.1524 28.0922 46.1599 29.811 46.1594 31.5298C46.176 31.6119 46.1191 31.7065 46.0266 31.6969C45.7021 31.6996 45.3772 31.701 45.0532 31.6964C44.9843 31.7024 44.9241 31.6418 44.9311 31.5743C44.9195 29.8408 44.9306 28.1069 44.9213 26.3734C44.3609 26.372 43.7999 26.3752 43.2399 26.3725C43.1654 26.3812 43.0765 26.3303 43.0881 26.2467C43.0835 25.9423 43.083 25.6375 43.0881 25.3331Z" fill="white"/>
</g>
</svg>