<svg width="45" height="15" viewBox="0 0 45 15" fill="none" xmlns="http://www.w3.org/2000/svg">
<g opacity="1">
<path d="M19.6599 14.0349H16.0666L18.3141 0.25H21.9073L19.6599 14.0349Z" fill="white"/>
<path d="M32.6878 0.586879C31.979 0.30796 30.8549 0 29.4648 0C25.9163 0 23.4175 1.877 23.4022 4.56054C23.3727 6.54045 25.1912 7.64014 26.5514 8.30031C27.9416 8.97489 28.4142 9.4152 28.4142 10.0165C28.4 10.94 27.2908 11.3657 26.2563 11.3657C24.8216 11.3657 24.0529 11.1462 22.8848 10.6324L22.4116 10.4122L21.9088 13.5066C22.7516 13.8874 24.3043 14.2254 25.9163 14.2402C29.6867 14.2402 32.1413 12.3923 32.1704 9.53254C32.1847 7.9633 31.2245 6.7609 29.1542 5.77835C27.8974 5.14761 27.1277 4.72232 27.1277 4.07696C27.1425 3.49028 27.7787 2.88937 29.1974 2.88937C30.3656 2.85994 31.2239 3.13846 31.8741 3.41719L32.1991 3.56357L32.6878 0.586879Z" fill="white"/>
<path d="M37.4631 9.15138C37.7591 8.35945 38.8978 5.29448 38.8978 5.29448C38.8828 5.32391 39.1931 4.48794 39.3705 3.97474L39.6217 5.16253C39.6217 5.16253 40.3021 8.46217 40.4499 9.15138C39.8883 9.15138 38.1729 9.15138 37.4631 9.15138ZM41.8987 0.25H39.1192C38.2621 0.25 37.6109 0.499096 37.2411 1.39374L31.9037 14.0347H35.674C35.674 14.0347 36.2948 12.3333 36.4282 11.9669C36.8418 11.9669 40.5096 11.9669 41.0417 11.9669C41.1449 12.4508 41.4705 14.0347 41.4705 14.0347H44.7976L41.8987 0.25Z" fill="white"/>
<path d="M13.0662 0.25L9.54711 9.64997L9.16257 7.74355C8.51197 5.54378 6.47155 3.15378 4.19455 1.96541L7.41788 14.0203H11.2177L16.8658 0.25H13.0662Z" fill="white"/>
<path d="M6.27985 0.249939H0.498507L0.439362 0.528467C4.94917 1.6724 7.93593 4.42981 9.16306 7.74408L7.90626 1.40869C7.69935 0.528272 7.06348 0.278981 6.27985 0.249939Z" fill="white"/>
</g>
</svg>