<svg width="22" height="12" viewBox="0 0 22 12" fill="none" xmlns="http://www.w3.org/2000/svg">
<path d="M21.8166 10.5397C21.7907 10.4863 21.7666 10.442 21.7441 10.4065C21.373 9.76736 20.6638 8.98283 19.6169 8.0527L19.5947 8.0314L19.5837 8.02096L19.5725 8.01025H19.5612C19.0861 7.57714 18.7852 7.28592 18.6592 7.13683C18.4287 6.85281 18.377 6.56532 18.503 6.27403C18.592 6.05395 18.9264 5.58917 19.5054 4.87905C19.8099 4.50271 20.0511 4.20108 20.2293 3.97384C21.5139 2.34076 22.0708 1.2972 21.9 0.84275L21.8336 0.736551C21.789 0.672615 21.6739 0.614126 21.4885 0.560784C21.3027 0.507554 21.0652 0.498751 20.7755 0.534225L17.568 0.555412C17.516 0.537806 17.4418 0.539447 17.3452 0.560784C17.2486 0.582121 17.2003 0.592827 17.2003 0.592827L17.1445 0.619497L17.1002 0.65154C17.063 0.672727 17.0222 0.709992 16.9776 0.763259C16.9333 0.81634 16.8962 0.878634 16.8665 0.94962C16.5173 1.80872 16.1203 2.60747 15.6747 3.34582C15.3999 3.7861 15.1476 4.16766 14.9172 4.49073C14.687 4.81369 14.494 5.05164 14.3382 5.20417C14.1821 5.35685 14.0413 5.47916 13.9149 5.57156C13.7886 5.66399 13.6922 5.70305 13.6254 5.68876C13.5585 5.67448 13.4955 5.6603 13.4359 5.64613C13.332 5.58219 13.2484 5.49524 13.1854 5.3852C13.1222 5.27516 13.0796 5.13666 13.0573 4.9698C13.0351 4.80284 13.022 4.65923 13.0183 4.53848C13.0148 4.41788 13.0164 4.2473 13.0239 4.02722C13.0317 3.80703 13.0351 3.65804 13.0351 3.57993C13.0351 3.31009 13.0406 3.01723 13.0517 2.70128C13.0629 2.38534 13.072 2.135 13.0796 1.95058C13.0872 1.76597 13.0907 1.57066 13.0907 1.36475C13.0907 1.15885 13.0776 0.997366 13.0517 0.880163C13.0261 0.76311 12.9868 0.649488 12.935 0.539335C12.883 0.429294 12.8067 0.344171 12.7067 0.283742C12.6065 0.223388 12.4819 0.175492 12.3336 0.139906C11.9401 0.0547452 11.4389 0.00867733 10.8299 0.00151535C9.44895 -0.0126594 8.5616 0.0726128 8.16807 0.25722C8.01215 0.335219 7.87105 0.44179 7.74489 0.5766C7.61121 0.732858 7.59256 0.818131 7.68907 0.832156C8.13464 0.89598 8.45007 1.04866 8.63572 1.29004L8.70262 1.41795C8.75466 1.51023 8.80662 1.67361 8.85862 1.90787C8.91054 2.14213 8.94405 2.40126 8.95879 2.68513C8.99585 3.20352 8.99585 3.64726 8.95879 4.0164C8.92162 4.38569 8.88651 4.67318 8.853 4.87909C8.81949 5.08499 8.7694 5.25184 8.70262 5.3796C8.63572 5.5074 8.59121 5.58551 8.56889 5.61386C8.54662 5.64221 8.52805 5.66008 8.5133 5.66709C8.41679 5.70245 8.31642 5.72047 8.21254 5.72047C8.1085 5.72047 7.98234 5.67071 7.83387 5.57126C7.68544 5.47181 7.53139 5.33521 7.37173 5.16124C7.21206 4.98722 7.03199 4.74405 6.83144 4.43169C6.63105 4.11932 6.42313 3.75014 6.20779 3.32415L6.02964 3.01522C5.91826 2.81647 5.76613 2.52708 5.57307 2.14731C5.37989 1.76739 5.20915 1.39989 5.06072 1.04489C5.00138 0.895793 4.91225 0.782283 4.79346 0.704173L4.73772 0.67213C4.70066 0.643781 4.64117 0.613678 4.55956 0.581598C4.47783 0.549556 4.39256 0.526578 4.30338 0.51244L1.2517 0.533628C0.939854 0.533628 0.728266 0.601182 0.616855 0.736103L0.572267 0.799927C0.549992 0.835476 0.538757 0.892249 0.538757 0.970397C0.538757 1.04851 0.561032 1.14437 0.60562 1.25788C1.05111 2.25907 1.53557 3.22463 2.059 4.15472C2.58243 5.08481 3.03729 5.83402 3.42329 6.40168C3.80936 6.96975 4.20289 7.50589 4.60387 8.00984C5.00485 8.51398 5.27028 8.83705 5.40014 8.97898C5.53016 9.12118 5.63229 9.22749 5.70652 9.29847L5.98501 9.55403C6.16321 9.72446 6.42488 9.92858 6.77016 10.1664C7.11551 10.4043 7.49784 10.6386 7.91735 10.8695C8.33694 11.1001 8.82507 11.2882 9.38201 11.4338C9.93887 11.5794 10.4809 11.6379 11.0081 11.6097H12.2889C12.5487 11.5882 12.7455 11.5101 12.8793 11.3753L12.9236 11.3219C12.9534 11.2795 12.9813 11.2137 13.007 11.1251C13.0331 11.0364 13.046 10.9386 13.046 10.8323C13.0384 10.527 13.0627 10.2519 13.1183 10.007C13.1738 9.76214 13.2371 9.57753 13.3078 9.4532C13.3785 9.32899 13.4584 9.22417 13.5472 9.1392C13.6362 9.05404 13.6996 9.00245 13.7369 8.98469C13.7738 8.96682 13.8034 8.9547 13.8256 8.94743C14.0038 8.89065 14.2135 8.94563 14.4551 9.11264C14.6964 9.27949 14.9228 9.48551 15.1346 9.73036C15.3462 9.97543 15.6005 10.2504 15.8974 10.5556C16.1945 10.861 16.4543 11.088 16.677 11.2373L16.8997 11.3651C17.0484 11.4504 17.2414 11.5285 17.4791 11.5994C17.7163 11.6704 17.9241 11.6882 18.1026 11.6527L20.9537 11.6102C21.2357 11.6102 21.4551 11.5655 21.6108 11.4769C21.7668 11.3882 21.8594 11.2904 21.8893 11.1841C21.9191 11.0776 21.9207 10.9568 21.8949 10.8218C21.8685 10.6871 21.8425 10.5929 21.8166 10.5397Z" fill="white"/>
</svg>