<svg width="16" height="16" viewBox="0 0 16 16" fill="none" xmlns="http://www.w3.org/2000/svg">
<path d="M7.99997 16C3.58873 16 0 12.4113 0 8.00003C0 3.58879 3.58873 5.81741e-05 7.99997 5.81741e-05C12.4112 5.81741e-05 15.9999 3.58879 15.9999 8.00003C15.9999 12.4113 12.4112 16 7.99997 16ZM7.99997 1.04078C4.16267 1.04078 1.04078 4.16267 1.04078 8.00003C1.04078 11.8374 4.16267 14.9592 7.99997 14.9592C11.8373 14.9592 14.9592 11.8373 14.9592 8.00003C14.9592 4.16272 11.8373 1.04078 7.99997 1.04078Z" fill="black"/>
<path d="M11.2635 6.69636C11.0213 6.85115 10.6995 6.78043 10.5446 6.53839C10.0419 5.75243 9.18565 5.28321 8.25409 5.28321C6.75606 5.28321 5.53736 6.50197 5.53736 8C5.53736 9.49803 6.75606 10.7168 8.25409 10.7168C9.15801 10.7168 10.0003 10.2688 10.5073 9.51856C10.6681 9.28051 10.9915 9.21783 11.2298 9.37875C11.4679 9.5396 11.5305 9.86311 11.3696 10.1013C10.6689 11.1384 9.50419 11.7576 8.25409 11.7576C6.18219 11.7576 4.49658 10.072 4.49658 8C4.49658 5.92803 6.18219 4.24243 8.25409 4.24243C9.54241 4.24243 10.7265 4.89107 11.4214 5.97759C11.5763 6.21968 11.5056 6.54146 11.2635 6.69636Z" fill="black"/>
</svg>
