<svg width="225" height="61" viewBox="0 0 225 61" fill="none" xmlns="http://www.w3.org/2000/svg">
<path d="M66.0326 42.7366H64.71L63.4495 38.3124C63.3963 38.1206 63.3275 37.8419 63.2454 37.4784C63.1632 37.1149 63.1144 36.8629 63.0989 36.7202C63.0656 36.9365 63.0101 37.2175 62.9347 37.5631C62.8592 37.9087 62.7949 38.1652 62.7438 38.3347L61.5122 42.7366H60.1896L59.2287 39.0237L58.2523 35.322H59.4928L60.5558 39.6436C60.7222 40.3372 60.8398 40.9482 60.9108 41.4811C60.9486 41.1934 61.004 40.8723 61.0795 40.5178C61.1549 40.1632 61.2215 39.8756 61.2836 39.6548L62.4931 35.3243H63.6981L64.9385 39.6749C65.0562 40.0762 65.1827 40.6783 65.3158 41.4811C65.3668 40.9972 65.4889 40.3818 65.682 39.6347L66.7405 35.3243H67.9721L66.0326 42.7366Z" fill="#233A5E"/>
<path d="M75.8212 42.7366H71.6159V35.322H75.8212V36.3456H72.8298V38.3637H75.6325V39.3783H72.8298V41.7063H75.8212V42.7366Z" fill="#233A5E"/>
<path d="M84.6334 42.7365L83.89 40.6783H81.0473L80.3194 42.7365H79.039L81.8196 35.2908H83.1422L85.9228 42.7365H84.6334ZM83.5705 39.6325L82.8737 37.6144C82.8226 37.4783 82.7516 37.2665 82.6628 36.9744C82.5741 36.6845 82.5119 36.4704 82.4764 36.3344C82.3855 36.7514 82.2501 37.2063 82.0748 37.6991L81.4046 39.6302H83.5705V39.6325Z" fill="#233A5E"/>
<path d="M89.4999 42.7366V35.322H90.7138V41.6974H93.8628V42.7366H89.4999Z" fill="#233A5E"/>
<path d="M100.305 42.7366H99.0889V36.3612H96.903V35.322H102.491V36.3612H100.305V42.7366Z" fill="#233A5E"/>
<path d="M112.086 42.7366H110.866V39.3939H107.439V42.7366H106.223V35.322H107.439V38.3547H110.866V35.322H112.086V42.7366Z" fill="#233A5E"/>
<path d="M125.15 42.7366L122.993 36.544H122.953C123.011 37.4628 123.04 38.3257 123.04 39.1308V42.7366H121.937V35.322H123.65L125.714 41.2202H125.745L127.871 35.322H129.588V42.7366H128.419V39.0683C128.419 38.7004 128.428 38.2187 128.448 37.6278C128.466 37.0368 128.483 36.6778 128.497 36.5529H128.457L126.224 42.7366H125.15Z" fill="#233A5E"/>
<path d="M138.751 42.7365L138.008 40.6783H135.167L134.44 42.7365H133.159L135.94 35.2908H137.262L140.043 42.7365H138.751ZM137.688 39.6325L136.992 37.6144C136.94 37.4783 136.869 37.2665 136.781 36.9744C136.692 36.6845 136.63 36.4704 136.594 36.3344C136.503 36.7514 136.368 37.2063 136.193 37.6991L135.522 39.6302H137.688V39.6325Z" fill="#233A5E"/>
<path d="M149.812 42.7366H148.323L144.665 36.8272H144.625L144.65 37.1573C144.696 37.7861 144.721 38.3614 144.721 38.8832V42.7388H143.618V35.322H145.091L148.737 41.2001H148.769C148.762 41.1221 148.749 40.8389 148.729 40.3505C148.709 39.8622 148.698 39.4809 148.698 39.2066V35.322H149.812V42.7366Z" fill="#233A5E"/>
<path d="M158.979 42.7365L158.235 40.6783H155.393L154.665 42.7365H153.386L156.167 35.2908H157.49L160.27 42.7365H158.979ZM157.916 39.6325L157.219 37.6144C157.168 37.4783 157.097 37.2665 157.008 36.9744C156.917 36.6845 156.857 36.4704 156.822 36.3344C156.731 36.7514 156.595 37.2063 156.42 37.6991L155.75 39.6302H157.916V39.6325Z" fill="#233A5E"/>
<path d="M166.886 38.7139H169.622V42.4379C169.173 42.5828 168.745 42.6854 168.332 42.7478C167.92 42.808 167.476 42.8393 166.996 42.8393C165.871 42.8393 165.004 42.507 164.393 41.8425C163.783 41.178 163.479 40.2414 163.479 39.0305C163.479 37.8375 163.823 36.9032 164.511 36.2275C165.199 35.554 166.147 35.2151 167.354 35.2151C168.13 35.2151 168.865 35.3645 169.562 35.6611L169.136 36.6712C168.532 36.3947 167.929 36.2542 167.325 36.2542C166.53 36.2542 165.905 36.504 165.443 36.999C164.982 37.4963 164.751 38.1765 164.751 39.0372C164.751 39.9426 164.959 40.6316 165.374 41.1044C165.789 41.5771 166.386 41.8113 167.167 41.8113C167.56 41.8113 167.98 41.7622 168.428 41.6641V39.7508H166.888V38.7139H166.886Z" fill="#233A5E"/>
<path d="M178.205 42.7366H174V35.322H178.205V36.3456H175.216V38.3637H178.017V39.3783H175.216V41.7063H178.205V42.7366Z" fill="#233A5E"/>
<path d="M185.619 42.7366L183.462 36.544H183.422C183.48 37.4628 183.509 38.3257 183.509 39.1308V42.7366H182.406V35.322H184.119L186.183 41.2202H186.214L188.34 35.322H190.058V42.7366H188.888V39.0683C188.888 38.7004 188.897 38.2187 188.917 37.6278C188.935 37.0368 188.952 36.6778 188.966 36.5529H188.926L186.693 42.7366H185.619Z" fill="#233A5E"/>
<path d="M198.814 42.7366H194.609V35.322H198.814V36.3456H195.825V38.3637H198.626V39.3783H195.825V41.7063H198.814V42.7366Z" fill="#233A5E"/>
<path d="M209.209 42.7366H207.72L204.062 36.8272H204.023L204.047 37.1573C204.094 37.7861 204.118 38.3614 204.118 38.8832V42.7388H203.015V35.322H204.489L208.135 41.2001H208.166C208.159 41.1221 208.146 40.8389 208.126 40.3505C208.106 39.8622 208.095 39.4809 208.095 39.2066V35.322H209.209V42.7366Z" fill="#233A5E"/>
<path d="M216.332 42.7366H215.116V36.3612H212.93V35.322H218.518V36.3612H216.332V42.7366Z" fill="#233A5E"/>
<path d="M62.5397 13.9846H58.2523V29.6656H62.5397V13.9846Z" fill="#233A5E"/>
<path d="M81.329 24.8237C81.329 25.7692 81.0871 26.6098 80.6078 27.3435C80.1262 28.0771 79.4316 28.648 78.524 29.0539C77.6164 29.4597 76.5534 29.6649 75.3329 29.6649C74.3143 29.6649 73.46 29.5935 72.7676 29.4508C72.0774 29.3081 71.3584 29.0605 70.6106 28.706V25.0333C71.3984 25.4369 72.2195 25.7513 73.0694 25.9765C73.9215 26.2018 74.7027 26.3155 75.415 26.3155C76.0297 26.3155 76.478 26.2085 76.7642 25.9966C77.0505 25.7848 77.1925 25.5105 77.1925 25.1782C77.1925 24.9686 77.1348 24.7858 77.0194 24.6297C76.904 24.4736 76.7198 24.3152 76.4646 24.1547C76.2095 23.9941 75.5304 23.6685 74.4297 23.1735C73.4311 22.7208 72.6833 22.2838 72.184 21.8601C71.6847 21.4364 71.3163 20.948 71.0744 20.3995C70.8347 19.8509 70.7127 19.1997 70.7127 18.4483C70.7127 17.0434 71.2253 15.9485 72.2505 15.1613C73.2758 14.3764 74.6849 13.9817 76.4802 13.9817C78.0646 13.9817 79.6779 14.3474 81.3268 15.0766L80.0596 18.2587C78.6283 17.6053 77.3945 17.2775 76.3537 17.2775C75.8167 17.2775 75.4261 17.3712 75.182 17.5585C74.9379 17.7458 74.8158 17.98 74.8158 18.2565C74.8158 18.5553 74.9712 18.8229 75.2819 19.0593C75.5925 19.2956 76.4358 19.7282 77.8094 20.3526C79.1276 20.9436 80.0441 21.5791 80.5567 22.257C81.0738 22.9394 81.329 23.7934 81.329 24.8237Z" fill="#233A5E"/>
<path d="M99.0466 29.6648H89.744L89.7352 13.9839H99.0466V17.4247H93.9892V19.8352H98.5784V23.276H93.9892V26.2196H99.0466V29.6648Z" fill="#233A5E"/>
<path d="M114.106 17.3645C113.125 17.3645 112.359 17.7659 111.811 18.5686C111.261 19.3714 110.986 20.4797 110.986 21.8913C110.986 24.8259 112.102 26.2932 114.334 26.2932C115.009 26.2932 115.664 26.1995 116.296 26.0122C116.928 25.8249 117.565 25.5996 118.204 25.3343V28.8197C116.931 29.3838 115.493 29.6648 113.886 29.6648C111.585 29.6648 109.818 28.9981 108.591 27.6623C107.364 26.3266 106.749 24.3977 106.749 21.8712C106.749 20.2924 107.047 18.9054 107.641 17.7079C108.236 16.5126 109.09 15.5917 110.209 14.9495C111.325 14.305 112.637 13.9839 114.148 13.9839C115.797 13.9839 116.704 14.3964 118.207 15.1122V18.5753C117.643 18.31 116.485 17.8149 115.921 17.6343C115.357 17.4537 114.751 17.3645 114.106 17.3645Z" fill="#233A5E"/>
<path d="M14.4022 37.998V47.9012L26.8293 56.375L34.0859 51.4245L31.0013 49.3284L25.4534 51.4245L21.2149 48.5479L25.5422 45.6044L14.4022 37.998Z" fill="#941914"/>
<path d="M39.2563 47.9012L35.3951 50.5325L31.1787 47.6782L25.6531 49.7743L23.8334 48.5478L39.2563 38.0181V47.9012Z" fill="#B1191A"/>
<path d="M26.8294 44.6902V37.9111L20.638 40.4756L26.8294 44.6902Z" fill="#941914"/>
<path d="M26.8293 44.6902V37.9111L33.0207 40.4756L26.8293 44.6902Z" fill="#B1191A"/>
<path d="M14.4022 36.2163L18.9292 39.2936L26.0304 35.2351V32.6261L22.0138 30.1285L21.2371 26.5606L14.4022 21.9224V36.2163Z" fill="#941914"/>
<path d="M39.2565 36.2163L34.7295 39.2936L27.6282 35.2351V32.6261L31.6449 30.1285L32.4216 26.5606L39.2565 21.9224V36.2163Z" fill="#B1191A"/>
<path d="M14.4022 20.1162C14.4022 20.1162 17.915 19.5788 21.0817 22.3908C23.8246 24.8259 24.4548 28.4339 24.4548 28.4339H26.8293V13.9839H14.4022V20.1162Z" fill="#941914"/>
<path d="M39.2564 20.1162C39.2564 20.1162 35.7435 19.5788 32.5768 22.3908C29.834 24.8259 29.1816 28.4339 29.1816 28.4339H26.8293V13.9839H39.2564V20.1162Z" fill="#B1191A"/>
<path d="M46.6906 15.052L40.7211 19.1127V13.9839H46.6906V15.052Z" fill="#B1191A"/>
<path d="M46.6906 32.9338L40.7211 37.0191V46.8977L46.6906 42.8392V32.9338Z" fill="#B1191A"/>
<path d="M46.6906 24.8882L40.7211 28.9467V35.2128L46.6906 31.132V24.8882Z" fill="#B1191A"/>
<path d="M46.6906 16.8381L40.7211 20.9189V27.1628L46.6906 23.082V16.8381Z" fill="#B1191A"/>
<path d="M6.96802 15.052L12.9375 19.1127V13.9839H6.96802V15.052Z" fill="#941914"/>
<path d="M6.96802 32.9338L12.9375 37.0191V46.8977L6.96802 42.8392V32.9338Z" fill="#941914"/>
<path d="M6.96802 24.8882L12.9375 28.9467V35.2128L6.96802 31.132V24.8882Z" fill="#941914"/>
<path d="M6.96802 16.8381L12.9375 20.9189V27.1628L6.96802 23.082V16.8381Z" fill="#941914"/>
<path d="M23.2565 9.43483H20.6379L19.2843 6.51361H14.4022V12.5121H26.8293V4.75195L22.6551 6.50691L23.2565 9.43483Z" fill="#941914"/>
<path d="M30.4021 9.43483H33.0207L34.3743 6.51361H39.2564V12.5121H26.8293V4.75195L31.0035 6.50691L30.4021 9.43483Z" fill="#B1191A"/>
</svg>
