<svg width="20" height="18" viewBox="0 0 20 18" fill="none" xmlns="http://www.w3.org/2000/svg">
<path d="M2.00137 17.0075H17.0614C18.6014 17.0075 19.5614 15.3375 18.7914 14.0075L11.2614 0.9975C10.4914 -0.3325 8.57137 -0.3325 7.80137 0.9975L0.271371 14.0075C-0.498629 15.3375 0.461371 17.0075 2.00137 17.0075ZM9.53137 10.0075C8.98137 10.0075 8.53137 9.5575 8.53137 9.0075V7.0075C8.53137 6.4575 8.98137 6.0075 9.53137 6.0075C10.0814 6.0075 10.5314 6.4575 10.5314 7.0075V9.0075C10.5314 9.5575 10.0814 10.0075 9.53137 10.0075ZM10.5314 14.0075H8.53137V12.0075H10.5314V14.0075Z" fill="#CFC799"/>
</svg>
