<svg width="46" height="46" viewBox="0 0 46 46" fill="none" xmlns="http://www.w3.org/2000/svg">
<path opacity="0.2" d="M23 46C35.7025 46 46 35.7025 46 23C46 10.2975 35.7025 0 23 0C10.2975 0 0 10.2975 0 23C0 35.7025 10.2975 46 23 46Z" fill="#601DC0"/>
<path d="M23 8C20.0333 8 17.1332 8.87973 14.6664 10.528C12.1997 12.1762 10.2771 14.5189 9.14182 17.2597C8.0065 20.0006 7.70945 23.0166 8.28823 25.9264C8.867 28.8361 10.2956 31.5088 12.3934 33.6066C14.4912 35.7044 17.1639 37.133 20.0736 37.7118C22.9834 38.2906 25.9994 37.9935 28.7403 36.8582C31.4811 35.7229 33.8238 33.8003 35.472 31.3336C37.1203 28.8668 38 25.9667 38 23C38 19.0218 36.4196 15.2064 33.6066 12.3934C30.7936 9.58035 26.9783 8 23 8ZM23 28C22.0111 28 21.0444 27.7068 20.2222 27.1573C19.3999 26.6079 18.759 25.827 18.3806 24.9134C18.0022 23.9998 17.9031 22.9945 18.0961 22.0245C18.289 21.0546 18.7652 20.1637 19.4645 19.4645C20.1637 18.7652 21.0546 18.289 22.0246 18.0961C22.9945 17.9031 23.9998 18.0022 24.9134 18.3806C25.8271 18.759 26.6079 19.3999 27.1574 20.2221C27.7068 21.0444 28 22.0111 28 23C28 24.3261 27.4732 25.5979 26.5355 26.5355C25.5979 27.4732 24.3261 28 23 28ZM28.41 16.33C27.1228 15.2822 25.56 14.6293 23.91 14.45V9.86C26.757 10.0659 29.4598 11.1926 31.61 13.07L28.41 16.33ZM22.09 14.45C20.44 14.6293 18.8772 15.2822 17.59 16.33L14.35 13.09C16.511 11.2046 19.229 10.0774 22.09 9.88V14.45ZM16.31 17.61C15.2622 18.8972 14.6093 20.46 14.43 22.11H9.86C10.0574 19.249 11.1847 16.531 13.07 14.37L16.31 17.61ZM14.43 23.93C14.6093 25.58 15.2622 27.1428 16.31 28.43L13.07 31.67C11.1847 29.509 10.0574 26.791 9.86 23.93H14.43ZM17.61 29.69C18.8972 30.7378 20.46 31.3907 22.11 31.57V36.14C19.249 35.9426 16.531 34.8154 14.37 32.93L17.61 29.69ZM23.93 31.57C25.58 31.3907 27.1428 30.7378 28.43 29.69L31.61 32.93C29.449 34.8154 26.731 35.9426 23.87 36.14L23.93 31.57ZM29.71 28.41C30.7578 27.1228 31.4107 25.56 31.59 23.91H36.16C35.9626 26.771 34.8354 29.489 32.95 31.65L29.71 28.41ZM31.61 22.09C31.4307 20.44 30.7778 18.8772 29.73 17.59L32.97 14.35C34.8554 16.511 35.9826 19.229 36.18 22.09H31.61Z" fill="#601DC0"/>
</svg>
