<svg width="46" height="46" viewBox="0 0 46 46" fill="none" xmlns="http://www.w3.org/2000/svg">
<path opacity="0.2" d="M23 46C35.7025 46 46 35.7025 46 23C46 10.2975 35.7025 0 23 0C10.2975 0 0 10.2975 0 23C0 35.7025 10.2975 46 23 46Z" fill="#601DC0"/>
<path d="M17.4201 37H28.5801C28.7301 37 32.2101 37 34.2601 34.65C34.8584 33.9185 35.2901 33.0654 35.5249 32.1501C35.7598 31.2347 35.7923 30.2792 35.6201 29.35C34.8001 22.79 29.0501 17.35 26.7801 15.67L29.5701 12.1C29.6194 12.0394 29.6598 11.972 29.6901 11.9C29.8779 11.4291 29.8719 10.903 29.6733 10.4365C29.4748 9.97001 29.0997 9.601 28.6301 9.41L27.4001 8.91C27.3598 8.39091 27.1255 7.90605 26.7437 7.55206C26.3619 7.19808 25.8607 7.00096 25.3401 7H20.6601C20.1378 7.00115 19.6353 7.19966 19.2533 7.55573C18.8712 7.91181 18.6379 8.39913 18.6001 8.92L17.3701 9.42C16.9004 9.611 16.5254 9.98001 16.3268 10.4465C16.1282 10.913 16.1222 11.4391 16.3101 11.91C16.3403 11.982 16.3808 12.0494 16.4301 12.11L19.2201 15.68C16.9501 17.34 11.2201 22.8 10.3801 29.36C10.2079 30.2892 10.2403 31.2447 10.4752 32.1601C10.7101 33.0754 11.1417 33.9285 11.7401 34.66C13.7901 37 17.2801 37 17.4201 37ZM18.0001 11L19.2401 10.5L20.2401 12.26C20.3513 12.4441 20.5288 12.5786 20.7362 12.6357C20.9436 12.6928 21.165 12.6681 21.3547 12.5668C21.5445 12.4655 21.6881 12.2953 21.7561 12.0913C21.8241 11.8872 21.8112 11.6648 21.7201 11.47L20.3701 9C20.3526 8.96293 20.3289 8.92911 20.3001 8.9C20.3261 8.82408 20.3743 8.75773 20.4385 8.70957C20.5027 8.66142 20.5799 8.6337 20.6601 8.63H25.3401C25.4245 8.63309 25.5057 8.66282 25.5722 8.71491C25.6386 8.767 25.6869 8.83879 25.7101 8.92L25.6601 9.07L24.4001 11.45C24.3474 11.5471 24.3144 11.6537 24.303 11.7636C24.2915 11.8736 24.3019 11.9847 24.3335 12.0906C24.3651 12.1965 24.4173 12.2951 24.487 12.3808C24.5568 12.4665 24.6428 12.5376 24.7401 12.59C24.865 12.6508 25.0012 12.6848 25.1401 12.69C25.2929 12.6904 25.4429 12.6486 25.5734 12.5692C25.704 12.4898 25.8101 12.3759 25.8801 12.24L26.8201 10.5L28.0001 11C28.0456 11.0184 28.0844 11.0503 28.1112 11.0914C28.138 11.1326 28.1516 11.1809 28.1501 11.23L25.1501 15.03C24.5001 14.96 23.6701 14.94 22.9801 14.94C22.2901 14.94 21.4601 14.94 20.8101 15.03L17.8101 11.23C17.8092 11.1753 17.8279 11.1222 17.8627 11.08C17.8975 11.0379 17.9462 11.0095 18.0001 11ZM12.0501 29.57C12.9201 22.57 20.0501 17.04 20.6401 16.75C21.4195 16.6192 22.2103 16.569 23.0001 16.6C23.7827 16.5725 24.5663 16.6194 25.3401 16.74C26.0001 17 33.0801 22.55 34.0001 29.57C34.1368 30.2693 34.1181 30.9901 33.9453 31.6813C33.7725 32.3725 33.4498 33.0173 33.0001 33.57C31.7997 34.6942 30.2244 35.3322 28.5801 35.36H17.4201C15.7717 35.324 14.1959 34.6752 13.0001 33.54C12.5633 32.9867 12.2521 32.3451 12.0881 31.6596C11.924 30.974 11.9111 30.261 12.0501 29.57Z" fill="#601DC0"/>
<path d="M21.79 32.1004V32.8404C21.79 33.0632 21.8785 33.2768 22.036 33.4344C22.1935 33.5919 22.4072 33.6804 22.63 33.6804C22.8528 33.6804 23.0664 33.5919 23.224 33.4344C23.3815 33.2768 23.47 33.0632 23.47 32.8404V32.0904C24.0968 32.0261 24.6777 31.7321 25.1006 31.2649C25.5234 30.7977 25.7583 30.1905 25.76 29.5604V28.4004C25.733 27.9643 25.59 27.5433 25.3456 27.1811C25.1012 26.8189 24.7643 26.5286 24.37 26.3404L24.23 26.2604L24 26.1904L23.47 25.9904V22.6504C23.6452 22.7052 23.7985 22.8141 23.9081 22.9614C24.0177 23.1087 24.0778 23.2868 24.08 23.4704V24.0004C24.08 24.2232 24.1685 24.4368 24.326 24.5944C24.4835 24.7519 24.6972 24.8404 24.92 24.8404C25.1428 24.8404 25.3564 24.7519 25.514 24.5944C25.6715 24.4368 25.76 24.2232 25.76 24.0004V23.4504C25.7561 22.8209 25.5205 22.2149 25.098 21.7482C24.6756 21.2815 24.096 20.9868 23.47 20.9204V20.2404C23.47 20.0176 23.3815 19.804 23.224 19.6464C23.0664 19.4889 22.8528 19.4004 22.63 19.4004C22.4072 19.4004 22.1935 19.4889 22.036 19.6464C21.8785 19.804 21.79 20.0176 21.79 20.2404V20.9104C21.1259 20.926 20.4941 21.2002 20.029 21.6746C19.564 22.149 19.3024 22.7861 19.3 23.4504V24.6104C19.3323 25.0322 19.4738 25.4383 19.7105 25.7889C19.9471 26.1396 20.2709 26.4227 20.65 26.6104L20.8 26.6904L21.59 26.9904L21.79 27.0604V30.3604C21.5707 30.3476 21.3646 30.2514 21.2139 30.0915C21.0633 29.9316 20.9796 29.7201 20.98 29.5004V29.0004C20.98 28.7776 20.8915 28.564 20.734 28.4064C20.5764 28.2489 20.3628 28.1604 20.14 28.1604C19.9172 28.1604 19.7035 28.2489 19.546 28.4064C19.3885 28.564 19.3 28.7776 19.3 29.0004V29.5404C19.292 30.2097 19.5495 30.8549 20.0162 31.3347C20.4829 31.8145 21.1207 32.0899 21.79 32.1004ZM21 23.4704C20.9996 23.2507 21.0833 23.0392 21.2339 22.8793C21.3846 22.7194 21.5907 22.6232 21.81 22.6104V25.3204H21.75L21.51 25.2304C21.19 25.0204 21 24.8004 21 24.6504V23.4704ZM23.56 27.8004C23.93 28.0504 24.1 28.2804 24.1 28.4004V29.5604C24.0994 29.7443 24.0398 29.9232 23.93 30.0708C23.8202 30.2184 23.666 30.3269 23.49 30.3804V27.7704L23.56 27.8004Z" fill="#601DC0"/>
</svg>
