<svg width="46" height="46" viewBox="0 0 46 46" fill="none" xmlns="http://www.w3.org/2000/svg">
<path opacity="0.2" d="M23 46C35.7025 46 46 35.7025 46 23C46 10.2975 35.7025 0 23 0C10.2975 0 0 10.2975 0 23C0 35.7025 10.2975 46 23 46Z" fill="#601DC0"/>
<path d="M23 8C20.0333 8 17.1332 8.87973 14.6665 10.528C12.1997 12.1762 10.2771 14.5189 9.14182 17.2597C8.0065 20.0006 7.70945 23.0166 8.28823 25.9264C8.867 28.8361 10.2956 31.5088 12.3934 33.6066C14.4912 35.7044 17.1639 37.133 20.0737 37.7118C22.9834 38.2906 25.9994 37.9935 28.7403 36.8582C31.4812 35.7229 33.8238 33.8003 35.472 31.3336C37.1203 28.8668 38 25.9667 38 23C38 19.0218 36.4197 15.2064 33.6066 12.3934C30.7936 9.58035 26.9783 8 23 8ZM27.15 35.51C25.8816 34.8015 24.4529 34.4295 23 34.4295C21.5471 34.4295 20.1184 34.8015 18.85 35.51C16.9055 34.8589 15.139 33.7648 13.6899 32.314C12.2408 30.8631 11.1487 29.0953 10.5 27.15C11.2021 25.8795 11.5704 24.4516 11.5704 23C11.5704 21.5484 11.2021 20.1205 10.5 18.85C11.1487 16.9047 12.2408 15.1369 13.6899 13.686C15.139 12.2352 16.9055 11.1411 18.85 10.49C20.1184 11.1985 21.5471 11.5705 23 11.5705C24.4529 11.5705 25.8816 11.1985 27.15 10.49C29.0956 11.1411 30.8634 12.2351 32.3141 13.6859C33.7649 15.1366 34.8589 16.9044 35.51 18.85C34.8079 20.1205 34.4396 21.5484 34.4396 23C34.4396 24.4516 34.8079 25.8795 35.51 27.15C34.8589 29.0956 33.7649 30.8634 32.3141 32.3141C30.8634 33.7649 29.0956 34.8589 27.15 35.51Z" fill="#601DC0"/>
<path d="M23 14.2305C21.2655 14.2305 19.5699 14.7448 18.1276 15.7085C16.6854 16.6721 15.5613 18.0418 14.8976 19.6443C14.2338 21.2468 14.0601 23.0102 14.3985 24.7114C14.7369 26.4126 15.5722 27.9753 16.7987 29.2018C18.0252 30.4283 19.5878 31.2636 21.289 31.602C22.9903 31.9403 24.7536 31.7667 26.3561 31.1029C27.9586 30.4391 29.3283 29.315 30.292 27.8728C31.2556 26.4306 31.77 24.735 31.77 23.0005C31.7673 20.6753 30.8425 18.4462 29.1984 16.8021C27.5543 15.1579 25.3251 14.2331 23 14.2305ZM23 29.9505C21.6134 29.9504 20.2581 29.5386 19.1058 28.7672C17.9536 27.9958 17.0565 26.8996 16.5282 25.6176C15.9999 24.3356 15.8642 22.9256 16.1384 21.5663C16.4126 20.2071 17.0842 18.96 18.0682 17.983C19.0522 17.0061 20.3041 16.3434 21.6653 16.0789C23.0264 15.8145 24.4354 15.9603 25.7136 16.4978C26.9918 17.0353 28.0815 17.9402 28.8447 19.0979C29.6078 20.2557 30.0099 21.6139 30 23.0005C30 24.857 29.2625 26.6375 27.9497 27.9502C26.637 29.263 24.8565 30.0005 23 30.0005V29.9505Z" fill="#601DC0"/>
<path d="M24.2599 22.9594L22.5999 19.9094H25.4899V18.6094H20.4099L22.7799 22.9694L20.4199 27.3694L25.4899 27.3894V26.0894L22.5899 26.0794L24.2599 22.9594Z" fill="#601DC0"/>
</svg>
