<svg width="46" height="46" viewBox="0 0 46 46" fill="none" xmlns="http://www.w3.org/2000/svg">
<path opacity="0.2" d="M23 46C35.7025 46 46 35.7025 46 23C46 10.2975 35.7025 0 23 0C10.2974 0 0 10.2975 0 23C0 35.7025 10.2974 46 23 46Z" fill="#601DC0"/>
<path d="M35.15 21.8902L16.15 10.8902C15.955 10.7753 15.7331 10.7141 15.5068 10.7129C15.2806 10.7117 15.058 10.7705 14.8618 10.8833C14.6657 10.9961 14.5029 11.1589 14.3902 11.3551C14.2774 11.5513 14.2187 11.7739 14.22 12.0002V34.0002C14.2207 34.2236 14.2799 34.4428 14.3916 34.6363C14.5033 34.8297 14.6637 34.9905 14.8568 35.1027C15.0499 35.2149 15.2691 35.2747 15.4924 35.276C15.7158 35.2773 15.9356 35.2202 16.13 35.1102L35.13 24.1102C35.3238 23.9978 35.485 23.8369 35.5977 23.6432C35.7104 23.4496 35.7708 23.23 35.7728 23.0059C35.7748 22.7819 35.7184 22.5612 35.6092 22.3656C35.5 22.1699 35.3418 22.0061 35.15 21.8902V21.8902Z" stroke="#601DC0" stroke-width="2" stroke-miterlimit="10"/>
</svg>
