<svg width="90" height="90" viewBox="0 0 90 90" fill="none" xmlns="http://www.w3.org/2000/svg">
<path d="M45 0C20.0455 0 0 20.0455 0 45C0 69.9545 20.0455 90 45 90C69.9545 90 90 69.9545 90 45C90 20.0455 69.9545 0 45 0ZM70.9773 30.8864L38.25 64.8409C37.8409 65.25 37.4318 65.4545 36.8182 65.4545C36.2045 65.4545 35.5909 65.25 35.3864 64.8409L19.4318 47.6591L19.0227 47.25C18.6136 46.8409 18.4091 46.2273 18.4091 45.8182C18.4091 45.4091 18.6136 44.7955 19.0227 44.3864L21.8864 41.5227C22.7045 40.7045 23.9318 40.7045 24.75 41.5227L24.9545 41.7273L36.2045 53.7955C36.6136 54.2045 37.2273 54.2045 37.6364 53.7955L65.0454 25.3636H65.25C66.0682 24.5455 67.2954 24.5455 68.1136 25.3636L70.9773 28.2273C71.7955 28.8409 71.7955 30.0682 70.9773 30.8864Z" fill="#CD354D"/>
</svg>
