<svg width="32" height="32" viewBox="0 0 32 32" fill="none" xmlns="http://www.w3.org/2000/svg">
<path d="M15.9999 0C24.8359 0 32 7.164 32 16.0001C32 24.8361 24.836 32 16.0001 32C7.16411 32 0 24.836 0 16.0001C0 7.16411 7.16301 0 15.9999 0Z" fill="#E0E0E0"/>
<path d="M21.522 6.99805H10.4771C8.55807 6.99805 6.99805 8.55906 6.99805 10.4771V21.5231C6.99805 23.4421 8.55906 25.0021 10.4771 25.0021H21.5231C23.4421 25.0021 25.0021 23.4411 25.0021 21.5231V10.4771C25.002 8.55906 23.441 6.99805 21.522 6.99805ZM22.618 9.01107L23.0121 9.01008V11.9981L20.0021 12.0081L19.9921 9.02008L22.618 9.01107ZM16.0001 12.988C18.4971 12.988 19.012 15.332 19.012 16.001C19.012 17.66 17.6601 19.0119 16.0001 19.0119C14.3391 19.0119 12.9881 17.66 12.9881 16.001C12.987 15.332 13.5031 12.988 16.0001 12.988ZM23.0291 21.3051C23.0291 22.2561 22.2561 23.0301 21.3031 23.0301H10.663C9.711 23.0301 8.93703 22.2571 8.93703 21.3051V13.9961H11.437C11.205 14.567 11.074 15.3471 11.074 16.0011C11.074 18.7151 13.282 20.9241 15.997 20.9241C18.7121 20.9241 20.919 18.7151 20.919 16.0011C20.919 15.3471 20.7879 14.567 20.5569 13.9961H23.0269V21.3051H23.0291Z" fill="#C1C1C1"/>
</svg>
