<svg width="17" height="21" viewBox="0 0 17 21" fill="none" xmlns="http://www.w3.org/2000/svg">
<path d="M15.2225 9.15162H14.9137V6.4157C14.9137 2.87945 12.0386 0 8.498 0C4.96176 0 2.0823 2.8751 2.0823 6.4157C2.0823 6.74192 2.34328 7.0029 2.6695 7.0029C2.99573 7.0029 3.2567 6.74192 3.2567 6.4157C3.2567 3.52755 5.6055 1.1744 8.498 1.1744C11.3862 1.1744 13.7393 3.5232 13.7393 6.4157V9.15162H1.77783C1.15148 9.15162 0.642578 9.66052 0.642578 10.2869V17.5986C0.642578 19.4733 2.1693 21 4.04399 21H12.9564C14.8311 21 16.3578 19.4733 16.3578 17.5986V10.2869C16.3578 9.66052 15.8489 9.15162 15.2225 9.15162ZM15.1834 17.5986C15.1834 18.8252 14.1873 19.8256 12.9564 19.8256H4.04834C2.82174 19.8256 1.82133 18.8295 1.82133 17.5986V10.326H15.1834V17.5986Z" fill="#978F8B"/>
<path d="M8.50223 17.3599C9.71578 17.3599 10.6988 16.3726 10.6988 15.1634C10.6988 13.9498 9.71143 12.9668 8.50223 12.9668C7.28868 12.9668 6.30566 13.9542 6.30566 15.1634C6.30566 16.3726 7.28868 17.3599 8.50223 17.3599ZM8.50223 14.1368C9.06768 14.1368 9.5244 14.5979 9.5244 15.159C9.5244 15.7201 9.06768 16.1855 8.50223 16.1855C7.93678 16.1855 7.48007 15.7245 7.48007 15.1634C7.48007 14.6023 7.93678 14.1368 8.50223 14.1368Z" fill="#978F8B"/>
</svg>
