<svg width="19" height="21" viewBox="0 0 19 21" fill="none" xmlns="http://www.w3.org/2000/svg">
<path d="M9.42402 11.3154C9.44576 11.3154 9.4675 11.3154 9.4936 11.3154C9.50229 11.3154 9.51099 11.3154 9.51969 11.3154C9.53274 11.3154 9.55013 11.3154 9.56318 11.3154C10.8374 11.2936 11.868 10.8457 12.629 9.98903C14.3033 8.10168 14.025 4.86623 13.9945 4.55747C13.8858 2.23959 12.7899 1.13067 11.8854 0.61317C11.2113 0.226134 10.4242 0.0173949 9.54578 0H9.51534C9.51099 0 9.50229 0 9.49795 0H9.47185C8.98914 0 8.04112 0.0782771 7.13224 0.595776C6.21901 1.11327 5.10573 2.2222 4.99701 4.55747C4.96657 4.86623 4.68826 8.10168 6.36251 9.98903C7.11919 10.8457 8.14984 11.2936 9.42402 11.3154ZM6.15812 4.66618C6.15812 4.65314 6.16247 4.64009 6.16247 4.63139C6.30598 1.51336 8.51948 1.1785 9.4675 1.1785H9.4849C9.4936 1.1785 9.50664 1.1785 9.51969 1.1785C10.6938 1.2046 12.6899 1.68296 12.8247 4.63139C12.8247 4.64444 12.8247 4.65749 12.8291 4.66618C12.8334 4.69662 13.1378 7.65376 11.7549 9.2106C11.207 9.82812 10.4764 10.1325 9.51534 10.1412C9.50664 10.1412 9.50229 10.1412 9.4936 10.1412C9.4849 10.1412 9.48055 10.1412 9.47185 10.1412C8.51513 10.1325 7.7802 9.82812 7.23661 9.2106C5.85806 7.66246 6.15378 4.69228 6.15812 4.66618Z" fill="#978F8B"/>
<path d="M18.4302 16.7233C18.4302 16.719 18.4302 16.7146 18.4302 16.7103C18.4302 16.6755 18.4259 16.6407 18.4259 16.6016C18.3998 15.7405 18.3433 13.7271 16.4559 13.0834C16.4429 13.0791 16.4255 13.0747 16.4124 13.0704C14.4512 12.5703 12.8204 11.4396 12.803 11.4266C12.5377 11.2396 12.1724 11.3048 11.9854 11.5701C11.7984 11.8354 11.8637 12.2007 12.1289 12.3876C12.2029 12.4398 13.9337 13.6444 16.0993 14.2011C17.1126 14.562 17.2257 15.6448 17.2561 16.6364C17.2561 16.6755 17.2561 16.7103 17.2604 16.7451C17.2648 17.1365 17.2387 17.7409 17.1691 18.0888C16.4646 18.4889 13.7032 19.8718 9.50231 19.8718C5.31884 19.8718 2.54 18.4846 1.83116 18.0845C1.76158 17.7366 1.73114 17.1321 1.73984 16.7407C1.73984 16.7059 1.74419 16.6711 1.74419 16.632C1.77463 15.6405 1.8877 14.5577 2.90095 14.1967C5.06661 13.6401 6.79741 12.4311 6.87134 12.3833C7.13661 12.1963 7.20184 11.831 7.01484 11.5657C6.82785 11.3005 6.46256 11.2352 6.19728 11.4222C6.17989 11.4353 4.55781 12.5659 2.58784 13.066C2.57045 13.0704 2.5574 13.0747 2.54435 13.0791C0.657006 13.7271 0.600472 15.7405 0.57438 16.5972C0.57438 16.6364 0.57438 16.6711 0.570031 16.7059C0.570031 16.7103 0.570031 16.7146 0.570031 16.719C0.565682 16.9451 0.561334 18.1062 0.791816 18.689C0.835304 18.802 0.913581 18.8977 1.01795 18.9629C1.14841 19.0499 4.27515 21.0416 9.50666 21.0416C14.7382 21.0416 17.8649 19.0456 17.9954 18.9629C18.0954 18.8977 18.178 18.802 18.2215 18.689C18.4389 18.1106 18.4346 16.9495 18.4302 16.7233Z" fill="#978F8B"/>
</svg>
