<svg width="15" height="19" viewBox="0 0 15 19" fill="none" xmlns="http://www.w3.org/2000/svg">
<path d="M13.2043 13.5815L10.1792 12.0691C9.89388 11.9263 9.71655 11.6394 9.71655 11.3202V10.2495C9.78907 10.1609 9.86539 10.0599 9.94424 9.9484C10.3366 9.39423 10.651 8.77737 10.8797 8.11205C11.3265 7.90717 11.6166 7.46542 11.6166 6.96667V5.7C11.6166 5.39505 11.5026 5.0996 11.2999 4.86875V3.1844C11.3176 3.01023 11.3873 1.97347 10.6374 1.11815C9.98699 0.3762 8.93153 0 7.49989 0C6.06824 0 5.01279 0.3762 4.36235 1.11783C3.61249 1.97315 3.68215 3.01023 3.69989 3.1844V4.86875C3.49722 5.0996 3.38322 5.39505 3.38322 5.7V6.96667C3.38322 7.35205 3.55834 7.71147 3.85727 7.95118C4.14734 9.09973 4.75439 9.96518 4.96655 10.2429V11.2907C4.96655 11.5973 4.79935 11.8785 4.5305 12.0254L1.70552 13.5663C0.786869 14.0676 0.216553 15.0284 0.216553 16.0746V17.1C0.216553 18.6029 4.9808 19 7.49989 19C10.019 19 14.7832 18.6029 14.7832 17.1V16.1364C14.7832 15.0477 14.1781 14.0686 13.2043 13.5815Z" fill="#2E2525"/>
</svg>
