<svg width="21" height="17" viewBox="0 0 21 17" fill="none" xmlns="http://www.w3.org/2000/svg">
<path d="M2.56362 0.509766H18.432C19.8485 0.509766 21 1.66122 21 3.07774V13.9232C21 15.3397 19.8485 16.4911 18.432 16.4911H2.56797C1.15146 16.4911 -1.90735e-06 15.3397 -1.90735e-06 13.9232V3.08208C-0.00434685 1.66557 1.14711 0.509766 2.56362 0.509766ZM1.16884 13.9232C1.16884 14.6923 1.79454 15.318 2.56362 15.318H18.432C19.2011 15.318 19.8268 14.6923 19.8268 13.9232V3.08208C19.8268 2.31299 19.2011 1.6873 18.432 1.6873H2.56797C1.79888 1.6873 1.17318 2.31299 1.17318 3.08208V13.9232H1.16884Z" fill="#978F8B"/>
<path d="M7.7562 8.36578L2.62026 3.75994C2.38128 3.54269 2.35955 3.17335 2.57681 2.93002C2.79407 2.69104 3.1634 2.66931 3.40673 2.88657L10.4893 9.24349L11.871 8.00948C11.8754 8.00513 11.8797 8.00079 11.8797 7.99644C11.9101 7.96603 11.9406 7.93995 11.9753 7.91388L17.5979 2.88223C17.8412 2.66497 18.2106 2.68669 18.4278 2.93002C18.6451 3.17335 18.6234 3.54269 18.38 3.75994L13.1833 8.40488L18.3583 13.2497C18.5929 13.4713 18.606 13.8406 18.3844 14.0796C18.2671 14.2013 18.1106 14.2665 17.9542 14.2665C17.8108 14.2665 17.6674 14.2143 17.5545 14.11L12.3012 9.1957L10.876 10.4688C10.763 10.5688 10.624 10.6166 10.4849 10.6166C10.3459 10.6166 10.2025 10.5644 10.0939 10.4645L8.62957 9.15225L3.40673 14.1144C3.29376 14.223 3.14602 14.2752 3.00263 14.2752C2.84621 14.2752 2.69413 14.2143 2.57681 14.0927C2.35521 13.858 2.3639 13.4843 2.59853 13.2627L7.7562 8.36578Z" fill="#978F8B"/>
</svg>
