<svg width="35" height="35" viewBox="0 0 35 35" fill="none" xmlns="http://www.w3.org/2000/svg">
<path d="M17.5 2.1875C25.9424 2.1875 32.8125 9.05762 32.8125 17.5C32.8125 25.9424 25.9424 32.8125 17.5 32.8125C9.05762 32.8125 2.1875 25.9424 2.1875 17.5C2.1875 9.05762 9.05762 2.1875 17.5 2.1875ZM17.5 0C7.83569 0 0 7.83569 0 17.5C0 27.1643 7.83569 35 17.5 35C27.1643 35 35 27.1643 35 17.5C35 7.83569 27.1643 0 17.5 0ZM27.2562 23.3512L27.1579 23.0521C26.9272 22.3642 26.1667 21.6465 25.466 21.4542L22.8791 20.7471C22.1784 20.557 21.1786 20.8133 20.6639 21.3281L19.7282 22.2638C16.3273 21.3431 13.6592 18.675 12.7405 15.2741L13.6762 14.3384C14.1889 13.8257 14.4453 12.8259 14.2552 12.1231L13.5501 9.53613C13.36 8.83545 12.6379 8.07495 11.9501 7.84424L11.6553 7.74594C10.9653 7.51522 9.98047 7.74806 9.46777 8.26294L8.06641 9.66431C7.81648 9.91211 7.65625 10.6235 7.65625 10.6256C7.60922 15.0733 9.35245 19.3564 12.497 22.5031C15.633 25.6391 19.9012 27.3802 24.3338 27.3416C24.3573 27.3416 25.0901 27.1857 25.34 26.9357L26.7414 25.5343C27.2541 25.0238 27.4847 24.039 27.2562 23.3512Z" fill="#FFF9F1"/>
</svg>
