<svg width="22" height="22" viewBox="0 0 22 22" fill="none" xmlns="http://www.w3.org/2000/svg">
<path d="M21.2972 20.0385L16.0612 14.5928C17.4075 12.9924 18.1451 10.9788 18.1451 8.88249C18.1451 3.98476 14.1603 0 9.26262 0C4.36489 0 0.380127 3.98476 0.380127 8.88249C0.380127 13.7802 4.36489 17.765 9.26262 17.765C11.1013 17.765 12.8535 17.2104 14.3515 16.1576L19.6273 21.6447C19.8478 21.8737 20.1444 22 20.4623 22C20.7631 22 21.0485 21.8853 21.2652 21.6768C21.7255 21.2338 21.7402 20.4992 21.2972 20.0385ZM9.26262 2.31717C12.8828 2.31717 15.8279 5.2623 15.8279 8.88249C15.8279 12.5027 12.8828 15.4478 9.26262 15.4478C5.64242 15.4478 2.6973 12.5027 2.6973 8.88249C2.6973 5.2623 5.64242 2.31717 9.26262 2.31717Z" fill="#CD354D"/>
</svg>
