<svg width="13" height="13" viewBox="0 0 13 13" fill="none" xmlns="http://www.w3.org/2000/svg">
<path fill-rule="evenodd" clip-rule="evenodd" d="M8.04504 6.49808L12.68 1.86309C13.1067 1.43644 13.1067 0.744695 12.68 0.3181C12.2534 -0.108556 11.5617 -0.108556 11.135 0.3181L6.49998 4.95314L1.86494 0.318039C1.43828 -0.108617 0.746602 -0.108617 0.319946 0.318039C-0.106649 0.744695 -0.106649 1.43644 0.319946 1.86303L4.95499 6.49802L0.319946 11.1331C-0.106649 11.5597 -0.106649 12.2515 0.319946 12.6781C0.746602 13.1047 1.43828 13.1047 1.86494 12.6781L6.49998 8.04301L11.135 12.6781C11.5616 13.1047 12.2534 13.1047 12.68 12.6781C13.1067 12.2514 13.1067 11.5597 12.68 11.1331L8.04504 6.49808Z" fill="#D1D1D1"/>
</svg>
