<svg width="32" height="32" viewBox="0 0 32 32" fill="none" xmlns="http://www.w3.org/2000/svg">
<path d="M15.9999 0C24.837 0 32 7.164 32 16.0001C32 24.8371 24.837 32 15.9999 32C7.1629 32 0 24.837 0 16.0001C0 7.164 7.16301 0 15.9999 0Z" fill="#CD354D"/>
<path d="M26.003 10.779C25.3041 11.081 24.552 11.284 23.7631 11.376C24.5691 10.907 25.1871 10.1659 25.4781 9.28103C24.7241 9.71602 23.89 10.0311 23.0011 10.2C22.29 9.46502 21.277 9.00598 20.1551 9.00598C18.0031 9.00598 16.2571 10.699 16.2571 12.7889C16.2571 13.086 16.2912 13.375 16.3581 13.652C13.1181 13.494 10.2441 11.987 8.32212 9.69801C7.9861 10.257 7.7941 10.906 7.7941 11.6C7.7941 12.912 8.48206 14.0719 9.52811 14.749C8.88815 14.729 8.28807 14.56 7.76114 14.275V14.323C7.76114 16.157 9.1051 17.6861 10.8891 18.0341C10.5621 18.1201 10.218 18.1671 9.86204 18.1671C9.61104 18.1671 9.36708 18.1441 9.12904 18.0991C9.625 19.6031 11.0651 20.697 12.7721 20.7271C11.4371 21.7431 9.75604 22.3471 7.92909 22.3471C7.61406 22.3471 7.30408 22.3291 6.99805 22.2942C8.72503 23.3681 10.7731 23.9951 12.976 23.9951C20.1481 23.9951 24.0701 18.2272 24.0701 13.2271L24.0591 12.7371C24.819 12.205 25.4801 11.539 26.003 10.779Z" fill="#FFF9F1"/>
</svg>
