<svg width="32" height="32" viewBox="0 0 32 32" fill="none" xmlns="http://www.w3.org/2000/svg">
<path d="M15.9999 0C24.837 0 32 7.164 32 16.0001C32 24.8361 24.837 32 15.9999 32C7.1629 32 0 24.836 0 16.0001C0 7.16411 7.16301 0 15.9999 0Z" fill="#CD354D"/>
<path d="M15.6139 13.001C16.1199 13.001 16.516 12.84 16.806 12.611C17.094 12.381 17.238 12.0681 17.238 11.666V9.24001C17.238 8.88301 17.091 8.58797 16.7979 8.36103C16.5029 8.13398 16.1259 8.02106 15.6639 8.02106C15.1589 8.02106 14.7549 8.12804 14.4559 8.34301C14.1559 8.55897 14.0059 8.84698 14.0059 9.212V11.6459C14.0059 12.0459 14.1519 12.3619 14.4438 12.599C14.7358 12.836 15.127 13.001 15.6139 13.001ZM15.085 9.33008C15.085 9.23803 15.133 9.1641 15.228 9.10512C15.324 9.04811 15.448 9.0201 15.6001 9.0201C15.7661 9.0201 15.9001 9.04811 16.0011 9.10512C16.1032 9.1641 16.1531 9.23814 16.1531 9.33008V11.6361C16.1531 11.7501 16.1032 11.84 16.0031 11.9051C15.9031 11.9691 15.7691 12.0021 15.6001 12.0021C15.4351 12.0021 15.3071 11.9711 15.218 11.9061C15.13 11.843 15.085 11.753 15.085 11.6361V9.33008ZM18.962 12.998C19.1399 12.998 19.321 12.896 19.509 12.794C19.6991 12.69 19.88 12.538 20.0541 12.3401V12.8791H20.9991V8.01402H20.0541V11.707C19.9661 11.812 19.8681 11.899 19.7631 11.968C19.6561 12.036 19.5681 12.071 19.4991 12.071C19.4102 12.071 19.3451 12.046 19.3071 11.9931C19.2671 11.9421 19.2452 11.859 19.2452 11.745V8.01501H18.3022V12.0801C18.3022 12.37 18.3592 12.5871 18.4681 12.7311C18.579 12.876 18.743 12.998 18.962 12.998ZM21.71 15.0091H10.2899C8.47398 15.0091 7.00293 16.4241 7.00293 18.1671V20.8371C7.00293 22.5811 8.47398 23.9962 10.2899 23.9962H21.7099C23.5249 23.9962 24.9969 22.5811 24.9969 20.8371V18.1671C24.997 16.424 23.525 15.0091 21.71 15.0091ZM11.9889 17.7191H10.979V21.9011H10.002V17.7191H8.99201V17.0061H11.989C11.9889 17.0061 11.9889 17.7191 11.9889 17.7191ZM15.003 21.9591H13.95V21.5251C13.754 21.6851 13.553 21.8081 13.341 21.8901C13.132 21.9761 12.928 22.0171 12.73 22.0171C12.4861 22.0171 12.3041 21.9581 12.18 21.8391C12.058 21.7222 11.9951 21.5462 11.9951 21.3111V18.0092H13.048V21.0382C13.048 21.1322 13.07 21.1982 13.1121 21.2402C13.1581 21.2831 13.231 21.3021 13.3291 21.3021C13.4051 21.3021 13.5051 21.2751 13.6231 21.2191C13.742 21.164 13.8511 21.0941 13.9501 21.0071V18.0081H15.0031C15.003 18.0081 15.003 21.9591 15.003 21.9591ZM18.9889 21.2071C18.9889 21.4661 18.9069 21.6631 18.744 21.8021C18.5829 21.9411 18.345 22.0091 18.038 22.0091C17.833 22.0091 17.651 21.983 17.4929 21.9301C17.334 21.8771 17.1839 21.7951 17.0479 21.6821V21.9621H15.9969V17.0061H17.0479V18.6031C17.19 18.4931 17.3389 18.4071 17.4939 18.3491C17.6529 18.2902 17.8129 18.2621 17.9739 18.2621C18.3029 18.2621 18.5539 18.3391 18.7269 18.4941C18.9019 18.6501 18.9889 18.8791 18.9889 19.1781C18.9889 19.178 18.9889 21.2071 18.9889 21.2071ZM22.995 20.0921H21.055V20.806C21.055 21.0051 21.087 21.1431 21.154 21.221C21.222 21.298 21.337 21.3361 21.498 21.3361C21.668 21.3361 21.784 21.3031 21.852 21.2381C21.918 21.1721 21.9541 21.029 21.9541 20.8051V20.633H22.9971V20.827C22.9971 21.215 22.872 21.5071 22.614 21.704C22.3601 21.9 21.98 21.998 21.475 21.998C21.0201 21.998 20.6621 21.894 20.4011 21.686C20.1411 21.4801 20.009 21.192 20.009 20.828V19.126C20.009 18.799 20.153 18.529 20.4411 18.322C20.7281 18.116 21.0961 18.013 21.5511 18.013C22.015 18.013 22.372 18.109 22.622 18.3C22.8711 18.4911 22.9951 18.767 22.9951 19.1251C22.995 19.1251 22.995 20.0921 22.995 20.0921ZM11.423 13.0121H12.616V10.105L14.005 6.00507H12.792L12.0539 8.80711H11.9779L11.204 6.00507H10.0009L11.4229 10.2361C11.423 10.2361 11.423 13.0121 11.423 13.0121ZM17.4829 18.842L17.2619 18.878L17.047 18.9891V21.2671C17.131 21.3261 17.2139 21.3711 17.294 21.396L17.545 21.435C17.673 21.435 17.766 21.41 17.826 21.357C17.885 21.3061 17.9159 21.222 17.9159 21.107V19.218C17.9159 19.093 17.8809 19 17.807 18.937C17.731 18.8741 17.624 18.842 17.4829 18.842Z" fill="#FFF9F1"/>
<path d="M21.5541 18.676C21.392 18.676 21.277 18.7101 21.2061 18.78C21.1361 18.847 21.1021 18.9611 21.1021 19.12V19.502H21.999V19.12C21.999 18.9611 21.962 18.848 21.8921 18.78C21.823 18.7101 21.7081 18.676 21.5541 18.676Z" fill="#C1C1C1"/>
</svg>
