<svg width="32" height="32" viewBox="0 0 32 32" fill="none" xmlns="http://www.w3.org/2000/svg">
<path d="M15.9999 0C24.837 0 32 7.164 32 16.0001C32 24.8361 24.837 32 15.9999 32C7.1629 32 0 24.836 0 16.0001C0 7.16411 7.16301 0 15.9999 0Z" fill="#E0E0E0"/>
<path d="M15.6149 13.0009C16.1208 13.0009 16.5169 12.8399 16.8069 12.611C17.0949 12.381 17.239 12.068 17.239 11.666V9.23995C17.239 8.88295 17.092 8.5879 16.7989 8.36096C16.5039 8.13391 16.1269 8.02099 15.6649 8.02099C15.1599 8.02099 14.7559 8.12798 14.4569 8.34295C14.1569 8.55891 14.0069 8.84692 14.0069 9.21194V11.6459C14.0069 12.0458 14.1529 12.3619 14.4448 12.5989C14.7368 12.8359 15.1279 13.0009 15.6149 13.0009ZM15.086 9.33002C15.086 9.23797 15.134 9.16404 15.229 9.10506C15.325 9.04805 15.449 9.02004 15.6011 9.02004C15.767 9.02004 15.901 9.04805 16.0021 9.10506C16.1041 9.16404 16.1541 9.23808 16.1541 9.33002V11.636C16.1541 11.75 16.1041 11.84 16.0041 11.905C15.9041 11.969 15.7701 12.002 15.6011 12.002C15.4361 12.002 15.3081 11.971 15.219 11.906C15.131 11.8429 15.086 11.753 15.086 11.636V9.33002ZM18.963 12.998C19.1409 12.998 19.3219 12.8959 19.51 12.794C19.7 12.69 19.881 12.5379 20.0551 12.34V12.879H21.0001V8.01396H20.0551V11.707C19.9671 11.812 19.8691 11.899 19.7641 11.968C19.6571 12.0359 19.5691 12.071 19.5001 12.071C19.4111 12.071 19.3461 12.0459 19.3081 11.993C19.2681 11.942 19.2462 11.859 19.2462 11.745V8.01495H18.3031V12.08C18.3031 12.37 18.3601 12.587 18.4691 12.731C18.5799 12.8759 18.7439 12.998 18.963 12.998ZM21.711 15.009H10.2909C8.47495 15.009 7.00391 16.424 7.00391 18.1671V20.8371C7.00391 22.5811 8.47495 23.9961 10.2909 23.9961H21.7109C23.5258 23.9961 24.9979 22.5811 24.9979 20.8371V18.1671C24.998 16.4239 23.5259 15.009 21.711 15.009ZM11.9899 17.719H10.98V21.901H10.003V17.719H8.99298V17.006H11.99C11.9899 17.006 11.9899 17.719 11.9899 17.719ZM15.0039 21.959H13.951V21.525C13.755 21.6851 13.554 21.808 13.342 21.89C13.1329 21.9761 12.929 22.017 12.731 22.017C12.4871 22.017 12.305 21.958 12.181 21.8391C12.059 21.7221 11.996 21.5461 11.996 21.3111V18.0091H13.049V21.0381C13.049 21.1321 13.071 21.1981 13.1131 21.2401C13.1591 21.283 13.232 21.302 13.3301 21.302C13.4061 21.302 13.5061 21.275 13.6241 21.219C13.743 21.164 13.8521 21.094 13.9511 21.007V18.008H15.004C15.0039 18.008 15.0039 21.959 15.0039 21.959ZM18.9899 21.207C18.9899 21.466 18.9078 21.663 18.7449 21.8021C18.5839 21.941 18.346 22.009 18.039 22.009C17.834 22.009 17.652 21.983 17.4939 21.93C17.335 21.8771 17.1849 21.795 17.0489 21.682V21.962H15.9979V17.006H17.0489V18.603C17.191 18.4931 17.3399 18.4071 17.4949 18.3491C17.6538 18.2901 17.8139 18.2621 17.9749 18.2621C18.3039 18.2621 18.5549 18.3391 18.7279 18.4941C18.9029 18.6501 18.9899 18.8791 18.9899 19.1781C18.9899 19.178 18.9899 21.207 18.9899 21.207ZM22.9959 20.092H21.056V20.806C21.056 21.005 21.0879 21.143 21.1549 21.221C21.2229 21.298 21.3379 21.336 21.499 21.336C21.669 21.336 21.785 21.303 21.853 21.238C21.919 21.172 21.955 21.029 21.955 20.805V20.633H22.998V20.827C22.998 21.2149 22.873 21.507 22.615 21.704C22.361 21.8999 21.981 21.9979 21.476 21.9979C21.021 21.9979 20.663 21.8939 20.4021 21.686C20.1421 21.48 20.01 21.192 20.01 20.828V19.1259C20.01 18.7989 20.154 18.5289 20.442 18.3219C20.7291 18.116 21.097 18.013 21.552 18.013C22.016 18.013 22.373 18.109 22.623 18.3C22.872 18.491 22.9961 18.7669 22.9961 19.125C22.9959 19.125 22.9959 20.092 22.9959 20.092ZM11.424 13.012H12.617V10.105L14.006 6.005H12.793L12.0549 8.80705H11.9789L11.2049 6.005H10.0019L11.4239 10.236C11.424 10.236 11.424 13.012 11.424 13.012ZM17.4839 18.842L17.2629 18.878L17.0479 18.989V21.267C17.132 21.326 17.2149 21.371 17.295 21.396L17.546 21.435C17.6739 21.435 17.767 21.4099 17.827 21.357C17.8859 21.306 17.9169 21.222 17.9169 21.107V19.218C17.9169 19.093 17.8819 18.9999 17.808 18.937C17.7319 18.874 17.625 18.842 17.4839 18.842Z" fill="#C1C1C1"/>
<path d="M21.5536 18.676C21.3916 18.676 21.2765 18.7101 21.2056 18.78C21.1356 18.847 21.1016 18.9611 21.1016 19.12V19.502H21.9986V19.12C21.9986 18.9611 21.9615 18.848 21.8916 18.78C21.8225 18.7101 21.7076 18.676 21.5536 18.676Z" fill="#C1C1C1"/>
</svg>
