<svg width="24" height="31" viewBox="0 0 24 31" fill="none" xmlns="http://www.w3.org/2000/svg">
<path opacity="0.5" d="M23.5 12C23.5 16.6265 20.6032 21.2586 17.6183 24.7874C16.1355 26.5403 14.6514 27.9973 13.5375 29.0162C12.9809 29.5253 12.5177 29.9243 12.1944 30.1953C12.1225 30.2556 12.0575 30.3095 12 30.3569C11.9425 30.3095 11.8775 30.2556 11.8056 30.1953C11.4823 29.9243 11.0191 29.5253 10.4625 29.0162C9.34865 27.9973 7.8645 26.5403 6.38174 24.7874C3.39679 21.2586 0.5 16.6265 0.5 12C0.5 5.64873 5.64873 0.5 12 0.5C18.3513 0.5 23.5 5.64873 23.5 12Z" stroke="black"/>
<circle cx="12" cy="13" r="5" stroke="#DB2E51" stroke-width="2"/>
</svg>