<svg width="35" height="35" viewBox="0 0 35 35" fill="none" xmlns="http://www.w3.org/2000/svg">
<g opacity="1" clip-path="url(#clip0)">
<path d="M15.6465 17.8535L17.6467 19.8535C17.7404 19.9473 17.8676 20 18.0001 20C18.1327 20 18.2599 19.9473 18.3535 19.8535L20.3537 17.8535C20.4473 17.7597 20.5002 17.6326 20.5002 17.4999V9.99989H21.3336C21.8785 9.98845 22.3457 9.60805 22.4674 9.07681L24.4223 4.38474C24.5512 4.0762 24.5173 3.7235 24.3317 3.4454C24.1463 3.16708 23.8341 3 23.4997 3H12.5006C12.1662 2.99977 11.8537 3.16708 11.6683 3.4454C11.4827 3.72372 11.4489 4.07643 11.5777 4.38496L13.5328 9.07681C13.7644 9.63666 14.3112 10.0013 14.9171 9.99989H15.5001V17.4999C15.5001 17.6326 15.5529 17.7597 15.6465 17.8535ZM19.5002 17.293L18.0001 18.7928L16.5 17.293V9.99989H19.5002V17.293ZM14.4557 8.69206L12.4987 3.99998H23.4997L21.5446 8.69229C21.5061 8.79758 21.4569 8.89829 21.3977 8.9935C21.3768 8.99922 21.3551 9.00128 21.3336 8.99991H14.9171C14.7152 9.00014 14.533 8.8786 14.4557 8.69206Z" fill="white"/>
<path d="M32 20.5H26.7559C26.4348 20.5005 26.1333 20.6545 25.9447 20.9145L19.7441 29.4999H16.2555L10.0546 20.914C9.86623 20.6543 9.56502 20.5005 9.24413 20.5H3.99998C3.44792 20.5005 3.00069 20.9479 3 21.5V31.9999C3.00069 32.552 3.44792 32.9992 3.99998 32.9999H32C32.5521 32.9992 32.9993 32.552 33 31.9999V21.5C32.9993 20.9479 32.5521 20.5005 32 20.5ZM32 31.9999H3.99998V21.5H9.24458L15.4452 30.0858C15.6338 30.3456 15.935 30.4994 16.2559 30.4998H19.7441C20.0652 30.4994 20.3666 30.3454 20.5552 30.0853L26.7559 21.5H32V31.9999Z" fill="white"/>
</g>
<path d="M5.13193 11.3218L4.07152 12.3827C3.88383 12.5701 3.77832 12.8244 3.77832 13.0897C3.77832 13.355 3.88383 13.6093 4.07152 13.7967L16.7628 26.4882C17.091 26.8164 17.5359 27.0009 18.0001 27.0009C18.4643 27.0009 18.9092 26.8164 19.2375 26.4882L31.9287 13.7967C32.1164 13.6093 32.2219 13.355 32.2219 13.0897C32.2219 12.8244 32.1164 12.5701 31.9287 12.3827L30.8683 11.3218C30.4776 10.9318 29.8448 10.9318 29.4543 11.3218L18.0001 22.7757L6.54596 11.3218C6.15549 10.9318 5.52263 10.9318 5.13193 11.3218ZM18.3535 23.8366L30.1613 12.0288L31.2217 13.0897L18.5304 25.781C18.2336 26.0643 17.7667 26.0643 17.4698 25.781L4.77853 13.0897L5.83894 12.0288L17.6467 23.8366C17.842 24.0316 18.1583 24.0316 18.3535 23.8366Z" fill="#DB2E51" stroke="#DB2E51" stroke-width="0.5"/>
<defs>
<clipPath id="clip0">
<rect width="34" height="30" fill="white" transform="translate(1 5)"/>
</clipPath>
</defs>
</svg>