<svg width="35" height="35" viewBox="0 0 35 35" fill="none" xmlns="http://www.w3.org/2000/svg">
<path opacity="1" fill-rule="evenodd" clip-rule="evenodd" d="M3.96309 16.1688C2.25766 12.7925 2.81603 8.56674 5.63547 5.74729C8.49024 2.89252 12.7868 2.35589 16.1833 4.14L16.6483 3.25471C12.8753 1.27281 8.10146 1.8671 4.92837 5.04019C1.79451 8.17405 1.17612 12.8693 3.0705 16.6196L3.96309 16.1688ZM30.6185 13.4503C31.2296 12.392 30.9859 11.047 30.0424 10.2702L25.9584 6.9081L25.3228 7.68014L29.4068 11.0423C29.9729 11.5083 30.1191 12.3153 29.7525 12.9503L28.9468 14.3459C28.5801 14.9809 27.8082 15.2578 27.1215 15.0006L22.5754 13.2975L22.2246 14.2339L26.7707 15.937C27.9151 16.3658 29.2017 15.9043 29.8128 14.8459L30.0012 14.5195L32.3366 15.8679L32.8366 15.0018L30.5012 13.6535L30.6185 13.4503ZM14.1374 10.1031L8.81047 13.908L8.22923 13.0943L13.5561 9.28936L14.1374 10.1031ZM14.2335 18.9694L17.7335 14.0694L18.5472 14.6507L15.0472 19.5507L14.2335 18.9694ZM5.14084 24.0007V32.0007H12.1408V24.0007H13.1408V32.0007H15.1408V33.0007H13.1408H4.14084H2.14084V32.0007H4.14084V24.0007H5.14084Z" fill="white"/>
<circle cx="8.5" cy="19.5" r="5.5" stroke="#DB2E51" stroke-width="2"/>
<circle cx="19.5" cy="8.5" r="5.5" stroke="#DB2E51" stroke-width="2"/>
</svg>