<svg width="35" height="35" viewBox="0 0 35 35" fill="none" xmlns="http://www.w3.org/2000/svg">
<g opacity="1">
<path d="M19.2255 19.5377C19.1036 19.5377 18.9868 19.4893 18.9006 19.4031C18.8145 19.3169 18.766 19.2001 18.766 19.0782V16.3431C18.7666 16.3112 18.7574 16.2799 18.7395 16.2536C18.7217 16.2272 18.6961 16.2069 18.6663 16.1956L6.74293 11.6465C6.53817 11.5683 6.36197 11.4298 6.2376 11.2493C6.11323 11.0688 6.04656 10.8548 6.04639 10.6357V5.72817C6.04663 5.44188 6.16046 5.16739 6.3629 4.96495C6.56534 4.76252 6.83983 4.64868 7.12611 4.64844H9.13211C9.25397 4.64844 9.37083 4.69684 9.457 4.78301C9.54316 4.86918 9.59157 4.98604 9.59157 5.1079C9.59157 5.22975 9.54316 5.34662 9.457 5.43278C9.37083 5.51895 9.25397 5.56736 9.13211 5.56736H7.12611C7.10493 5.56711 7.08391 5.5711 7.06428 5.5791C7.04466 5.58709 7.02684 5.59893 7.01186 5.61391C6.99687 5.62889 6.98504 5.64672 6.97704 5.66634C6.96905 5.68596 6.96506 5.70698 6.9653 5.72817V10.6347C6.96494 10.6674 6.9745 10.6995 6.99271 10.7266C7.01092 10.7538 7.03692 10.7747 7.0673 10.7868L18.993 15.3355C19.1963 15.414 19.3712 15.5522 19.4946 15.7318C19.6181 15.9114 19.6844 16.1242 19.685 16.3421V19.0773C19.6851 19.1377 19.6733 19.1976 19.6503 19.2534C19.6272 19.3093 19.5934 19.36 19.5507 19.4028C19.508 19.4455 19.4573 19.4795 19.4015 19.5026C19.3457 19.5258 19.2859 19.5377 19.2255 19.5377Z" fill="white"/>
<path d="M22.1849 21.7857H16.2703C15.8504 21.7857 15.4477 21.6189 15.1507 21.322C14.8538 21.0251 14.687 20.6224 14.687 20.2024C14.687 19.7825 14.8538 19.3798 15.1507 19.0829C15.4477 18.786 15.8504 18.6191 16.2703 18.6191H22.1849C22.6048 18.6191 23.0075 18.786 23.3045 19.0829C23.6014 19.3798 23.7682 19.7825 23.7682 20.2024C23.7682 20.6224 23.6014 21.0251 23.3045 21.322C23.0075 21.6189 22.6048 21.7857 22.1849 21.7857ZM16.2703 19.5381C16.0941 19.5381 15.9251 19.6081 15.8005 19.7326C15.6759 19.8572 15.6059 20.0262 15.6059 20.2024C15.6059 20.3786 15.6759 20.5476 15.8005 20.6722C15.9251 20.7968 16.0941 20.8668 16.2703 20.8668H22.1849C22.3611 20.8668 22.5301 20.7968 22.6547 20.6722C22.7793 20.5476 22.8493 20.3786 22.8493 20.2024C22.8493 20.0262 22.7793 19.8572 22.6547 19.7326C22.5301 19.6081 22.3611 19.5381 22.1849 19.5381H16.2703Z" fill="white"/>
<path d="M21.2524 33.0819H17.2037C16.8055 33.0808 16.424 32.922 16.1427 32.6402C15.8614 32.3585 15.7031 31.9767 15.7026 31.5786V21.3266C15.7026 21.2048 15.751 21.0879 15.8372 21.0018C15.9234 20.9156 16.0402 20.8672 16.1621 20.8672H22.2963C22.4182 20.8672 22.5351 20.9156 22.6212 21.0018C22.7074 21.0879 22.7558 21.2048 22.7558 21.3266V31.5786C22.7553 31.9771 22.5968 32.3592 22.3149 32.6411C22.0331 32.9229 21.651 33.0814 21.2524 33.0819ZM16.6193 21.7861V31.5786C16.6194 31.7335 16.681 31.8821 16.7906 31.9917C16.9001 32.1013 17.0487 32.1629 17.2037 32.163H21.2524C21.4074 32.1628 21.5559 32.1011 21.6654 31.9916C21.775 31.882 21.8366 31.7335 21.8369 31.5786V21.7861H16.6193Z" fill="white"/>
</g>
<path d="M28.5558 9.29346H10.0681C9.69755 9.29298 9.34233 9.14557 9.08032 8.88356C8.81831 8.62155 8.6709 8.26632 8.67041 7.89579V2.31565C8.6709 1.94511 8.81831 1.58989 9.08032 1.32788C9.34233 1.06587 9.69755 0.918455 10.0681 0.917969H28.5558C28.9264 0.918455 29.2816 1.06587 29.5436 1.32788C29.8056 1.58989 29.953 1.94511 29.9535 2.31565V7.89579C29.953 8.26632 29.8056 8.62155 29.5436 8.88356C29.2816 9.14557 28.9264 9.29298 28.5558 9.29346ZM10.0681 1.83689C9.94115 1.83701 9.81945 1.88749 9.72969 1.97725C9.63993 2.06701 9.58945 2.18871 9.58933 2.31565V7.89579C9.58945 8.02272 9.63993 8.14443 9.72969 8.23419C9.81945 8.32394 9.94115 8.37442 10.0681 8.37454H28.5558C28.6828 8.37442 28.8045 8.32394 28.8942 8.23419C28.984 8.14443 29.0345 8.02272 29.0346 7.89579V2.31565C29.0345 2.18871 28.984 2.06701 28.8942 1.97725C28.8045 1.88749 28.6828 1.83701 28.5558 1.83689H10.0681Z" fill="#DB2E51" stroke="#DB2E51" stroke-width="0.5"/>
</svg>