<svg width="35" height="35" viewBox="0 0 35 35" fill="none" xmlns="http://www.w3.org/2000/svg">
<g opacity="1">
<path d="M4.5 5C4.5 2.51472 6.51472 0.5 9 0.5H26C28.4853 0.5 30.5 2.51472 30.5 5V18.4459V21.5C30.5 28.6797 24.6797 34.5 17.5 34.5C10.3203 34.5 4.5 28.6797 4.5 21.5V5Z" stroke="white"/>
<path d="M1.5 10C1.5 9.17157 2.17157 8.5 3 8.5H4.5V15.5H3C2.17157 15.5 1.5 14.8284 1.5 14V10Z" stroke="white"/>
<path d="M33.5 10C33.5 9.17157 32.8284 8.5 32 8.5H30.5V15.5H32C32.8284 15.5 33.5 14.8284 33.5 14V10Z" stroke="white"/>
<rect x="8.5" y="25.5" width="2" height="1" rx="0.5" stroke="white"/>
<rect x="24.5" y="25.5" width="2" height="1" rx="0.5" stroke="white"/>
<rect x="8.5" y="4.5" width="2" height="1" rx="0.5" stroke="white"/>
<rect x="24.5" y="4.5" width="2" height="1" rx="0.5" stroke="white"/>
</g>
<rect x="8.75" y="8.75" width="17.5" height="6.5" stroke="#DB2E51" stroke-width="1.5"/>
</svg>
