<svg width="35" height="35" viewBox="0 0 35 35" fill="none" xmlns="http://www.w3.org/2000/svg">
<path d="M18.6366 13.5002C18.6578 13.2667 18.7605 13.0481 18.9266 12.8826L29.1438 2.70319C29.534 2.31441 30.1651 2.31441 30.5554 2.70319L32.2888 4.43027C32.6811 4.8211 32.6811 5.45628 32.2888 5.8471L22.1143 15.984C21.9258 16.1718 21.6702 16.2768 21.4041 16.2756L19.4752 16.267C18.8888 16.2644 18.4305 15.7602 18.4838 15.1763L18.6366 13.5002Z" stroke="#DB2E51" stroke-width="1.5"/>
<path d="M18.6366 13.5002C18.6578 13.2667 18.7605 13.0481 18.9266 12.8826L29.1438 2.70319C29.534 2.31441 30.1651 2.31441 30.5554 2.70319L32.2888 4.43027C32.6811 4.8211 32.6811 5.45628 32.2888 5.8471L22.1143 15.984C21.9258 16.1718 21.6702 16.2768 21.4041 16.2756L19.4752 16.267C18.8888 16.2644 18.4305 15.7602 18.4838 15.1763L18.6366 13.5002Z" stroke="#DB2E51" stroke-width="1.5"/>
<path opacity="1" d="M29.7314 15.027V29.7449C29.7314 30.2972 29.2837 30.7449 28.7314 30.7449H4C3.44772 30.7449 3 30.2972 3 29.7449V6C3 5.44772 3.44772 5 4 5H19.9856M19.9299 26.0459H7.45523M14.5 22.0459H7.45508" stroke="white"/>
</svg>