<svg width="36" height="35" viewBox="0 0 36 35" fill="none" xmlns="http://www.w3.org/2000/svg">
<path opacity="1" d="M3 28C3 20.8203 9.71573 15 18 15C26.2843 15 33 20.8203 33 28" stroke="white" stroke-width="2" stroke-linecap="round"/>
<path d="M18.0498 27.7501C14.8795 27.7501 12.2998 25.1704 12.2998 22C12.2998 18.8297 14.8795 16.2501 18.0498 16.2501C21.2201 16.2501 23.7998 18.8297 23.7998 22C23.7998 25.1703 21.2201 27.7501 18.0498 27.7501ZM18.0498 26.467C20.5132 26.467 22.5168 24.4634 22.5168 22C22.5168 19.5367 20.5132 17.533 18.0498 17.533C15.5864 17.533 13.5828 19.5367 13.5828 22C13.5828 24.4633 15.5864 26.467 18.0498 26.467Z" fill="#DB2E51" stroke="#DB2E51" stroke-width="0.5"/>
<path d="M32.75 10C32.75 13.1704 30.1703 15.75 27.0001 15.75C23.8297 15.75 21.25 13.1704 21.25 10C21.25 6.82961 23.8297 4.25 27.0001 4.25C30.1703 4.25 32.75 6.82961 32.75 10ZM31.467 10.0001C31.467 7.53675 29.4634 5.53314 27.0001 5.53314C24.5368 5.53314 22.533 7.53673 22.533 10.0001C22.533 12.4635 24.5367 14.4671 27.0001 14.4671C29.4634 14.4671 31.467 12.4635 31.467 10.0001Z" fill="#DB2E51" stroke="#DB2E51" stroke-width="0.5"/>
<path d="M14.75 10C14.75 13.1704 12.1703 15.75 8.99994 15.75C5.8297 15.75 3.25 13.1704 3.25 10C3.25 6.82961 5.8297 4.25 8.99994 4.25C12.1703 4.25 14.75 6.82961 14.75 10ZM13.467 10.0001C13.467 7.53674 11.4633 5.53314 8.99994 5.53314C6.53659 5.53314 4.53301 7.53675 4.53301 10.0001C4.53301 12.4635 6.53659 14.4671 8.99994 14.4671C11.4633 14.4671 13.467 12.4635 13.467 10.0001Z" fill="#DB2E51" stroke="#DB2E51" stroke-width="0.5"/>
</svg>